{
classes = (
{
automatic = 1;
code = "A Aacute Abreve Acircumflex Adieresis Agrave Amacron Aogonek Aring Aringacute Atilde AE AEacute B C Cacute Ccaron Ccedilla Ccircumflex Cdotaccent D Eth Dcaron Dcroat E Eacute Ebreve Ecaron Ecircumflex Edieresis Edotaccent Egrave Emacron Eogonek F G Gbreve Gcircumflex Gcommaaccent Gdotaccent H Hbar Hcircumflex I IJ Iacute Ibreve Icircumflex Idieresis Idotaccent Igrave Imacron Iogonek Itilde J Jcircumflex K Kcommaaccent L Lacute Lcaron Lcommaaccent Ldot Lslash M N Nacute Ncaron Ncommaaccent Eng Ntilde O Oacute Obreve Ocircumflex Odieresis Ograve Ohungarumlaut Omacron Oslash Oslashacute Otilde OE P Thorn Q R Racute Rcaron Rcommaaccent S Sacute Scaron Scedilla Scircumflex Scommaaccent T Tbar Tcaron Tcedilla Tcommaaccent U Uacute Ubreve Ucircumflex Udieresis Ugrave Uhungarumlaut Umacron Uogonek Uring Utilde V W Wacute Wcircumflex Wdieresis Wgrave X Y Yacute Ycircumflex Ydieresis Ygrave Z Zacute Zcaron Zdotaccent A-cy Be-cy Ve-cy Ge-cy Gje-cy Gheupturn-cy De-cy Ie-cy Iegrave-cy Io-cy Zhe-cy Ze-cy Ii-cy Iishort-cy Iigrave-cy Ka-cy Kje-cy El-cy Em-cy En-cy O-cy Pe-cy Er-cy Es-cy Te-cy U-cy Ushort-cy Ef-cy Ha-cy Che-cy Tse-cy Sha-cy Shcha-cy Dzhe-cy Ia-cy Softsign-cy Hardsign-cy Yeru-cy Lje-cy Nje-cy Dze-cy E-cy Ereversed-cy I-cy Yi-cy Je-cy Tshe-cy Iu-cy Dje-cy Ustraitstroke-cy Gamma Delta Pi Omega";
name = Uppercase;
}
);
copyright = "Copyright (c) 2011-2013, Sol Matas (www.huertatipografica.com.ar), with Reserved Font Name \"Bitter\".";
customParameters = (
{
name = openTypeNameLicenseURL;
value = "http://scripts.sil.org/OFL";
},
{
name = trademark;
value = "Bitter is a trademark of Sol Matas (www.huertatipografica.com.ar).";
},
{
name = openTypeNameLicense;
value = "This Font Software is licensed under the SIL Open Font License, Version 1.1. This license is available with a FAQ at: http://scripts.sil.org/OFL";
}
);
date = "2013-05-19 21:02:16 +0000";
designer = "Sol Matas";
designerURL = www.huertatipografica.com.ar;

glyphs = (
{
glyphname = A;
lastChange = "2014-11-10 22:19:38 +0100";
layers = (
{
layerId = "89F00A14-383C-41A8-AF30-A12CE933D7AF";
name = "Regular Extended Italic";
paths = (
{
closed = 1;
nodes = (
"485 80 LINE",
"399 60 LINE",
"390 0 LINE",
"655 0 LINE",
"665 60 LINE",
"597 77 LINE",
"477 700 LINE",
"378 695 LINE",
"58 80 LINE",
"-27 60 LINE",
"-36 0 LINE",
"229 0 LINE",
"239 60 LINE",
"155 79 LINE",
"210 190 LINE",
"465 190 LINE"
);
},
{
closed = 1;
nodes = (
"400 571 LINE",
"451 270 LINE",
"249 270 LINE"
);
}
);
width = 712;
}
);
leftKerningGroup = A;
rightKerningGroup = A;
unicode = 0041;
},
{
glyphname = AE;
lastChange = "2014-11-10 22:19:38 +0100";
layers = (
{
layerId = "89F00A14-383C-41A8-AF30-A12CE933D7AF";
name = "Regular Extended Italic";
paths = (
{
closed = 1;
nodes = (
"58 80 LINE",
"-27 60 LINE",
"-37 0 LINE",
"223 0 LINE",
"233 60 LINE",
"158 77 LINE",
"241 205 LINE",
"458 205 LINE",
"438 80 LINE",
"350 60 LINE",
"340 0 LINE",
"837 0 LINE",
"868 182 LINE",
"802 182 LINE",
"765 80 LINE",
"538 80 LINE",
"577 325 LINE",
"805 325 LINE",
"817 405 LINE",
"589 405 LINE",
"624 620 LINE",
"845 620 LINE",
"855 530 LINE",
"911 530 LINE",
"938 700 LINE",
"536 700 LINE",
"345 695 LINE",
"336 640 LINE",
"415 620 LINE"
);
},
{
closed = 1;
nodes = (
"524 620 LINE",
"470 285 LINE",
"292 285 LINE",
"507 620 LINE"
);
}
);
width = 936;
}
);
leftKerningGroup = A;
rightKerningGroup = E;
unicode = 00C6;
},
{
glyphname = B;
lastChange = "2014-11-10 22:19:38 +0100";
layers = (
{
layerId = "89F00A14-383C-41A8-AF30-A12CE933D7AF";
name = "Regular Extended Italic";
paths = (
{
closed = 1;
nodes = (
"97 80 LINE",
"8 60 LINE",
"-2 0 LINE",
"300 0 LINE SMOOTH",
"453 0 OFFCURVE",
"570 79 OFFCURVE",
"570 228 CURVE SMOOTH",
"570 306 OFFCURVE",
"513 346 OFFCURVE",
"438 363 CURVE",
"508 379 OFFCURVE",
"594 434 OFFCURVE",
"594 547 CURVE SMOOTH",
"594 652 OFFCURVE",
"504 700 OFFCURVE",
"399 700 CURVE SMOOTH",
"295 700 LINE",
"110 695 LINE",
"101 640 LINE",
"182 620 LINE"
);
},
{
closed = 1;
nodes = (
"197 80 LINE",
"235 325 LINE",
"310 325 LINE SMOOTH",
"409 325 OFFCURVE",
"463 300 OFFCURVE",
"463 218 CURVE SMOOTH",
"463 145 OFFCURVE",
"404 80 OFFCURVE",
"290 80 CURVE SMOOTH"
);
},
{
closed = 1;
nodes = (
"389 620 LINE",
"446 620 OFFCURVE",
"488 591 OFFCURVE",
"488 537 CURVE SMOOTH",
"488 427 OFFCURVE",
"384 400 OFFCURVE",
"320 400 CURVE SMOOTH",
"247 400 LINE",
"282 620 LINE"
);
}
);
width = 629;
}
);
rightKerningGroup = B;
unicode = 0042;
},
{
glyphname = C;
lastChange = "2014-11-10 22:19:38 +0100";
layers = (
{
layerId = "89F00A14-383C-41A8-AF30-A12CE933D7AF";
name = "Regular Extended Italic";
paths = (
{
closed = 1;
nodes = (
"636 490 LINE",
"578 490 LINE",
"566 600 LINE",
"549 607 OFFCURVE",
"497 625 OFFCURVE",
"432 625 CURVE SMOOTH",
"272 625 OFFCURVE",
"170 448 OFFCURVE",
"170 263 CURVE SMOOTH",
"170 153 OFFCURVE",
"233 80 OFFCURVE",
"328 80 CURVE SMOOTH",
"431 80 OFFCURVE",
"516 131 OFFCURVE",
"550 156 CURVE",
"586 97 LINE",
"550 68 OFFCURVE",
"443 -10 OFFCURVE",
"308 -10 CURVE SMOOTH",
"153 -10 OFFCURVE",
"60 89 OFFCURVE",
"60 244 CURVE SMOOTH",
"60 518 OFFCURVE",
"227 710 OFFCURVE",
"452 710 CURVE SMOOTH",
"562 710 OFFCURVE",
"663 660 OFFCURVE",
"663 660 CURVE"
);
}
);
width = 638;
}
);
leftKerningGroup = O;
rightKerningGroup = C;
unicode = 0043;
},
{
glyphname = D;
lastChange = "2014-11-10 22:19:38 +0100";
layers = (
{
layerId = "89F00A14-383C-41A8-AF30-A12CE933D7AF";
name = "Regular Extended Italic";
paths = (
{
closed = 1;
nodes = (
"99 79 LINE",
"13 60 LINE",
"3 0 LINE",
"268 0 LINE SMOOTH",
"517 0 OFFCURVE",
"676 165 OFFCURVE",
"676 465 CURVE SMOOTH",
"676 612 OFFCURVE",
"575 700 OFFCURVE",
"428 700 CURVE SMOOTH",
"299 700 LINE",
"114 695 LINE",
"105 640 LINE",
"186 620 LINE"
);
},
{
closed = 1;
nodes = (
"287 620 LINE",
"413 620 LINE SMOOTH",
"518 620 OFFCURVE",
"571 557 OFFCURVE",
"571 452 CURVE SMOOTH",
"571 232 OFFCURVE",
"468 80 OFFCURVE",
"283 80 CURVE SMOOTH",
"201 80 LINE"
);
}
);
width = 704;
}
);
leftKerningGroup = H;
rightKerningGroup = O;
unicode = 0044;
},
{
glyphname = Eth;
lastChange = "2014-11-10 22:19:38 +0100";
layers = (
{
layerId = "89F00A14-383C-41A8-AF30-A12CE933D7AF";
name = "Regular Extended Italic";
paths = (
{
closed = 1;
nodes = (
"55 325 LINE",
"139 325 LINE",
"99 79 LINE",
"13 60 LINE",
"3 0 LINE",
"268 0 LINE SMOOTH",
"517 0 OFFCURVE",
"678 165 OFFCURVE",
"678 465 CURVE SMOOTH",
"678 612 OFFCURVE",
"575 700 OFFCURVE",
"428 700 CURVE SMOOTH",
"299 700 LINE",
"114 695 LINE",
"105 640 LINE",
"186 620 LINE",
"151 405 LINE",
"68 405 LINE"
);
},
{
closed = 1;
nodes = (
"393 325 LINE",
"404 405 LINE",
"252 405 LINE",
"287 620 LINE",
"413 620 LINE SMOOTH",
"518 620 OFFCURVE",
"573 557 OFFCURVE",
"573 452 CURVE SMOOTH",
"573 232 OFFCURVE",
"468 80 OFFCURVE",
"283 80 CURVE SMOOTH",
"201 80 LINE",
"240 325 LINE"
);
}
);
width = 711;
}
);
leftKerningGroup = H;
rightKerningGroup = O;
unicode = 00D0;
},
{
glyphname = Dcroat;
lastChange = "2014-11-10 22:19:38 +0100";
layers = (
{
layerId = "89F00A14-383C-41A8-AF30-A12CE933D7AF";
name = "Regular Extended Italic";
paths = (
{
closed = 1;
nodes = (
"55 325 LINE",
"139 325 LINE",
"99 79 LINE",
"13 60 LINE",
"3 0 LINE",
"268 0 LINE SMOOTH",
"517 0 OFFCURVE",
"678 165 OFFCURVE",
"678 465 CURVE SMOOTH",
"678 612 OFFCURVE",
"575 700 OFFCURVE",
"428 700 CURVE SMOOTH",
"299 700 LINE",
"114 695 LINE",
"105 640 LINE",
"186 620 LINE",
"151 405 LINE",
"68 405 LINE"
);
},
{
closed = 1;
nodes = (
"393 325 LINE",
"404 405 LINE",
"252 405 LINE",
"287 620 LINE",
"413 620 LINE SMOOTH",
"518 620 OFFCURVE",
"573 557 OFFCURVE",
"573 452 CURVE SMOOTH",
"573 232 OFFCURVE",
"468 80 OFFCURVE",
"283 80 CURVE SMOOTH",
"201 80 LINE",
"240 325 LINE"
);
}
);
width = 711;
}
);
leftKerningGroup = H;
rightKerningGroup = O;
unicode = 0110;
},
{
glyphname = E;
lastChange = "2014-11-10 22:19:38 +0100";
layers = (
{
layerId = "89F00A14-383C-41A8-AF30-A12CE933D7AF";
name = "Regular Extended Italic";
paths = (
{
closed = 1;
nodes = (
"106 80 LINE",
"18 60 LINE",
"8 0 LINE",
"505 0 LINE",
"536 182 LINE",
"470 182 LINE",
"433 80 LINE",
"206 80 LINE",
"245 325 LINE",
"473 325 LINE",
"485 405 LINE",
"257 405 LINE",
"292 620 LINE",
"513 620 LINE",
"523 530 LINE",
"579 530 LINE",
"606 700 LINE",
"305 700 LINE",
"119 695 LINE",
"110 640 LINE",
"192 620 LINE"
);
}
);
width = 604;
}
);
leftKerningGroup = E;
rightKerningGroup = E;
unicode = 0045;
},
{
glyphname = F;
lastChange = "2014-11-10 22:19:38 +0100";
layers = (
{
layerId = "89F00A14-383C-41A8-AF30-A12CE933D7AF";
name = "Regular Extended Italic";
paths = (
{
closed = 1;
nodes = (
"287 620 LINE",
"508 620 LINE",
"518 530 LINE",
"574 530 LINE",
"601 700 LINE",
"300 700 LINE",
"114 695 LINE",
"105 640 LINE",
"188 620 LINE",
"101 80 LINE",
"13 60 LINE",
"3 0 LINE",
"289 0 LINE",
"299 60 LINE",
"201 80 LINE",
"239 315 LINE",
"467 315 LINE",
"479 395 LINE",
"250 395 LINE"
);
}
);
width = 547;
}
);
leftKerningGroup = H;
rightKerningGroup = F;
unicode = 0046;
},
{
glyphname = G;
lastChange = "2014-11-10 22:19:38 +0100";
layers = (
{
layerId = "89F00A14-383C-41A8-AF30-A12CE933D7AF";
name = "Regular Extended Italic";
paths = (
{
closed = 1;
nodes = (
"158 -10 OFFCURVE",
"60 92 OFFCURVE",
"60 244 CURVE SMOOTH",
"60 519 OFFCURVE",
"227 710 OFFCURVE",
"452 710 CURVE SMOOTH",
"562 710 OFFCURVE",
"663 660 OFFCURVE",
"663 660 CURVE",
"636 499 LINE",
"578 499 LINE",
"566 603 LINE",
"551 609 OFFCURVE",
"508 625 OFFCURVE",
"435 625 CURVE SMOOTH",
"275 625 OFFCURVE",
"170 448 OFFCURVE",
"170 263 CURVE SMOOTH",
"170 149 OFFCURVE",
"226 76 OFFCURVE",
"348 76 CURVE SMOOTH",
"415 76 OFFCURVE",
"463 88 OFFCURVE",
"503 103 CURVE",
"530 270 LINE",
"445 285 LINE",
"454 340 LINE",
"714 345 LINE",
"704 285 LINE",
"627 270 LINE",
"592 50 LINE",
"536 24 OFFCURVE",
"450 -10 OFFCURVE",
"323 -10 CURVE SMOOTH"
);
}
);
width = 726;
}
);
leftKerningGroup = O;
rightKerningGroup = G;
unicode = 0047;
},
{
glyphname = H;
lastChange = "2014-11-10 22:19:38 +0100";
layers = (
{
layerId = "89F00A14-383C-41A8-AF30-A12CE933D7AF";
name = "Regular Extended Italic";
paths = (
{
closed = 1;
nodes = (
"415 0 LINE",
"693 0 LINE",
"703 60 LINE",
"619 80 LINE",
"706 620 LINE",
"793 640 LINE",
"803 700 LINE",
"524 695 LINE",
"515 640 LINE",
"606 620 LINE",
"571 400 LINE",
"245 400 LINE",
"281 620 LINE",
"373 640 LINE",
"383 700 LINE",
"108 695 LINE",
"99 640 LINE",
"181 620 LINE",
"94 79 LINE",
"8 60 LINE",
"-2 0 LINE",
"271 0 LINE",
"281 60 LINE",
"194 80 LINE",
"232 320 LINE",
"558 320 LINE",
"519 79 LINE",
"425 60 LINE"
);
}
);
width = 775;
}
);
unicode = 0048;
},
{
glyphname = Hbar;
lastChange = "2014-11-10 22:19:38 +0100";
layers = (
{
layerId = "89F00A14-383C-41A8-AF30-A12CE933D7AF";
name = "Regular Extended Italic";
paths = (
{
closed = 1;
nodes = (
"86 485 LINE",
"169 485 LINE",
"104 80 LINE",
"18 60 LINE",
"8 0 LINE",
"281 0 LINE",
"291 60 LINE",
"204 80 LINE",
"243 320 LINE",
"568 320 LINE",
"530 80 LINE",
"436 60 LINE",
"425 0 LINE",
"704 0 LINE",
"713 60 LINE",
"630 80 LINE",
"694 485 LINE",
"778 485 LINE",
"790 560 LINE",
"706 560 LINE",
"716 620 LINE",
"802 640 LINE",
"811 700 LINE",
"534 695 LINE",
"526 640 LINE",
"616 620 LINE",
"606 560 LINE",
"281 560 LINE",
"291 620 LINE",
"385 640 LINE",
"394 700 LINE",
"119 695 LINE",
"110 640 LINE",
"190 620 LINE",
"181 560 LINE",
"97 560 LINE"
);
},
{
closed = 1;
nodes = (
"256 400 LINE",
"268 485 LINE",
"595 485 LINE",
"581 400 LINE"
);
}
);
width = 796;
}
);
leftKerningGroup = H;
rightKerningGroup = H;
unicode = 0126;
},
{
glyphname = I;
lastChange = "2014-11-10 22:19:38 +0100";
layers = (
{
layerId = "89F00A14-383C-41A8-AF30-A12CE933D7AF";
name = "Regular Extended Italic";
paths = (
{
closed = 1;
nodes = (
"103 80 LINE",
"13 60 LINE",
"3 0 LINE",
"276 0 LINE",
"286 60 LINE",
"202 80 LINE",
"289 620 LINE",
"377 640 LINE",
"387 700 LINE",
"114 695 LINE",
"105 640 LINE",
"189 620 LINE"
);
}
);
width = 363;
}
);
leftKerningGroup = I;
rightKerningGroup = I;
unicode = 0049;
},
{
glyphname = IJ;
lastChange = "2014-11-10 22:19:38 +0100";
layers = (
{
layerId = "89F00A14-383C-41A8-AF30-A12CE933D7AF";
name = "Regular Extended Italic";
paths = (
{
closed = 1;
nodes = (
"407 25 LINE",
"398 -35 OFFCURVE",
"366 -70 OFFCURVE",
"303 -70 CURVE SMOOTH",
"254 -70 LINE",
"233 -145 LINE",
"233 -145 OFFCURVE",
"271 -150 OFFCURVE",
"295 -150 CURVE SMOOTH",
"412 -150 OFFCURVE",
"491 -75 OFFCURVE",
"510 45 CURVE SMOOTH",
"602 620 LINE",
"689 640 LINE",
"699 700 LINE",
"114 695 LINE",
"105 640 LINE",
"189 620 LINE",
"103 80 LINE",
"13 60 LINE",
"3 0 LINE",
"276 0 LINE",
"286 60 LINE",
"202 80 LINE",
"289 620 LINE",
"397 640 LINE",
"502 620 LINE"
);
}
);
width = 665;
}
);
rightKerningGroup = J;
unicode = 0132;
},
{
glyphname = Icircumflex;
lastChange = "2014-11-10 22:19:38 +0100";
layers = (
{
components = (
{
name = I;
transform = "{1, 0, 0, 1, 0, 0}";
}
);
layerId = "89F00A14-383C-41A8-AF30-A12CE933D7AF";
name = "Regular Extended Italic";
paths = (
{
closed = 1;
nodes = (
"437 795 LINE",
"319 910 LINE",
"260 905 LINE",
"104 795 LINE",
"136 750 LINE",
"280 833 LINE",
"390 750 LINE"
);
}
);
width = 363;
}
);
leftKerningGroup = I;
rightKerningGroup = I;
unicode = 00CE;
},
{
glyphname = Iogonek;
lastChange = "2014-11-10 22:19:38 +0100";
layers = (
{
components = (
{
name = I;
transform = "{1, 0, 0, 1, 0, 0}";
}
);
layerId = "89F00A14-383C-41A8-AF30-A12CE933D7AF";
name = "Regular Extended Italic";
paths = (
{
closed = 1;
nodes = (
"155 0 LINE",
"125 -14 OFFCURVE",
"24 -55 OFFCURVE",
"24 -145 CURVE SMOOTH",
"24 -193 OFFCURVE",
"61 -220 OFFCURVE",
"109 -220 CURVE SMOOTH",
"148 -220 OFFCURVE",
"190 -200 OFFCURVE",
"190 -200 CURVE",
"188 -153 LINE",
"188 -153 OFFCURVE",
"162 -160 OFFCURVE",
"142 -160 CURVE SMOOTH",
"120 -160 OFFCURVE",
"104 -147 OFFCURVE",
"104 -124 CURVE SMOOTH",
"104 -57 OFFCURVE",
"235 -13 OFFCURVE",
"276 0 CURVE"
);
}
);
width = 363;
}
);
leftKerningGroup = I;
rightKerningGroup = I;
unicode = 012E;
},
{
glyphname = J;
lastChange = "2014-11-10 22:19:38 +0100";
layers = (
{
layerId = "89F00A14-383C-41A8-AF30-A12CE933D7AF";
name = "Regular Extended Italic";
paths = (
{
closed = 1;
nodes = (
"89 25 LINE",
"79 -35 OFFCURVE",
"48 -70 OFFCURVE",
"-15 -70 CURVE SMOOTH",
"-64 -70 LINE",
"-85 -145 LINE",
"-85 -145 OFFCURVE",
"-47 -150 OFFCURVE",
"-23 -150 CURVE SMOOTH",
"94 -150 OFFCURVE",
"173 -75 OFFCURVE",
"192 45 CURVE SMOOTH",
"284 620 LINE",
"371 640 LINE",
"381 700 LINE",
"108 695 LINE",
"99 640 LINE",
"184 620 LINE"
);
}
);
width = 347;
}
);
leftKerningGroup = J;
rightKerningGroup = J;
unicode = 004A;
},
{
glyphname = K;
lastChange = "2014-11-10 22:19:38 +0100";
layers = (
{
layerId = "89F00A14-383C-41A8-AF30-A12CE933D7AF";
name = "Regular Extended Italic";
paths = (
{
closed = 1;
nodes = (
"382 0 LINE",
"642 0 LINE",
"652 60 LINE",
"581 80 LINE",
"424 367 LINE",
"613 620 LINE",
"698 640 LINE",
"708 700 LINE",
"560 695 LINE",
"344 400 LINE",
"252 400 LINE",
"288 620 LINE",
"377 640 LINE",
"387 700 LINE",
"113 695 LINE",
"104 640 LINE",
"188 620 LINE",
"101 80 LINE",
"13 60 LINE",
"3 0 LINE",
"276 0 LINE",
"286 60 LINE",
"201 80 LINE",
"239 320 LINE",
"341 320 LINE",
"471 79 LINE",
"392 60 LINE"
);
}
);
width = 649;
}
);
rightKerningGroup = K;
unicode = 004B;
},
{
glyphname = L;
lastChange = "2014-11-10 22:19:38 +0100";
layers = (
{
layerId = "89F00A14-383C-41A8-AF30-A12CE933D7AF";
name = "Regular Extended Italic";
paths = (
{
closed = 1;
nodes = (
"472 0 LINE",
"505 195 LINE",
"437 195 LINE",
"398 80 LINE",
"192 80 LINE",
"278 620 LINE",
"372 640 LINE",
"382 700 LINE",
"103 695 LINE",
"95 640 LINE",
"178 620 LINE",
"92 80 LINE",
"3 60 LINE",
"-7 0 LINE"
);
}
);
width = 521;
}
);
leftKerningGroup = H;
rightKerningGroup = L;
unicode = 004C;
},
{
glyphname = Lcaron;
lastChange = "2014-11-10 22:19:38 +0100";
layers = (
{
components = (
{
name = L;
transform = "{1, 0, 0, 1, 0, 0}";
}
);
layerId = "89F00A14-383C-41A8-AF30-A12CE933D7AF";
name = "Regular Extended Italic";
paths = (
{
closed = 1;
nodes = (
"493 695 LINE",
"486 635 OFFCURVE",
"463 574 OFFCURVE",
"418 485 CURVE",
"471 465 LINE",
"534 561 OFFCURVE",
"579 640 OFFCURVE",
"589 700 CURVE"
);
}
);
width = 533;
}
);
leftKerningGroup = H;
unicode = 013D;
},
{
glyphname = Lslash;
lastChange = "2014-11-10 22:19:38 +0100";
layers = (
{
components = (
{
name = L;
transform = "{1, 0, 0, 1, 9, 0}";
}
);
layerId = "89F00A14-383C-41A8-AF30-A12CE933D7AF";
name = "Regular Extended Italic";
paths = (
{
closed = 1;
nodes = (
"32 308 LINE",
"41 233 LINE",
"455 397 LINE",
"446 472 LINE"
);
}
);
width = 535;
}
);
leftKerningGroup = H;
rightKerningGroup = L;
unicode = 0141;
},
{
glyphname = M;
lastChange = "2014-11-10 22:19:38 +0100";
layers = (
{
layerId = "89F00A14-383C-41A8-AF30-A12CE933D7AF";
name = "Regular Extended Italic";
paths = (
{
closed = 1;
nodes = (
"788 0 LINE",
"525 0 LINE",
"535 60 LINE",
"619 80 LINE",
"695 556 LINE",
"461 180 LINE",
"379 175 LINE",
"266 560 LINE",
"189 80 LINE",
"277 60 LINE",
"267 0 LINE",
"-2 0 LINE",
"8 60 LINE",
"96 80 LINE",
"183 620 LINE",
"100 640 LINE",
"109 695 LINE",
"326 700 LINE",
"445 299 LINE",
"528 434 OFFCURVE",
"689 695 OFFCURVE",
"689 695 CURVE",
"898 700 LINE",
"888 640 LINE",
"803 620 LINE",
"718 80 LINE",
"798 60 LINE"
);
}
);
width = 870;
}
);
leftKerningGroup = H;
rightKerningGroup = H;
unicode = 004D;
},
{
glyphname = N;
lastChange = "2014-11-10 22:19:38 +0100";
layers = (
{
layerId = "89F00A14-383C-41A8-AF30-A12CE933D7AF";
name = "Regular Extended Italic";
paths = (
{
closed = 1;
nodes = (
"320 700 LINE",
"554 141 LINE",
"630 620 LINE",
"550 640 LINE",
"559 695 LINE",
"814 700 LINE",
"804 640 LINE",
"719 620 LINE",
"621 0 LINE",
"508 0 LINE",
"264 563 LINE",
"187 80 LINE",
"269 60 LINE",
"258 0 LINE",
"-2 0 LINE",
"9 60 LINE",
"98 80 LINE",
"184 620 LINE",
"101 640 LINE",
"110 695 LINE"
);
}
);
width = 780;
}
);
leftKerningGroup = H;
rightKerningGroup = H;
unicode = 004E;
},
{
glyphname = Eng;
lastChange = "2014-11-10 22:19:38 +0100";
layers = (
{
layerId = "89F00A14-383C-41A8-AF30-A12CE933D7AF";
name = "Regular Extended Italic";
paths = (
{
closed = 1;
nodes = (
"368 -70 LINE",
"348 -145 LINE",
"348 -145 OFFCURVE",
"386 -150 OFFCURVE",
"410 -150 CURVE SMOOTH",
"526 -150 OFFCURVE",
"607 -75 OFFCURVE",
"624 34 CURVE",
"718 620 LINE",
"804 640 LINE",
"813 700 LINE",
"558 695 LINE",
"549 640 LINE",
"629 620 LINE",
"553 141 LINE",
"318 700 LINE",
"109 695 LINE",
"100 640 LINE",
"183 620 LINE",
"97 80 LINE",
"8 60 LINE",
"-2 0 LINE",
"258 0 LINE",
"268 60 LINE",
"185 80 LINE",
"263 561 LINE",
"511 -10 LINE",
"497 -50 OFFCURVE",
"468 -70 OFFCURVE",
"417 -70 CURVE SMOOTH"
);
}
);
width = 780;
}
);
leftKerningGroup = H;
rightKerningGroup = J;
unicode = 014A;
},
{
glyphname = O;
lastChange = "2014-11-10 22:19:38 +0100";
layers = (
{
layerId = "89F00A14-383C-41A8-AF30-A12CE933D7AF";
name = "Regular Extended Italic";
paths = (
{
closed = 1;
nodes = (
"150 -10 OFFCURVE",
"58 83 OFFCURVE",
"58 234 CURVE SMOOTH",
"58 516 OFFCURVE",
"227 710 OFFCURVE",
"450 710 CURVE SMOOTH",
"612 710 OFFCURVE",
"703 609 OFFCURVE",
"703 465 CURVE SMOOTH",
"703 173 OFFCURVE",
"528 -10 OFFCURVE",
"299 -10 CURVE SMOOTH"
);
},
{
closed = 1;
nodes = (
"593 574 OFFCURVE",
"528 625 OFFCURVE",
"433 625 CURVE SMOOTH",
"272 625 OFFCURVE",
"168 448 OFFCURVE",
"168 244 CURVE SMOOTH",
"168 132 OFFCURVE",
"227 75 OFFCURVE",
"321 75 CURVE SMOOTH",
"481 75 OFFCURVE",
"593 238 OFFCURVE",
"593 452 CURVE SMOOTH"
);
}
);
width = 735;
}
);
leftKerningGroup = O;
rightKerningGroup = O;
unicode = 004F;
},
{
glyphname = Oslash;
lastChange = "2014-11-10 22:19:38 +0100";
layers = (
{
layerId = "89F00A14-383C-41A8-AF30-A12CE933D7AF";
name = "Regular Extended Italic";
paths = (
{
closed = 1;
nodes = (
"529 -10 OFFCURVE",
"699 173 OFFCURVE",
"699 475 CURVE SMOOTH",
"699 541 OFFCURVE",
"678 598 OFFCURVE",
"638 639 CURVE",
"721 750 LINE",
"664 785 LINE",
"585 679 LINE",
"548 699 OFFCURVE",
"503 710 OFFCURVE",
"451 710 CURVE SMOOTH",
"228 710 OFFCURVE",
"64 516 OFFCURVE",
"64 234 CURVE SMOOTH",
"64 162 OFFCURVE",
"85 103 OFFCURVE",
"122 61 CURVE",
"24 -70 LINE",
"82 -105 LINE",
"175 19 LINE",
"210 0 OFFCURVE",
"252 -10 OFFCURVE",
"300 -10 CURVE SMOOTH"
);
},
{
closed = 1;
nodes = (
"594 238 OFFCURVE",
"482 75 OFFCURVE",
"322 75 CURVE SMOOTH",
"287 75 OFFCURVE",
"257 82 OFFCURVE",
"233 98 CURVE",
"575 554 LINE",
"587 530 OFFCURVE",
"594 500 OFFCURVE",
"594 462 CURVE SMOOTH"
);
},
{
closed = 1;
nodes = (
"169 448 OFFCURVE",
"273 625 OFFCURVE",
"434 625 CURVE SMOOTH",
"470 625 OFFCURVE",
"503 619 OFFCURVE",
"528 604 CURVE",
"188 149 LINE",
"176 174 OFFCURVE",
"169 206 OFFCURVE",
"169 244 CURVE SMOOTH"
);
}
);
width = 735;
}
);
leftKerningGroup = O;
rightKerningGroup = O;
unicode = 00D8;
},
{
glyphname = OE;
lastChange = "2014-11-10 22:19:38 +0100";
layers = (
{
layerId = "89F00A14-383C-41A8-AF30-A12CE933D7AF";
name = "Regular Extended Italic";
paths = (
{
closed = 1;
nodes = (
"812 0 LINE",
"843 182 LINE",
"777 182 LINE",
"740 80 LINE",
"513 80 LINE",
"552 325 LINE",
"780 325 LINE",
"792 405 LINE",
"564 405 LINE",
"599 620 LINE",
"820 620 LINE",
"830 530 LINE",
"886 530 LINE",
"913 700 LINE",
"580 700 LINE SMOOTH",
"545 700 OFFCURVE",
"500 710 OFFCURVE",
"447 710 CURVE SMOOTH",
"229 710 OFFCURVE",
"60 526 OFFCURVE",
"60 244 CURVE SMOOTH",
"60 93 OFFCURVE",
"152 -10 OFFCURVE",
"296 -10 CURVE SMOOTH",
"347 -10 OFFCURVE",
"418 0 OFFCURVE",
"456 0 CURVE SMOOTH"
);
},
{
closed = 1;
nodes = (
"413 80 LINE",
"413 80 OFFCURVE",
"357 75 OFFCURVE",
"318 75 CURVE SMOOTH",
"224 75 OFFCURVE",
"165 132 OFFCURVE",
"165 244 CURVE SMOOTH",
"165 448 OFFCURVE",
"269 625 OFFCURVE",
"430 625 CURVE SMOOTH",
"470 625 OFFCURVE",
"499 620 OFFCURVE",
"499 620 CURVE"
);
}
);
width = 891;
}
);
leftKerningGroup = O;
rightKerningGroup = E;
unicode = 0152;
},
{
glyphname = P;
lastChange = "2014-11-10 22:19:38 +0100";
layers = (
{
layerId = "89F00A14-383C-41A8-AF30-A12CE933D7AF";
name = "Regular Extended Italic";
paths = (
{
closed = 1;
nodes = (
"109 695 LINE",
"100 640 LINE",
"181 620 LINE",
"95 80 LINE",
"8 60 LINE",
"-2 0 LINE",
"271 0 LINE",
"281 60 LINE",
"195 79 LINE",
"224 260 LINE",
"290 260 LINE SMOOTH",
"427 260 OFFCURVE",
"595 320 OFFCURVE",
"595 540 CURVE SMOOTH",
"595 665 OFFCURVE",
"489 700 OFFCURVE",
"399 700 CURVE SMOOTH",
"294 700 LINE"
);
},
{
closed = 1;
nodes = (
"281 620 LINE",
"381 620 LINE SMOOTH",
"420 620 OFFCURVE",
"490 603 OFFCURVE",
"490 519 CURVE SMOOTH",
"490 428 OFFCURVE",
"447 340 OFFCURVE",
"303 340 CURVE SMOOTH",
"236 340 LINE"
);
}
);
width = 571;
}
);
leftKerningGroup = H;
rightKerningGroup = P;
unicode = 0050;
},
{
glyphname = Thorn;
lastChange = "2014-11-10 22:19:38 +0100";
layers = (
{
layerId = "89F00A14-383C-41A8-AF30-A12CE933D7AF";
name = "Regular Extended Italic";
paths = (
{
closed = 1;
nodes = (
"284 620 LINE",
"371 640 LINE",
"381 700 LINE",
"109 695 LINE",
"101 640 LINE",
"182 620 LINE",
"96 80 LINE",
"8 60 LINE",
"-1 0 LINE",
"269 0 LINE",
"279 60 LINE",
"197 80 LINE",
"209 155 LINE",
"279 155 LINE SMOOTH",
"454 155 OFFCURVE",
"574 254 OFFCURVE",
"574 415 CURVE SMOOTH",
"574 510 OFFCURVE",
"504 565 OFFCURVE",
"379 565 CURVE SMOOTH",
"275 565 LINE"
);
},
{
closed = 1;
nodes = (
"361 485 LINE",
"444 485 OFFCURVE",
"474 447 OFFCURVE",
"474 391 CURVE SMOOTH",
"474 291 OFFCURVE",
"406 235 OFFCURVE",
"294 235 CURVE SMOOTH",
"222 235 LINE",
"262 485 LINE"
);
}
);
width = 584;
}
);
leftKerningGroup = P;
unicode = 00DE;
},
{
glyphname = Q;
lastChange = "2014-11-10 22:19:38 +0100";
layers = (
{
layerId = "89F00A14-383C-41A8-AF30-A12CE933D7AF";
name = "Regular Extended Italic";
paths = (
{
closed = 1;
nodes = (
"507 -62 LINE",
"533 -82 OFFCURVE",
"568 -100 OFFCURVE",
"601 -100 CURVE SMOOTH",
"635 -100 OFFCURVE",
"700 -65 OFFCURVE",
"700 -65 CURVE",
"729 -125 LINE",
"729 -125 OFFCURVE",
"622 -182 OFFCURVE",
"568 -182 CURVE SMOOTH",
"529 -182 OFFCURVE",
"483 -153 OFFCURVE",
"448 -129 CURVE SMOOTH",
"272 -9 LINE",
"139 1 OFFCURVE",
"58 92 OFFCURVE",
"58 234 CURVE SMOOTH",
"58 516 OFFCURVE",
"227 710 OFFCURVE",
"450 710 CURVE SMOOTH",
"612 710 OFFCURVE",
"703 612 OFFCURVE",
"703 475 CURVE SMOOTH",
"703 228 OFFCURVE",
"585 60 OFFCURVE",
"417 7 CURVE"
);
},
{
closed = 1;
nodes = (
"593 581 OFFCURVE",
"528 625 OFFCURVE",
"433 625 CURVE SMOOTH",
"272 625 OFFCURVE",
"168 448 OFFCURVE",
"168 244 CURVE SMOOTH",
"168 132 OFFCURVE",
"227 75 OFFCURVE",
"321 75 CURVE SMOOTH",
"481 75 OFFCURVE",
"593 238 OFFCURVE",
"593 462 CURVE SMOOTH"
);
}
);
width = 741;
}
);
leftKerningGroup = O;
rightKerningGroup = O;
unicode = 0051;
},
{
glyphname = R;
lastChange = "2014-11-10 22:19:38 +0100";
layers = (
{
layerId = "89F00A14-383C-41A8-AF30-A12CE933D7AF";
name = "Regular Extended Italic";
paths = (
{
closed = 1;
nodes = (
"444 0 LINE",
"588 0 LINE",
"598 60 LINE",
"526 80 LINE",
"482 210 LINE SMOOTH",
"465 261 OFFCURVE",
"441 307 OFFCURVE",
"423 322 CURVE",
"522 353 OFFCURVE",
"598 428 OFFCURVE",
"598 548 CURVE SMOOTH",
"598 653 OFFCURVE",
"503 700 OFFCURVE",
"403 700 CURVE SMOOTH",
"295 700 LINE",
"109 695 LINE",
"101 640 LINE",
"182 620 LINE",
"96 80 LINE",
"8 60 LINE",
"-2 0 LINE",
"273 0 LINE",
"283 60 LINE",
"197 80 LINE",
"232 305 LINE",
"261 305 LINE SMOOTH",
"328 305 OFFCURVE",
"358 285 OFFCURVE",
"388 185 CURVE SMOOTH"
);
},
{
closed = 1;
nodes = (
"385 620 LINE",
"450 620 OFFCURVE",
"493 593 OFFCURVE",
"493 530 CURVE SMOOTH",
"493 432 OFFCURVE",
"418 380 OFFCURVE",
"318 380 CURVE SMOOTH",
"244 380 LINE",
"282 620 LINE"
);
}
);
width = 630;
}
);
leftKerningGroup = R;
rightKerningGroup = R;
unicode = 0052;
},
{
glyphname = S;
lastChange = "2014-11-10 22:19:38 +0100";
layers = (
{
layerId = "89F00A14-383C-41A8-AF30-A12CE933D7AF";
name = "Regular Extended Italic";
paths = (
{
closed = 1;
nodes = (
"130 96 LINE",
"130 96 OFFCURVE",
"176 75 OFFCURVE",
"235 75 CURVE SMOOTH",
"307 75 OFFCURVE",
"393 117 OFFCURVE",
"393 196 CURVE SMOOTH",
"393 329 OFFCURVE",
"111 284 OFFCURVE",
"111 485 CURVE SMOOTH",
"111 642 OFFCURVE",
"243 710 OFFCURVE",
"371 710 CURVE SMOOTH",
"457 710 OFFCURVE",
"555 670 OFFCURVE",
"555 670 CURVE",
"523 500 LINE",
"467 500 LINE",
"453 607 LINE",
"453 607 OFFCURVE",
"402 625 OFFCURVE",
"355 625 CURVE SMOOTH",
"270 625 OFFCURVE",
"218 577 OFFCURVE",
"218 520 CURVE SMOOTH",
"218 389 OFFCURVE",
"500 427 OFFCURVE",
"500 239 CURVE SMOOTH",
"500 73 OFFCURVE",
"360 -10 OFFCURVE",
"220 -10 CURVE SMOOTH",
"121 -10 OFFCURVE",
"33 30 OFFCURVE",
"33 30 CURVE",
"61 205 LINE",
"127 205 LINE"
);
}
);
width = 578;
}
);
leftKerningGroup = S;
rightKerningGroup = S;
unicode = 0053;
},
{
glyphname = T;
lastChange = "2014-11-10 22:19:38 +0100";
layers = (
{
layerId = "89F00A14-383C-41A8-AF30-A12CE933D7AF";
name = "Regular Extended Italic";
paths = (
{
closed = 1;
nodes = (
"75 700 LINE",
"45 520 LINE",
"110 520 LINE",
"151 620 LINE",
"281 620 LINE",
"195 80 LINE",
"92 60 LINE",
"82 0 LINE",
"381 0 LINE",
"391 60 LINE",
"295 80 LINE",
"381 620 LINE",
"510 620 LINE",
"520 520 LINE",
"584 520 LINE",
"613 700 LINE"
);
}
);
width = 549;
}
);
leftKerningGroup = T;
rightKerningGroup = T;
unicode = 0054;
},
{
glyphname = Tbar;
lastChange = "2014-11-10 22:19:38 +0100";
layers = (
{
components = (
{
name = T;
transform = "{1, 0, 0, 1, 0, 0}";
}
);
layerId = "89F00A14-383C-41A8-AF30-A12CE933D7AF";
name = "Regular Extended Italic";
paths = (
{
closed = 1;
nodes = (
"92 316 LINE",
"476 316 LINE",
"490 395 LINE",
"106 395 LINE"
);
}
);
width = 549;
}
);
leftKerningGroup = T;
rightKerningGroup = T;
unicode = 0166;
},
{
glyphname = U;
lastChange = "2014-11-10 22:19:38 +0100";
layers = (
{
layerId = "89F00A14-383C-41A8-AF30-A12CE933D7AF";
name = "Regular Extended Italic";
paths = (
{
closed = 1;
nodes = (
"705 620 LINE",
"789 640 LINE",
"799 700 LINE",
"523 695 LINE",
"514 640 LINE",
"604 620 LINE",
"550 285 LINE SMOOTH",
"526 135 OFFCURVE",
"475 75 OFFCURVE",
"355 75 CURVE SMOOTH",
"247 75 OFFCURVE",
"218 127 OFFCURVE",
"218 201 CURVE SMOOTH",
"218 222 OFFCURVE",
"220 246 OFFCURVE",
"224 270 CURVE SMOOTH",
"280 620 LINE",
"367 640 LINE",
"377 700 LINE",
"103 695 LINE",
"94 640 LINE",
"179 620 LINE",
"123 270 LINE SMOOTH",
"119 242 OFFCURVE",
"116 215 OFFCURVE",
"116 190 CURVE SMOOTH",
"116 72 OFFCURVE",
"170 -10 OFFCURVE",
"336 -10 CURVE SMOOTH",
"542 -10 OFFCURVE",
"624 110 OFFCURVE",
"653 295 CURVE SMOOTH"
);
}
);
width = 765;
}
);
leftKerningGroup = U;
rightKerningGroup = U;
unicode = 0055;
},
{
glyphname = Uogonek;
lastChange = "2014-11-10 22:19:38 +0100";
layers = (
{
layerId = "89F00A14-383C-41A8-AF30-A12CE933D7AF";
name = "Regular Extended Italic";
paths = (
{
closed = 1;
nodes = (
"523 695 LINE",
"514 640 LINE",
"604 620 LINE",
"550 285 LINE SMOOTH",
"526 135 OFFCURVE",
"475 75 OFFCURVE",
"355 75 CURVE SMOOTH",
"247 75 OFFCURVE",
"218 127 OFFCURVE",
"218 201 CURVE SMOOTH",
"218 222 OFFCURVE",
"220 246 OFFCURVE",
"224 270 CURVE SMOOTH",
"280 620 LINE",
"367 640 LINE",
"377 700 LINE",
"103 695 LINE",
"94 640 LINE",
"179 620 LINE",
"123 270 LINE SMOOTH",
"119 242 OFFCURVE",
"116 215 OFFCURVE",
"116 190 CURVE SMOOTH",
"116 72.4144 OFFCURVE",
"169.622 -9 OFFCURVE",
"334.255 -10 CURVE",
"300.507 -30 OFFCURVE",
"233 -77 OFFCURVE",
"233 -145 CURVE SMOOTH",
"233 -193 OFFCURVE",
"270 -220 OFFCURVE",
"318 -220 CURVE SMOOTH",
"357 -220 OFFCURVE",
"399 -200 OFFCURVE",
"399 -200 CURVE",
"397 -153 LINE",
"397 -153 OFFCURVE",
"371 -160 OFFCURVE",
"351 -160 CURVE SMOOTH",
"329 -160 OFFCURVE",
"313 -147 OFFCURVE",
"313 -124 CURVE SMOOTH",
"313 -67 OFFCURVE",
"399 -20 OFFCURVE",
"466 10 CURVE SMOOTH",
"534 40 OFFCURVE",
"622 101 OFFCURVE",
"653 295 CURVE SMOOTH",
"705 620 LINE",
"789 640 LINE",
"799 700 LINE"
);
}
);
width = 765;
}
);
leftKerningGroup = U;
rightKerningGroup = U;
unicode = 0172;
},
{
glyphname = V;
lastChange = "2014-11-10 22:19:38 +0100";
layers = (
{
layerId = "89F00A14-383C-41A8-AF30-A12CE933D7AF";
name = "Regular Extended Italic";
paths = (
{
closed = 1;
nodes = (
"250 0 LINE",
"345 0 LINE",
"649 620 LINE",
"731 640 LINE",
"741 700 LINE",
"473 695 LINE",
"463 640 LINE",
"543 620 LINE",
"326 145 LINE",
"230 700 LINE",
"53 695 LINE",
"44 640 LINE",
"129 620 LINE"
);
}
);
width = 672;
}
);
leftKerningGroup = V;
rightKerningGroup = V;
unicode = 0056;
},
{
glyphname = W;
lastChange = "2014-11-10 22:19:38 +0100";
layers = (
{
layerId = "89F00A14-383C-41A8-AF30-A12CE933D7AF";
name = "Regular Extended Italic";
paths = (
{
closed = 1;
nodes = (
"238 0 LINE",
"303 0 LINE",
"485 383 LINE",
"527 485 LINE",
"614 0 LINE",
"677 0 LINE",
"964 621 LINE",
"1041 640 LINE",
"1051 700 LINE",
"783 695 LINE",
"773 640 LINE",
"859 620 LINE",
"671 178 LINE",
"591 700 LINE",
"528 695 LINE",
"306 185 LINE",
"231 700 LINE",
"230 699 LINE",
"230 700 LINE",
"53 695 LINE",
"44 640 LINE",
"128 620 LINE"
);
}
);
width = 967;
}
);
leftKerningGroup = V;
rightKerningGroup = V;
unicode = 0057;
},
{
glyphname = X;
lastChange = "2014-11-10 22:19:38 +0100";
layers = (
{
layerId = "89F00A14-383C-41A8-AF30-A12CE933D7AF";
name = "Regular Extended Italic";
paths = (
{
closed = 1;
nodes = (
"598 0 LINE",
"331 0 LINE",
"341 60 LINE",
"405 73 LINE",
"311 275 LINE",
"157 78 LINE",
"220 60 LINE",
"210 0 LINE",
"-55 0 LINE",
"-45 60 LINE",
"48 79 LINE",
"261 351 LINE",
"128 621 LINE",
"44 640 LINE",
"54 695 LINE",
"321 700 LINE",
"311 640 LINE",
"248 624 LINE",
"335 437 LINE",
"484 626 LINE",
"431 640 LINE",
"441 695 LINE",
"706 700 LINE",
"696 640 LINE",
"589 618 LINE",
"383 362 LINE",
"521 80 LINE",
"608 60 LINE"
);
}
);
width = 626;
}
);
leftKerningGroup = X;
rightKerningGroup = X;
unicode = 0058;
},
{
glyphname = Y;
lastChange = "2014-11-10 22:19:38 +0100";
layers = (
{
guideLines = (
{
position = "{608, 640}";
}
);
layerId = "89F00A14-383C-41A8-AF30-A12CE933D7AF";
name = "Regular Extended Italic";
paths = (
{
closed = 1;
nodes = (
"209 80 LINE",
"119 60 LINE",
"109 0 LINE",
"382 0 LINE",
"392 60 LINE",
"309 80 LINE",
"333 231 LINE",
"580 620 LINE",
"660 640 LINE",
"670 700 LINE",
"401 695 LINE",
"391 640 LINE",
"481 621 LINE",
"313 334 LINE",
"213 700 LINE",
"58 695 LINE",
"49 640 LINE",
"133 620 LINE",
"237 262 LINE"
);
}
);
width = 606;
}
);
leftKerningGroup = Y;
rightKerningGroup = Y;
unicode = 0059;
},
{
glyphname = Z;
lastChange = "2014-11-10 22:19:38 +0100";
layers = (
{
layerId = "89F00A14-383C-41A8-AF30-A12CE933D7AF";
name = "Regular Extended Italic";
paths = (
{
closed = 1;
nodes = (
"114 700 LINE",
"90 530 LINE",
"146 530 LINE",
"186 619 LINE",
"450 619 LINE",
"34 70 LINE",
"29 0 LINE",
"500 0 LINE",
"529 182 LINE",
"463 182 LINE",
"427 80 LINE",
"159 80 LINE",
"578 634 LINE",
"583 700 LINE"
);
}
);
width = 587;
}
);
leftKerningGroup = Z;
rightKerningGroup = Z;
unicode = 005A;
},
{
glyphname = a;
lastChange = "2014-11-10 22:19:38 +0100";
layers = (
{
layerId = "89F00A14-383C-41A8-AF30-A12CE933D7AF";
name = "Regular Extended Italic";
paths = (
{
closed = 1;
nodes = (
"454 80 LINE",
"526 530 LINE",
"471 530 LINE",
"441 510 LINE",
"441 510 OFFCURVE",
"394 540 OFFCURVE",
"329 540 CURVE SMOOTH",
"179 540 OFFCURVE",
"31 410 OFFCURVE",
"31 165 CURVE SMOOTH",
"31 65 OFFCURVE",
"87 -10 OFFCURVE",
"162 -10 CURVE SMOOTH",
"293 -10 OFFCURVE",
"380 172 OFFCURVE",
"386 184 CURVE",
"346 0 LINE",
"532 10 LINE",
"541 65 LINE"
);
},
{
closed = 1;
nodes = (
"399 345 LINE",
"399 345 OFFCURVE",
"312 75 OFFCURVE",
"192 75 CURVE SMOOTH",
"157 75 OFFCURVE",
"131 110 OFFCURVE",
"131 180 CURVE SMOOTH",
"131 380 OFFCURVE",
"234 465 OFFCURVE",
"329 465 CURVE SMOOTH",
"381 465 OFFCURVE",
"419 450 OFFCURVE",
"419 450 CURVE"
);
}
);
width = 593;
}
);
leftKerningGroup = a;
rightKerningGroup = a;
unicode = 0061;
},
{
glyphname = aogonek;
lastChange = "2014-11-10 22:19:38 +0100";
layers = (
{
layerId = "89F00A14-383C-41A8-AF30-A12CE933D7AF";
name = "Regular Extended Italic";
paths = (
{
closed = 1;
nodes = (
"431 6 LINE",
"387 -18 OFFCURVE",
"317 -70 OFFCURVE",
"317 -142 CURVE SMOOTH",
"317 -190 OFFCURVE",
"354 -220 OFFCURVE",
"401 -220 CURVE SMOOTH",
"440 -220 OFFCURVE",
"482 -200 OFFCURVE",
"482 -200 CURVE",
"482 -153 LINE",
"473 -156 OFFCURVE",
"455 -160 OFFCURVE",
"436 -160 CURVE SMOOTH",
"414 -160 OFFCURVE",
"397 -148 OFFCURVE",
"397 -124 CURVE SMOOTH",
"397 -46 OFFCURVE",
"502 -5 OFFCURVE",
"532 10 CURVE"
);
},
{
closed = 1;
nodes = (
"454 80 LINE",
"526 530 LINE",
"471 530 LINE",
"441 510 LINE",
"441 510 OFFCURVE",
"394 540 OFFCURVE",
"329 540 CURVE SMOOTH",
"179 540 OFFCURVE",
"31 410 OFFCURVE",
"31 165 CURVE SMOOTH",
"31 65 OFFCURVE",
"87 -10 OFFCURVE",
"162 -10 CURVE SMOOTH",
"293 -10 OFFCURVE",
"380 172 OFFCURVE",
"386 184 CURVE",
"346 0 LINE",
"532 10 LINE",
"541 65 LINE"
);
},
{
closed = 1;
nodes = (
"399 345 LINE",
"399 345 OFFCURVE",
"312 75 OFFCURVE",
"192 75 CURVE SMOOTH",
"157 75 OFFCURVE",
"131 110 OFFCURVE",
"131 180 CURVE SMOOTH",
"131 380 OFFCURVE",
"234 465 OFFCURVE",
"329 465 CURVE SMOOTH",
"381 465 OFFCURVE",
"419 450 OFFCURVE",
"419 450 CURVE"
);
}
);
width = 593;
}
);
leftKerningGroup = a;
rightKerningGroup = a;
unicode = 0105;
},
{
glyphname = ae;
lastChange = "2014-11-10 22:19:38 +0100";
layers = (
{
layerId = "89F00A14-383C-41A8-AF30-A12CE933D7AF";
name = "Regular Extended Italic";
paths = (
{
closed = 1;
nodes = (
"772 489 OFFCURVE",
"708 540 OFFCURVE",
"607 540 CURVE SMOOTH",
"541 540 OFFCURVE",
"482 511 OFFCURVE",
"437 462 CURVE",
"426 518 OFFCURVE",
"383 540 OFFCURVE",
"302 540 CURVE SMOOTH",
"213 540 OFFCURVE",
"109 500 OFFCURVE",
"109 500 CURVE",
"93 375 LINE",
"150 375 LINE",
"178 450 LINE",
"178 450 OFFCURVE",
"218 465 OFFCURVE",
"280 465 CURVE SMOOTH",
"331 465 OFFCURVE",
"359 441 OFFCURVE",
"359 395 CURVE SMOOTH",
"359 389 OFFCURVE",
"358 382 OFFCURVE",
"357 375 CURVE SMOOTH",
"344 292 LINE",
"268 292 LINE SMOOTH",
"121 292 OFFCURVE",
"23 235 OFFCURVE",
"23 110 CURVE SMOOTH",
"23 35 OFFCURVE",
"73 -10 OFFCURVE",
"148 -10 CURVE SMOOTH",
"217 -10 OFFCURVE",
"294 35 OFFCURVE",
"343 96 CURVE",
"364 30 OFFCURVE",
"418 -10 OFFCURVE",
"502 -10 CURVE SMOOTH",
"620 -10 OFFCURVE",
"722 64 OFFCURVE",
"722 64 CURVE",
"692 115 LINE",
"692 115 OFFCURVE",
"605 70 OFFCURVE",
"532 70 CURVE SMOOTH",
"457 70 OFFCURVE",
"422 104 OFFCURVE",
"422 178 CURVE SMOOTH",
"422 192 OFFCURVE",
"423 207 OFFCURVE",
"425 223 CURVE",
"632 223 OFFCURVE",
"772 290 OFFCURVE",
"772 410 CURVE SMOOTH"
);
},
{
closed = 1;
nodes = (
"460 392 OFFCURVE",
"529 465 OFFCURVE",
"602 465 CURVE SMOOTH",
"653 465 OFFCURVE",
"677 444 OFFCURVE",
"677 400 CURVE SMOOTH",
"677 329 OFFCURVE",
"576 293 OFFCURVE",
"434 293 CURVE"
);
},
{
closed = 1;
nodes = (
"334 227 LINE",
"324 156 OFFCURVE",
"258 70 OFFCURVE",
"183 70 CURVE SMOOTH",
"148 70 OFFCURVE",
"118 95 OFFCURVE",
"118 130 CURVE SMOOTH",
"118 195 OFFCURVE",
"167 227 OFFCURVE",
"267 227 CURVE SMOOTH"
);
}
);
width = 779;
}
);
leftKerningGroup = a;
rightKerningGroup = a;
unicode = 00E6;
},
{
glyphname = b;
lastChange = "2014-11-10 22:19:38 +0100";
layers = (
{
layerId = "89F00A14-383C-41A8-AF30-A12CE933D7AF";
name = "Regular Extended Italic";
paths = (
{
closed = 1;
nodes = (
"267 770 LINE",
"84 765 LINE",
"75 710 LINE",
"158 690 LINE",
"51 20 LINE",
"51 20 OFFCURVE",
"136 -10 OFFCURVE",
"232 -10 CURVE SMOOTH",
"392 -10 OFFCURVE",
"541 132 OFFCURVE",
"541 360 CURVE SMOOTH",
"541 455 OFFCURVE",
"497 540 OFFCURVE",
"407 540 CURVE SMOOTH",
"269 540 OFFCURVE",
"192 357 OFFCURVE",
"188 346 CURVE",
"228 530 LINE"
);
},
{
closed = 1;
nodes = (
"179 185 LINE",
"179 185 OFFCURVE",
"250 455 OFFCURVE",
"372 455 CURVE SMOOTH",
"422 455 OFFCURVE",
"441 401 OFFCURVE",
"441 345 CURVE SMOOTH",
"441 153 OFFCURVE",
"327 65 OFFCURVE",
"242 65 CURVE SMOOTH",
"197 65 OFFCURVE",
"158 80 OFFCURVE",
"158 80 CURVE"
);
}
);
width = 582;
}
);
leftKerningGroup = l;
rightKerningGroup = b;
unicode = 0062;
},
{
glyphname = c;
lastChange = "2014-11-10 22:19:38 +0100";
layers = (
{
layerId = "89F00A14-383C-41A8-AF30-A12CE933D7AF";
name = "Regular Extended Italic";
paths = (
{
closed = 1;
nodes = (
"378 450 LINE",
"378 450 OFFCURVE",
"354 460 OFFCURVE",
"313 460 CURVE SMOOTH",
"199 460 OFFCURVE",
"133 325 OFFCURVE",
"133 180 CURVE SMOOTH",
"133 105 OFFCURVE",
"168 70 OFFCURVE",
"228 70 CURVE SMOOTH",
"298 70 OFFCURVE",
"378 115 OFFCURVE",
"378 115 CURVE",
"408 65 LINE",
"408 65 OFFCURVE",
"308 -10 OFFCURVE",
"208 -10 CURVE SMOOTH",
"108 -10 OFFCURVE",
"33 55 OFFCURVE",
"33 175 CURVE SMOOTH",
"33 395 OFFCURVE",
"158 540 OFFCURVE",
"328 540 CURVE SMOOTH",
"408 540 OFFCURVE",
"468 500 OFFCURVE",
"468 500 CURVE",
"446 365 LINE",
"381 365 LINE"
);
}
);
width = 455;
}
);
leftKerningGroup = o;
rightKerningGroup = c;
unicode = 0063;
},
{
glyphname = d;
lastChange = "2014-11-10 22:19:38 +0100";
layers = (
{
layerId = "89F00A14-383C-41A8-AF30-A12CE933D7AF";
name = "Regular Extended Italic";
paths = (
{
closed = 1;
nodes = (
"453 80 LINE",
"565 770 LINE",
"380 765 LINE",
"371 710 LINE",
"456 690 LINE",
"428 518 LINE",
"411 527 OFFCURVE",
"378 540 OFFCURVE",
"332 540 CURVE SMOOTH",
"181 540 OFFCURVE",
"36 407 OFFCURVE",
"36 165 CURVE SMOOTH",
"36 64 OFFCURVE",
"90 -10 OFFCURVE",
"168 -10 CURVE SMOOTH",
"301 -10 OFFCURVE",
"386 172 OFFCURVE",
"391 184 CURVE",
"347 0 LINE",
"530 10 LINE",
"539 65 LINE"
);
},
{
closed = 1;
nodes = (
"401 345 LINE",
"401 345 OFFCURVE",
"318 75 OFFCURVE",
"198 75 CURVE SMOOTH",
"160 75 OFFCURVE",
"136 113 OFFCURVE",
"136 185 CURVE SMOOTH",
"136 346 OFFCURVE",
"217 465 OFFCURVE",
"332 465 CURVE SMOOTH",
"382 465 OFFCURVE",
"417 450 OFFCURVE",
"417 450 CURVE"
);
}
);
width = 581;
}
);
leftKerningGroup = o;
unicode = 0064;
},
{
glyphname = eth;
lastChange = "2014-11-10 22:19:38 +0100";
layers = (
{
layerId = "89F00A14-383C-41A8-AF30-A12CE933D7AF";
name = "Regular Extended Italic";
paths = (
{
closed = 1;
nodes = (
"532 729 LINE",
"501 784 LINE",
"383 722 LINE",
"342 751 OFFCURVE",
"296 771 OFFCURVE",
"247 783 CURVE",
"208 720 LINE",
"241 708 OFFCURVE",
"276 694 OFFCURVE",
"302 678 CURVE",
"185 614 LINE",
"215 560 LINE",
"353 635 LINE",
"398 591 OFFCURVE",
"424 536 OFFCURVE",
"437 473 CURVE",
"437 473 OFFCURVE",
"393 515 OFFCURVE",
"318 515 CURVE SMOOTH",
"153 515 OFFCURVE",
"33 375 OFFCURVE",
"33 185 CURVE SMOOTH",
"33 65 OFFCURVE",
"103 -10 OFFCURVE",
"223 -10 CURVE SMOOTH",
"438 -10 OFFCURVE",
"533 164 OFFCURVE",
"533 384 CURVE SMOOTH",
"533 514 OFFCURVE",
"495 610 OFFCURVE",
"433 676 CURVE"
);
},
{
closed = 1;
nodes = (
"388 435 OFFCURVE",
"424 390 OFFCURVE",
"424 315 CURVE SMOOTH",
"424 190 OFFCURVE",
"373 70 OFFCURVE",
"248 70 CURVE SMOOTH",
"173 70 OFFCURVE",
"138 120 OFFCURVE",
"138 195 CURVE SMOOTH",
"138 325 OFFCURVE",
"193 435 OFFCURVE",
"308 435 CURVE SMOOTH"
);
}
);
width = 568;
}
);
leftKerningGroup = o;
unicode = 00F0;
},
{
glyphname = dcaron;
lastChange = "2014-11-10 22:19:38 +0100";
layers = (
{
components = (
{
name = d;
transform = "{1, 0, 0, 1, 0, 0}";
},
{
name = caron.x;
transform = "{1, 0, 0, 1, 555, 0}";
}
);
layerId = "89F00A14-383C-41A8-AF30-A12CE933D7AF";
name = "Regular Extended Italic";
paths = (
{
closed = 0;
nodes = (
"480 482 LINE"
);
}
);
width = 671;
}
);
leftKerningGroup = o;
unicode = 010F;
},
{
glyphname = dcroat;
lastChange = "2014-11-10 22:19:38 +0100";
layers = (
{
components = (
{
name = d;
transform = "{1, 0, 0, 1, 0, 0}";
}
);
layerId = "89F00A14-383C-41A8-AF30-A12CE933D7AF";
name = "Regular Extended Italic";
paths = (
{
closed = 1;
nodes = (
"359 650 LINE",
"348 575 LINE",
"633 575 LINE",
"644 650 LINE"
);
}
);
width = 594;
}
);
leftKerningGroup = o;
unicode = 0111;
},
{
glyphname = e;
lastChange = "2014-11-10 22:19:38 +0100";
layers = (
{
layerId = "89F00A14-383C-41A8-AF30-A12CE933D7AF";
name = "Regular Extended Italic";
paths = (
{
closed = 1;
nodes = (
"484 489 OFFCURVE",
"420 540 OFFCURVE",
"319 540 CURVE SMOOTH",
"160 540 OFFCURVE",
"30 377 OFFCURVE",
"30 170 CURVE SMOOTH",
"30 60 OFFCURVE",
"100 -10 OFFCURVE",
"210 -10 CURVE SMOOTH",
"328 -10 OFFCURVE",
"434 64 OFFCURVE",
"434 64 CURVE",
"404 115 LINE",
"404 115 OFFCURVE",
"313 70 OFFCURVE",
"240 70 CURVE SMOOTH",
"165 70 OFFCURVE",
"130 103 OFFCURVE",
"130 174 CURVE SMOOTH",
"130 187 OFFCURVE",
"131 202 OFFCURVE",
"133 217 CURVE",
"340 217 OFFCURVE",
"484 295 OFFCURVE",
"484 410 CURVE SMOOTH"
);
},
{
closed = 1;
nodes = (
"168 407 OFFCURVE",
"257 466 OFFCURVE",
"320 466 CURVE SMOOTH",
"359 466 OFFCURVE",
"389 444 OFFCURVE",
"389 400 CURVE SMOOTH",
"389 334 OFFCURVE",
"284 287 OFFCURVE",
"142 287 CURVE"
);
}
);
width = 496;
}
);
leftKerningGroup = o;
rightKerningGroup = e;
unicode = 0065;
},
{
glyphname = eogonek;
lastChange = "2014-11-10 22:19:38 +0100";
layers = (
{
components = (
{
name = e;
transform = "{1, 0, 0, 1, 0, 0}";
}
);
layerId = "89F00A14-383C-41A8-AF30-A12CE933D7AF";
name = "Regular Extended Italic";
paths = (
{
closed = 1;
nodes = (
"399 108 LINE",
"256 -7 LINE SMOOTH",
"210 -44 OFFCURVE",
"169 -89 OFFCURVE",
"169 -142 CURVE SMOOTH",
"169 -192 OFFCURVE",
"205 -220 OFFCURVE",
"253 -220 CURVE SMOOTH",
"293 -220 OFFCURVE",
"335 -200 OFFCURVE",
"335 -200 CURVE",
"333 -153 LINE",
"333 -153 OFFCURVE",
"308 -160 OFFCURVE",
"288 -160 CURVE SMOOTH",
"266 -160 OFFCURVE",
"250 -148 OFFCURVE",
"250 -125 CURVE SMOOTH",
"250 -45 OFFCURVE",
"429 62 OFFCURVE",
"429 62 CURVE"
);
}
);
width = 504;
}
);
leftKerningGroup = o;
rightKerningGroup = e;
unicode = 0119;
},
{
glyphname = f;
lastChange = "2014-11-10 22:19:38 +0100";
layers = (
{
layerId = "89F00A14-383C-41A8-AF30-A12CE933D7AF";
name = "Regular Extended Italic";
paths = (
{
closed = 1;
nodes = (
"419 700 LINE",
"419 620 LINE",
"484 620 LINE",
"510 760 LINE",
"510 760 OFFCURVE",
"440 780 OFFCURVE",
"370 780 CURVE SMOOTH",
"245 780 OFFCURVE",
"189 700 OFFCURVE",
"171 585 CURVE SMOOTH",
"161 525 LINE",
"65 515 LINE",
"55 450 LINE",
"149 450 LINE",
"72 -40 LINE SMOOTH",
"60 -115 OFFCURVE",
"30 -163 OFFCURVE",
"-30 -163 CURVE SMOOTH",
"-101 -163 LINE",
"-118 -227 LINE",
"-118 -227 OFFCURVE",
"-70 -240 OFFCURVE",
"-35 -240 CURVE SMOOTH",
"94 -240 OFFCURVE",
"150 -145 OFFCURVE",
"170 -20 CURVE SMOOTH",
"245 450 LINE",
"385 450 LINE",
"398 525 LINE",
"257 525 LINE",
"270 605 LINE SMOOTH",
"279 660 OFFCURVE",
"300 700 OFFCURVE",
"370 700 CURVE SMOOTH"
);
}
);
width = 352;
}
);
leftKerningGroup = f;
rightKerningGroup = f;
unicode = 0066;
},
{
glyphname = g;
lastChange = "2014-11-10 22:19:38 +0100";
layers = (
{
layerId = "89F00A14-383C-41A8-AF30-A12CE933D7AF";
name = "Regular Extended Italic";
paths = (
{
closed = 1;
nodes = (
"530 530 LINE",
"475 530 LINE",
"445 510 LINE",
"445 510 OFFCURVE",
"400 540 OFFCURVE",
"332 540 CURVE SMOOTH",
"183 540 OFFCURVE",
"36 410 OFFCURVE",
"36 165 CURVE SMOOTH",
"36 63 OFFCURVE",
"91 -10 OFFCURVE",
"165 -10 CURVE SMOOTH",
"298 -10 OFFCURVE",
"385 172 OFFCURVE",
"391 184 CURVE",
"346 -30 LINE SMOOTH",
"329 -111 OFFCURVE",
"287 -163 OFFCURVE",
"195 -163 CURVE SMOOTH",
"132 -163 OFFCURVE",
"45 -132 OFFCURVE",
"45 -132 CURVE",
"21 -204 LINE",
"21 -204 OFFCURVE",
"118 -245 OFFCURVE",
"205 -245 CURVE SMOOTH",
"335 -245 OFFCURVE",
"418 -166 OFFCURVE",
"441 -24 CURVE SMOOTH"
);
},
{
closed = 1;
nodes = (
"403 345 LINE",
"403 345 OFFCURVE",
"318 75 OFFCURVE",
"197 75 CURVE SMOOTH",
"162 75 OFFCURVE",
"136 109 OFFCURVE",
"136 182 CURVE SMOOTH",
"136 379 OFFCURVE",
"237 465 OFFCURVE",
"332 465 CURVE SMOOTH",
"386 465 OFFCURVE",
"422 450 OFFCURVE",
"422 450 CURVE"
);
}
);
width = 558;
}
);
leftKerningGroup = g;
rightKerningGroup = g;
unicode = 0067;
},
{
glyphname = h;
lastChange = "2014-11-10 22:19:38 +0100";
layers = (
{
layerId = "89F00A14-383C-41A8-AF30-A12CE933D7AF";
name = "Regular Extended Italic";
paths = (
{
closed = 1;
nodes = (
"277 770 LINE",
"94 765 LINE",
"85 710 LINE",
"169 690 LINE",
"59 0 LINE",
"154 0 LINE",
"187 180 LINE",
"187 180 OFFCURVE",
"266 455 OFFCURVE",
"396 455 CURVE SMOOTH",
"436 455 OFFCURVE",
"448 426 OFFCURVE",
"448 389 CURVE SMOOTH",
"448 375 OFFCURVE",
"446 360 OFFCURVE",
"444 345 CURVE SMOOTH",
"387 0 LINE",
"570 10 LINE",
"579 65 LINE",
"495 80 LINE",
"540 360 LINE SMOOTH",
"543 381 OFFCURVE",
"545 401 OFFCURVE",
"545 419 CURVE SMOOTH",
"545 491 OFFCURVE",
"516 540 OFFCURVE",
"436 540 CURVE SMOOTH",
"284 540 OFFCURVE",
"204 347 OFFCURVE",
"200 336 CURVE"
);
}
);
width = 626;
}
);
rightKerningGroup = n;
unicode = 0068;
},
{
glyphname = hbar;
lastChange = "2014-11-10 22:19:38 +0100";
layers = (
{
components = (
{
name = h;
transform = "{1, 0, 0, 1, 0, 0}";
}
);
layerId = "89F00A14-383C-41A8-AF30-A12CE933D7AF";
name = "Regular Extended Italic";
paths = (
{
closed = 1;
nodes = (
"73 650 LINE",
"62 575 LINE",
"347 575 LINE",
"358 650 LINE"
);
}
);
width = 626;
}
);
rightKerningGroup = n;
unicode = 0127;
},
{
glyphname = i;
lastChange = "2014-11-10 22:19:38 +0100";
layers = (
{
layerId = "89F00A14-383C-41A8-AF30-A12CE933D7AF";
name = "Regular Extended Italic";
paths = (
{
closed = 1;
nodes = (
"137 450 LINE",
"52 470 LINE",
"62 525 LINE",
"245 530 LINE",
"173 80 LINE",
"258 65 LINE",
"249 10 LINE",
"65 0 LINE"
);
},
{
closed = 1;
nodes = (
"173 625 OFFCURVE",
"150 643 OFFCURVE",
"150 675 CURVE SMOOTH",
"150 722 OFFCURVE",
"173 765 OFFCURVE",
"220 765 CURVE SMOOTH",
"252 765 OFFCURVE",
"275 747 OFFCURVE",
"275 715 CURVE SMOOTH",
"275 668 OFFCURVE",
"252 625 OFFCURVE",
"205 625 CURVE SMOOTH"
);
}
);
width = 310;
}
);
leftKerningGroup = i;
rightKerningGroup = i;
unicode = 0069;
},
{
glyphname = dotlessi;
lastChange = "2014-11-10 22:19:38 +0100";
layers = (
{
layerId = "89F00A14-383C-41A8-AF30-A12CE933D7AF";
name = "Regular Extended Italic";
paths = (
{
closed = 1;
nodes = (
"140 450 LINE",
"55 470 LINE",
"65 525 LINE",
"248 530 LINE",
"176 80 LINE",
"261 65 LINE",
"252 10 LINE",
"68 0 LINE"
);
}
);
width = 286;
}
);
leftKerningGroup = i;
rightKerningGroup = i;
unicode = 0131;
},
{
glyphname = icircumflex;
lastChange = "2014-11-10 22:19:38 +0100";
layers = (
{
components = (
{
name = dotlessi;
transform = "{1, 0, 0, 1, 0, 0}";
}
);
layerId = "89F00A14-383C-41A8-AF30-A12CE933D7AF";
name = "Regular Extended Italic";
paths = (
{
closed = 1;
nodes = (
"334 612 LINE",
"380 657 LINE",
"261 797 LINE",
"202 792 LINE",
"40 657 LINE",
"72 612 LINE",
"222 720 LINE"
);
}
);
width = 286;
}
);
leftKerningGroup = i;
rightKerningGroup = i;
unicode = 00EE;
},
{
glyphname = idieresis;
lastChange = "2014-11-10 22:19:38 +0100";
layers = (
{
components = (
{
name = dotlessi;
transform = "{1, 0, 0, 1, 0, 0}";
}
);
layerId = "89F00A14-383C-41A8-AF30-A12CE933D7AF";
name = "Regular Extended Italic";
paths = (
{
closed = 1;
nodes = (
"253 657 OFFCURVE",
"270 640 OFFCURVE",
"298 640 CURVE SMOOTH",
"335 640 OFFCURVE",
"363 674 OFFCURVE",
"363 714 CURVE SMOOTH",
"363 743 OFFCURVE",
"346 760 OFFCURVE",
"317 760 CURVE SMOOTH",
"278 760 OFFCURVE",
"253 725 OFFCURVE",
"253 685 CURVE SMOOTH"
);
},
{
closed = 1;
nodes = (
"62 657 OFFCURVE",
"79 640 OFFCURVE",
"107 640 CURVE SMOOTH",
"144 640 OFFCURVE",
"172 674 OFFCURVE",
"172 714 CURVE SMOOTH",
"172 743 OFFCURVE",
"155 760 OFFCURVE",
"126 760 CURVE SMOOTH",
"87 760 OFFCURVE",
"62 725 OFFCURVE",
"62 685 CURVE SMOOTH"
);
}
);
width = 286;
}
);
leftKerningGroup = i;
rightKerningGroup = i;
unicode = 00EF;
},
{
glyphname = ij;
lastChange = "2014-11-10 22:19:38 +0100";
layers = (
{
layerId = "89F00A14-383C-41A8-AF30-A12CE933D7AF";
name = "Regular Extended Italic";
paths = (
{
closed = 1;
nodes = (
"461 450 LINE",
"375 470 LINE",
"385 525 LINE",
"570 530 LINE",
"476 -45 LINE SMOOTH",
"456 -165 OFFCURVE",
"388 -240 OFFCURVE",
"271 -240 CURVE SMOOTH",
"231 -240 OFFCURVE",
"191 -225 OFFCURVE",
"191 -225 CURVE",
"211 -160 LINE",
"211 -160 OFFCURVE",
"236 -165 OFFCURVE",
"271 -165 CURVE SMOOTH",
"343 -165 OFFCURVE",
"368 -125 OFFCURVE",
"383 -35 CURVE SMOOTH",
"414 159 LINE",
"382 100 OFFCURVE",
"306 -10 OFFCURVE",
"192 -10 CURVE SMOOTH",
"111 -10 OFFCURVE",
"81 38 OFFCURVE",
"81 112 CURVE SMOOTH",
"81 130 OFFCURVE",
"83 149 OFFCURVE",
"86 170 CURVE SMOOTH",
"132 450 LINE",
"47 470 LINE",
"56 525 LINE",
"239 530 LINE",
"184 185 LINE SMOOTH",
"182 169 OFFCURVE",
"180 155 OFFCURVE",
"180 141 CURVE SMOOTH",
"180 103 OFFCURVE",
"192 75 OFFCURVE",
"232 75 CURVE SMOOTH",
"360 75 OFFCURVE",
"440 324 OFFCURVE",
"444 348 CURVE SMOOTH"
);
},
{
closed = 1;
nodes = (
"497 625 OFFCURVE",
"474 643 OFFCURVE",
"474 675 CURVE SMOOTH",
"474 722 OFFCURVE",
"497 765 OFFCURVE",
"544 765 CURVE SMOOTH",
"576 765 OFFCURVE",
"599 747 OFFCURVE",
"599 715 CURVE SMOOTH",
"599 668 OFFCURVE",
"576 625 OFFCURVE",
"529 625 CURVE SMOOTH"
);
},
{
closed = 1;
nodes = (
"167 625 OFFCURVE",
"144 643 OFFCURVE",
"144 675 CURVE SMOOTH",
"144 722 OFFCURVE",
"167 765 OFFCURVE",
"214 765 CURVE SMOOTH",
"246 765 OFFCURVE",
"269 747 OFFCURVE",
"269 715 CURVE SMOOTH",
"269 668 OFFCURVE",
"246 625 OFFCURVE",
"199 625 CURVE SMOOTH"
);
}
);
width = 604;
}
);
leftKerningGroup = i;
rightKerningGroup = j;
unicode = 0133;
},
{
glyphname = iogonek;
lastChange = "2014-11-10 22:19:38 +0100";
layers = (
{
components = (
{
name = i;
transform = "{1, 0, 0, 1, 1, 0}";
}
);
layerId = "89F00A14-383C-41A8-AF30-A12CE933D7AF";
name = "Regular Extended Italic";
paths = (
{
closed = 1;
nodes = (
"149 6 LINE",
"105 -18 OFFCURVE",
"35 -70 OFFCURVE",
"35 -142 CURVE SMOOTH",
"35 -190 OFFCURVE",
"72 -220 OFFCURVE",
"119 -220 CURVE SMOOTH",
"158 -220 OFFCURVE",
"200 -200 OFFCURVE",
"200 -200 CURVE",
"200 -153 LINE",
"191 -156 OFFCURVE",
"173 -160 OFFCURVE",
"154 -160 CURVE SMOOTH",
"132 -160 OFFCURVE",
"115 -148 OFFCURVE",
"115 -124 CURVE SMOOTH",
"115 -46 OFFCURVE",
"220 -5 OFFCURVE",
"250 10 CURVE"
);
}
);
width = 329;
}
);
leftKerningGroup = i;
rightKerningGroup = i;
unicode = 012F;
},
{
glyphname = itilde;
lastChange = "2014-11-10 22:19:38 +0100";
layers = (
{
components = (
{
name = dotlessi;
transform = "{1, 0, 0, 1, 0, 0}";
}
);
layerId = "89F00A14-383C-41A8-AF30-A12CE933D7AF";
name = "Regular Extended Italic";
paths = (
{
closed = 1;
nodes = (
"33 635 LINE",
"33 635 OFFCURVE",
"66 679 OFFCURVE",
"106 679 CURVE SMOOTH",
"159 679 OFFCURVE",
"192 635 OFFCURVE",
"255 635 CURVE SMOOTH",
"324 635 OFFCURVE",
"370 725 OFFCURVE",
"370 725 CURVE",
"341 760 LINE",
"341 760 OFFCURVE",
"312 718 OFFCURVE",
"273 718 CURVE SMOOTH",
"219 718 OFFCURVE",
"188 764 OFFCURVE",
"125 764 CURVE SMOOTH",
"56 764 OFFCURVE",
"5 670 OFFCURVE",
"5 670 CURVE"
);
}
);
width = 286;
}
);
leftKerningGroup = i;
rightKerningGroup = i;
unicode = 0129;
},
{
glyphname = j;
lastChange = "2014-11-10 22:19:38 +0100";
layers = (
{
layerId = "89F00A14-383C-41A8-AF30-A12CE933D7AF";
name = "Regular Extended Italic";
paths = (
{
closed = 1;
nodes = (
"132 450 LINE",
"46 470 LINE",
"56 525 LINE",
"241 530 LINE",
"147 -45 LINE SMOOTH",
"127 -165 OFFCURVE",
"59 -240 OFFCURVE",
"-58 -240 CURVE SMOOTH",
"-98 -240 OFFCURVE",
"-138 -225 OFFCURVE",
"-138 -225 CURVE",
"-118 -160 LINE",
"-118 -160 OFFCURVE",
"-93 -165 OFFCURVE",
"-58 -165 CURVE SMOOTH",
"14 -165 OFFCURVE",
"39 -125 OFFCURVE",
"54 -35 CURVE SMOOTH"
);
},
{
closed = 1;
nodes = (
"168 625 OFFCURVE",
"145 643 OFFCURVE",
"145 675 CURVE SMOOTH",
"145 722 OFFCURVE",
"168 765 OFFCURVE",
"215 765 CURVE SMOOTH",
"247 765 OFFCURVE",
"270 747 OFFCURVE",
"270 715 CURVE SMOOTH",
"270 668 OFFCURVE",
"247 625 OFFCURVE",
"200 625 CURVE SMOOTH"
);
}
);
width = 295;
}
);
leftKerningGroup = j;
rightKerningGroup = i;
unicode = 006A;
},
{
glyphname = dotlessj;
lastChange = "2014-11-10 22:19:38 +0100";
layers = (
{
layerId = "89F00A14-383C-41A8-AF30-A12CE933D7AF";
name = "Regular Extended Italic";
paths = (
{
closed = 1;
nodes = (
"126 450 LINE",
"40 470 LINE",
"50 525 LINE",
"236 530 LINE",
"140 -45 LINE SMOOTH",
"120 -165 OFFCURVE",
"54 -240 OFFCURVE",
"-63 -240 CURVE SMOOTH",
"-103 -240 OFFCURVE",
"-143 -225 OFFCURVE",
"-143 -225 CURVE",
"-123 -160 LINE",
"-123 -160 OFFCURVE",
"-98 -165 OFFCURVE",
"-63 -165 CURVE SMOOTH",
"5 -165 OFFCURVE",
"30 -125 OFFCURVE",
"45 -35 CURVE SMOOTH"
);
}
);
width = 264;
}
);
leftKerningGroup = j;
rightKerningGroup = i;
unicode = 0237;
},
{
glyphname = k;
lastChange = "2014-11-10 22:19:38 +0100";
layers = (
{
layerId = "89F00A14-383C-41A8-AF30-A12CE933D7AF";
name = "Regular Extended Italic";
paths = (
{
closed = 1;
nodes = (
"272 770 LINE",
"89 765 LINE",
"80 710 LINE",
"165 690 LINE",
"54 0 LINE",
"149 0 LINE",
"189 255 LINE",
"275 255 LINE",
"376 0 LINE",
"512 0 LINE",
"522 55 LINE",
"443 80 LINE",
"350 301 LINE",
"479 457 LINE",
"552 470 LINE",
"562 530 LINE",
"348 525 LINE",
"340 470 LINE",
"382 458 LINE",
"285 329 LINE",
"201 329 LINE"
);
}
);
width = 540;
}
);
leftKerningGroup = l;
rightKerningGroup = k;
unicode = 006B;
},
{
glyphname = kgreenlandic;
lastChange = "2014-11-10 22:19:38 +0100";
layers = (
{
layerId = "89F00A14-383C-41A8-AF30-A12CE933D7AF";
name = "Regular Extended Italic";
paths = (
{
closed = 1;
nodes = (
"244 530 LINE",
"61 525 LINE",
"52 470 LINE",
"137 450 LINE",
"65 0 LINE",
"160 0 LINE",
"200 255 LINE",
"285 255 LINE",
"385 0 LINE",
"523 0 LINE",
"533 55 LINE",
"452 80 LINE",
"360 300 LINE",
"488 457 LINE",
"563 470 LINE",
"573 530 LINE",
"358 525 LINE",
"350 470 LINE",
"393 459 LINE",
"295 329 LINE",
"211 329 LINE"
);
}
);
width = 551;
}
);
leftKerningGroup = l;
rightKerningGroup = k;
unicode = 0138;
},
{
glyphname = l;
lastChange = "2014-11-10 22:19:38 +0100";
layers = (
{
layerId = "89F00A14-383C-41A8-AF30-A12CE933D7AF";
name = "Regular Extended Italic";
paths = (
{
closed = 1;
nodes = (
"164 690 LINE",
"80 710 LINE",
"89 765 LINE",
"274 770 LINE",
"164 80 LINE",
"249 65 LINE",
"240 10 LINE",
"54 0 LINE"
);
}
);
width = 291;
}
);
leftKerningGroup = l;
rightKerningGroup = l;
unicode = 006C;
},
{
glyphname = lcaron;
lastChange = "2014-11-10 22:19:38 +0100";
layers = (
{
components = (
{
name = l;
transform = "{1, 0, 0, 1, 0, 0}";
},
{
name = caron.x;
transform = "{1, 0, 0, 1, 248, 0}";
}
);
layerId = "89F00A14-383C-41A8-AF30-A12CE933D7AF";
name = "Regular Extended Italic";
paths = (
{
closed = 0;
nodes = (
"196 596 LINE"
);
}
);
width = 364;
}
);
leftKerningGroup = l;
unicode = 013E;
},
{
glyphname = ldot;
lastChange = "2014-11-10 22:19:38 +0100";
layers = (
{
components = (
{
name = l;
transform = "{1, 0, 0, 1, 0, 0}";
},
{
name = periodcentered;
transform = "{1, 0, 0, 1, 198, 9}";
}
);
layerId = "89F00A14-383C-41A8-AF30-A12CE933D7AF";
name = "Regular Extended Italic";
paths = (
{
closed = 0;
nodes = (
"153 316 LINE"
);
}
);
width = 399;
}
);
leftKerningGroup = l;
unicode = 0140;
},
{
glyphname = lslash;
lastChange = "2014-11-10 22:19:38 +0100";
layers = (
{
components = (
{
name = l;
transform = "{1, 0, 0, 1, 0, 0}";
}
);
layerId = "89F00A14-383C-41A8-AF30-A12CE933D7AF";
name = "Regular Extended Italic";
paths = (
{
closed = 1;
nodes = (
"326 480 LINE",
"334 405 LINE",
"2 262 LINE",
"-7 336 LINE"
);
}
);
width = 361;
}
);
unicode = 0142;
},
{
glyphname = m;
lastChange = "2014-11-10 22:19:38 +0100";
layers = (
{
layerId = "89F00A14-383C-41A8-AF30-A12CE933D7AF";
name = "Regular Extended Italic";
paths = (
{
closed = 1;
nodes = (
"505 173 LINE",
"505 173 OFFCURVE",
"583 455 OFFCURVE",
"711 455 CURVE SMOOTH",
"751 455 OFFCURVE",
"763 426 OFFCURVE",
"763 388 CURVE SMOOTH",
"763 375 OFFCURVE",
"761 360 OFFCURVE",
"759 345 CURVE SMOOTH",
"702 0 LINE",
"886 10 LINE",
"895 65 LINE",
"810 80 LINE",
"856 360 LINE SMOOTH",
"859 380 OFFCURVE",
"861 399 OFFCURVE",
"861 417 CURVE SMOOTH",
"861 490 OFFCURVE",
"831 540 OFFCURVE",
"751 540 CURVE SMOOTH",
"625 540 OFFCURVE",
"559 417 OFFCURVE",
"533 356 CURVE",
"536 378 OFFCURVE",
"538 399 OFFCURVE",
"538 418 CURVE SMOOTH",
"538 493 OFFCURVE",
"510 540 OFFCURVE",
"431 540 CURVE SMOOTH",
"279 540 OFFCURVE",
"204 347 OFFCURVE",
"200 336 CURVE",
"243 530 LINE",
"61 525 LINE",
"52 470 LINE",
"136 450 LINE",
"64 0 LINE",
"159 0 LINE",
"188 180 LINE",
"188 180 OFFCURVE",
"265 455 OFFCURVE",
"391 455 CURVE SMOOTH",
"431 455 OFFCURVE",
"443 426 OFFCURVE",
"443 389 CURVE SMOOTH",
"443 375 OFFCURVE",
"441 360 OFFCURVE",
"439 345 CURVE SMOOTH",
"383 0 LINE",
"478 0 LINE"
);
}
);
width = 942;
}
);
leftKerningGroup = n;
rightKerningGroup = n;
unicode = 006D;
},
{
glyphname = n;
lastChange = "2014-11-10 22:19:38 +0100";
layers = (
{
layerId = "89F00A14-383C-41A8-AF30-A12CE933D7AF";
name = "Regular Extended Italic";
paths = (
{
closed = 1;
nodes = (
"394 0 LINE",
"578 10 LINE",
"587 65 LINE",
"502 80 LINE",
"548 360 LINE SMOOTH",
"551 380 OFFCURVE",
"553 399 OFFCURVE",
"553 417 CURVE SMOOTH",
"553 490 OFFCURVE",
"523 540 OFFCURVE",
"442 540 CURVE SMOOTH",
"290 540 OFFCURVE",
"204 347 OFFCURVE",
"199 336 CURVE",
"244 530 LINE",
"61 525 LINE",
"52 470 LINE",
"136 450 LINE",
"64 0 LINE",
"159 0 LINE",
"188 180 LINE",
"188 180 OFFCURVE",
"272 455 OFFCURVE",
"402 455 CURVE SMOOTH",
"442 455 OFFCURVE",
"454 426 OFFCURVE",
"454 389 CURVE SMOOTH",
"454 375 OFFCURVE",
"452 360 OFFCURVE",
"450 345 CURVE SMOOTH"
);
}
);
width = 634;
}
);
leftKerningGroup = n;
rightKerningGroup = n;
unicode = 006E;
},
{
glyphname = napostrophe;
lastChange = "2014-11-10 22:19:38 +0100";
layers = (
{
components = (
{
name = n;
transform = "{1, 0, 0, 1, 0, 0}";
}
);
layerId = "89F00A14-383C-41A8-AF30-A12CE933D7AF";
name = "Regular Extended Italic";
paths = (
{
closed = 1;
nodes = (
"79 768 OFFCURVE",
"79 736 CURVE SMOOTH",
"79 713 OFFCURVE",
"95 700 OFFCURVE",
"95 687 CURVE SMOOTH",
"95 667 OFFCURVE",
"32 619 OFFCURVE",
"31 619 CURVE",
"62 576 LINE",
"144 633 OFFCURVE",
"197 695 OFFCURVE",
"197 754 CURVE SMOOTH",
"197 789 OFFCURVE",
"177 805 OFFCURVE",
"147 805 CURVE SMOOTH",
"104 805 OFFCURVE"
);
}
);
width = 634;
}
);
leftKerningGroup = n;
rightKerningGroup = n;
unicode = 0149;
},
{
glyphname = eng;
lastChange = "2014-11-10 22:19:38 +0100";
layers = (
{
layerId = "89F00A14-383C-41A8-AF30-A12CE933D7AF";
name = "Regular Extended Italic";
paths = (
{
closed = 1;
nodes = (
"548 360 LINE SMOOTH",
"551 380 OFFCURVE",
"553 399 OFFCURVE",
"553 417 CURVE SMOOTH",
"553 490 OFFCURVE",
"523 540 OFFCURVE",
"442 540 CURVE SMOOTH",
"290 540 OFFCURVE",
"204 347 OFFCURVE",
"199 336 CURVE",
"244 530 LINE",
"61 525 LINE",
"52 470 LINE",
"136 450 LINE",
"64 0 LINE",
"159 0 LINE",
"188 180 LINE",
"188 180 OFFCURVE",
"272 455 OFFCURVE",
"402 455 CURVE SMOOTH",
"442 455 OFFCURVE",
"454 426 OFFCURVE",
"454 389 CURVE SMOOTH",
"454 375 OFFCURVE",
"452 360 OFFCURVE",
"450 345 CURVE SMOOTH",
"384 -65 LINE SMOOTH",
"374 -125 OFFCURVE",
"348 -165 OFFCURVE",
"280 -165 CURVE SMOOTH",
"231 -165 LINE",
"212 -235 LINE",
"212 -235 OFFCURVE",
"249 -240 OFFCURVE",
"273 -240 CURVE SMOOTH",
"389 -240 OFFCURVE",
"464 -165 OFFCURVE",
"483 -45 CURVE SMOOTH"
);
}
);
width = 628;
}
);
leftKerningGroup = n;
rightKerningGroup = j;
unicode = 014B;
},
{
glyphname = o;
lastChange = "2014-11-10 22:19:38 +0100";
layers = (
{
layerId = "89F00A14-383C-41A8-AF30-A12CE933D7AF";
name = "Regular Extended Italic";
paths = (
{
closed = 1;
nodes = (
"104 -10 OFFCURVE",
"34 68 OFFCURVE",
"34 188 CURVE SMOOTH",
"34 398 OFFCURVE",
"155 540 OFFCURVE",
"328 540 CURVE SMOOTH",
"451 540 OFFCURVE",
"516 457 OFFCURVE",
"516 343 CURVE SMOOTH",
"516 125 OFFCURVE",
"390 -10 OFFCURVE",
"218 -10 CURVE SMOOTH"
);
},
{
closed = 1;
nodes = (
"417 430 OFFCURVE",
"370 460 OFFCURVE",
"310 460 CURVE SMOOTH",
"193 460 OFFCURVE",
"134 330 OFFCURVE",
"134 185 CURVE SMOOTH",
"134 105 OFFCURVE",
"176 70 OFFCURVE",
"236 70 CURVE SMOOTH",
"352 70 OFFCURVE",
"417 185 OFFCURVE",
"417 345 CURVE SMOOTH"
);
}
);
width = 550;
}
);
leftKerningGroup = o;
rightKerningGroup = o;
unicode = 006F;
},
{
glyphname = oslash;
lastChange = "2014-11-10 22:19:38 +0100";
layers = (
{
layerId = "89F00A14-383C-41A8-AF30-A12CE933D7AF";
name = "Regular Extended Italic";
paths = (
{
closed = 1;
nodes = (
"405 -10 OFFCURVE",
"536 130 OFFCURVE",
"536 360 CURVE SMOOTH",
"536 408 OFFCURVE",
"520 450 OFFCURVE",
"492 482 CURVE",
"572 590 LINE",
"518 625 LINE",
"440 520 LINE",
"412 533 OFFCURVE",
"380 540 OFFCURVE",
"343 540 CURVE SMOOTH",
"171 540 OFFCURVE",
"45 395 OFFCURVE",
"45 180 CURVE SMOOTH",
"45 126 OFFCURVE",
"61 80 OFFCURVE",
"89 48 CURVE",
"2 -70 LINE",
"56 -105 LINE",
"141 9 LINE",
"166 -3 OFFCURVE",
"195 -10 OFFCURVE",
"228 -10 CURVE SMOOTH"
);
},
{
closed = 1;
nodes = (
"145 330 OFFCURVE",
"211 460 OFFCURVE",
"328 460 CURVE SMOOTH",
"349 460 OFFCURVE",
"369 456 OFFCURVE",
"386 447 CURVE",
"152 133 LINE",
"147 147 OFFCURVE",
"145 165 OFFCURVE",
"145 185 CURVE SMOOTH"
);
},
{
closed = 1;
nodes = (
"436 185 OFFCURVE",
"364 70 OFFCURVE",
"248 70 CURVE SMOOTH",
"228 70 OFFCURVE",
"210 74 OFFCURVE",
"195 82 CURVE",
"428 396 LINE",
"433 382 OFFCURVE",
"436 365 OFFCURVE",
"436 345 CURVE SMOOTH"
);
}
);
width = 580;
}
);
leftKerningGroup = o;
rightKerningGroup = o;
unicode = 00F8;
},
{
glyphname = oe;
lastChange = "2014-11-10 22:19:38 +0100";
layers = (
{
layerId = "89F00A14-383C-41A8-AF30-A12CE933D7AF";
name = "Regular Extended Italic";
paths = (
{
closed = 1;
nodes = (
"103 -10 OFFCURVE",
"33 65 OFFCURVE",
"33 180 CURVE SMOOTH",
"33 395 OFFCURVE",
"158 540 OFFCURVE",
"328 540 CURVE SMOOTH",
"417 540 OFFCURVE",
"470 498 OFFCURVE",
"495 442 CURVE",
"542 503 OFFCURVE",
"607 540 OFFCURVE",
"682 540 CURVE SMOOTH",
"783 540 OFFCURVE",
"847 489 OFFCURVE",
"847 410 CURVE SMOOTH",
"847 290 OFFCURVE",
"707 223 OFFCURVE",
"500 223 CURVE",
"498 207 OFFCURVE",
"497 192 OFFCURVE",
"497 178 CURVE SMOOTH",
"497 104 OFFCURVE",
"532 70 OFFCURVE",
"607 70 CURVE SMOOTH",
"680 70 OFFCURVE",
"767 115 OFFCURVE",
"767 115 CURVE",
"797 64 LINE",
"797 64 OFFCURVE",
"695 -10 OFFCURVE",
"577 -10 CURVE SMOOTH",
"497 -10 OFFCURVE",
"445 26 OFFCURVE",
"422 86 CURVE",
"370 25 OFFCURVE",
"297 -10 OFFCURVE",
"213 -10 CURVE SMOOTH"
);
},
{
closed = 1;
nodes = (
"418 430 OFFCURVE",
"373 460 OFFCURVE",
"313 460 CURVE SMOOTH",
"198 460 OFFCURVE",
"133 330 OFFCURVE",
"133 185 CURVE SMOOTH",
"133 105 OFFCURVE",
"173 70 OFFCURVE",
"233 70 CURVE SMOOTH",
"347 70 OFFCURVE",
"418 185 OFFCURVE",
"418 345 CURVE SMOOTH"
);
},
{
closed = 1;
nodes = (
"651 293 OFFCURVE",
"752 329 OFFCURVE",
"752 400 CURVE SMOOTH",
"752 444 OFFCURVE",
"728 465 OFFCURVE",
"677 465 CURVE SMOOTH",
"604 465 OFFCURVE",
"535 392 OFFCURVE",
"509 293 CURVE"
);
}
);
width = 854;
}
);
leftKerningGroup = o;
rightKerningGroup = e;
unicode = 0153;
},
{
glyphname = p;
lastChange = "2014-11-10 22:19:38 +0100";
layers = (
{
layerId = "89F00A14-383C-41A8-AF30-A12CE933D7AF";
name = "Regular Extended Italic";
paths = (
{
closed = 1;
nodes = (
"237 530 LINE",
"56 525 LINE",
"47 470 LINE",
"129 450 LINE",
"33 -150 LINE",
"-52 -175 LINE",
"-61 -230 LINE",
"194 -230 LINE",
"204 -175 LINE",
"128 -150 LINE",
"154 14 LINE",
"176 2 OFFCURVE",
"210 -10 OFFCURVE",
"252 -10 CURVE SMOOTH",
"410 -10 OFFCURVE",
"554 132 OFFCURVE",
"554 360 CURVE SMOOTH",
"554 455 OFFCURVE",
"510 540 OFFCURVE",
"422 540 CURVE SMOOTH",
"276 540 OFFCURVE",
"201 357 OFFCURVE",
"197 346 CURVE"
);
},
{
closed = 1;
nodes = (
"185 185 LINE",
"185 185 OFFCURVE",
"262 455 OFFCURVE",
"387 455 CURVE SMOOTH",
"435 455 OFFCURVE",
"454 401 OFFCURVE",
"454 345 CURVE SMOOTH",
"454 153 OFFCURVE",
"340 65 OFFCURVE",
"257 65 CURVE SMOOTH",
"207 65 OFFCURVE",
"165 80 OFFCURVE",
"165 80 CURVE"
);
}
);
width = 590;
}
);
leftKerningGroup = p;
rightKerningGroup = o;
unicode = 0070;
},
{
glyphname = thorn;
lastChange = "2014-11-10 22:19:38 +0100";
layers = (
{
layerId = "89F00A14-383C-41A8-AF30-A12CE933D7AF";
name = "Regular Extended Italic";
paths = (
{
closed = 1;
nodes = (
"272 770 LINE",
"89 765 LINE",
"80 710 LINE",
"163 690 LINE",
"28 -155 LINE",
"-54 -175 LINE",
"-63 -230 LINE",
"217 -230 LINE",
"226 -175 LINE",
"126 -155 LINE",
"150 4 LINE",
"165 0 OFFCURVE",
"203 -10 OFFCURVE",
"237 -10 CURVE SMOOTH",
"397 -10 OFFCURVE",
"547 132 OFFCURVE",
"547 360 CURVE SMOOTH",
"547 455 OFFCURVE",
"502 540 OFFCURVE",
"412 540 CURVE SMOOTH",
"274 540 OFFCURVE",
"197 357 OFFCURVE",
"193 346 CURVE",
"233 530 LINE"
);
},
{
closed = 1;
nodes = (
"184 185 LINE",
"184 185 OFFCURVE",
"255 455 OFFCURVE",
"377 455 CURVE SMOOTH",
"427 455 OFFCURVE",
"447 401 OFFCURVE",
"447 345 CURVE SMOOTH",
"447 153 OFFCURVE",
"332 65 OFFCURVE",
"247 65 CURVE SMOOTH",
"202 65 OFFCURVE",
"163 80 OFFCURVE",
"163 80 CURVE"
);
}
);
width = 578;
}
);
leftKerningGroup = l;
rightKerningGroup = o;
unicode = 00FE;
},
{
glyphname = q;
lastChange = "2014-11-10 22:19:38 +0100";
layers = (
{
layerId = "89F00A14-383C-41A8-AF30-A12CE933D7AF";
name = "Regular Extended Italic";
paths = (
{
closed = 1;
nodes = (
"479 530 LINE",
"448 510 LINE",
"448 510 OFFCURVE",
"404 540 OFFCURVE",
"334 540 CURVE SMOOTH",
"185 540 OFFCURVE",
"36 411 OFFCURVE",
"36 165 CURVE SMOOTH",
"36 64 OFFCURVE",
"93 -10 OFFCURVE",
"168 -10 CURVE SMOOTH",
"301 -10 OFFCURVE",
"394 185 OFFCURVE",
"394 185 CURVE",
"350 0 LINE",
"327 -150 LINE",
"239 -175 LINE",
"230 -230 LINE",
"489 -230 LINE",
"498 -175 LINE",
"422 -150 LINE",
"531 530 LINE"
);
},
{
closed = 1;
nodes = (
"406 345 LINE",
"406 345 OFFCURVE",
"318 75 OFFCURVE",
"198 75 CURVE SMOOTH",
"162 75 OFFCURVE",
"136 110 OFFCURVE",
"136 180 CURVE SMOOTH",
"136 379 OFFCURVE",
"239 465 OFFCURVE",
"334 465 CURVE SMOOTH",
"384 465 OFFCURVE",
"426 450 OFFCURVE",
"426 450 CURVE"
);
}
);
width = 558;
}
);
leftKerningGroup = o;
rightKerningGroup = q;
unicode = 0071;
},
{
glyphname = r;
lastChange = "2014-11-10 22:19:38 +0100";
layers = (
{
layerId = "89F00A14-383C-41A8-AF30-A12CE933D7AF";
name = "Regular Extended Italic";
paths = (
{
closed = 1;
nodes = (
"466 530 LINE",
"466 530 OFFCURVE",
"441 540 OFFCURVE",
"416 540 CURVE SMOOTH",
"276 540 OFFCURVE",
"211 369 OFFCURVE",
"206 356 CURVE",
"245 530 LINE",
"61 525 LINE",
"52 470 LINE",
"137 450 LINE",
"64 0 LINE",
"159 0 LINE",
"191 190 LINE",
"191 190 OFFCURVE",
"266 450 OFFCURVE",
"371 450 CURVE",
"371 380 LINE",
"436 380 LINE"
);
}
);
width = 426;
}
);
leftKerningGroup = n;
rightKerningGroup = r;
unicode = 0072;
},
{
glyphname = s;
lastChange = "2014-11-10 22:19:38 +0100";
layers = (
{
layerId = "89F00A14-383C-41A8-AF30-A12CE933D7AF";
name = "Regular Extended Italic";
paths = (
{
closed = 1;
nodes = (
"111 75 LINE",
"111 75 OFFCURVE",
"141 63 OFFCURVE",
"186 63 CURVE SMOOTH",
"251 63 OFFCURVE",
"296 90 OFFCURVE",
"296 145 CURVE SMOOTH",
"296 240 OFFCURVE",
"76 230 OFFCURVE",
"76 380 CURVE SMOOTH",
"76 490 OFFCURVE",
"168 540 OFFCURVE",
"278 540 CURVE SMOOTH",
"351 540 OFFCURVE",
"426 515 OFFCURVE",
"426 515 CURVE",
"402 380 LINE",
"337 380 LINE",
"331 458 LINE",
"331 458 OFFCURVE",
"309 467 OFFCURVE",
"266 467 CURVE SMOOTH",
"211 467 OFFCURVE",
"171 445 OFFCURVE",
"171 395 CURVE SMOOTH",
"171 295 OFFCURVE",
"396 300 OFFCURVE",
"396 160 CURVE SMOOTH",
"396 55 OFFCURVE",
"306 -10 OFFCURVE",
"171 -10 CURVE SMOOTH",
"91 -10 OFFCURVE",
"21 15 OFFCURVE",
"21 15 CURVE",
"45 160 LINE",
"110 160 LINE"
);
}
);
width = 460;
}
);
leftKerningGroup = s;
rightKerningGroup = s;
unicode = 0073;
},
{
glyphname = germandbls;
lastChange = "2014-11-10 22:19:38 +0100";
layers = (
{
layerId = "89F00A14-383C-41A8-AF30-A12CE933D7AF";
name = "Regular Extended Italic";
paths = (
{
closed = 1;
nodes = (
"69 -40 LINE",
"56 -120 OFFCURVE",
"19 -159 OFFCURVE",
"-49 -159 CURVE SMOOTH",
"-105 -159 LINE",
"-118 -230 LINE",
"-118 -230 OFFCURVE",
"-82 -240 OFFCURVE",
"-42 -240 CURVE SMOOTH",
"93 -240 OFFCURVE",
"147 -145 OFFCURVE",
"167 -20 CURVE SMOOTH",
"262 564 LINE SMOOTH",
"277 659 OFFCURVE",
"343 705 OFFCURVE",
"410 705 CURVE SMOOTH",
"465 705 OFFCURVE",
"514 688 OFFCURVE",
"514 630 CURVE SMOOTH",
"514 522 OFFCURVE",
"344 524 OFFCURVE",
"344 366 CURVE SMOOTH",
"344 236 OFFCURVE",
"533 246 OFFCURVE",
"533 155 CURVE SMOOTH",
"533 103 OFFCURVE",
"485 65 OFFCURVE",
"419 65 CURVE SMOOTH",
"372 65 OFFCURVE",
"354 75 OFFCURVE",
"354 75 CURVE",
"351 156 LINE",
"288 156 LINE",
"265 12 LINE",
"265 12 OFFCURVE",
"324 -10 OFFCURVE",
"408 -10 CURVE SMOOTH",
"520 -10 OFFCURVE",
"640 74 OFFCURVE",
"640 186 CURVE SMOOTH",
"640 322 OFFCURVE",
"449 307 OFFCURVE",
"449 399 CURVE SMOOTH",
"449 484 OFFCURVE",
"615 506 OFFCURVE",
"615 648 CURVE SMOOTH",
"615 744 OFFCURVE",
"527 780 OFFCURVE",
"417 780 CURVE SMOOTH",
"282 780 OFFCURVE",
"190 696 OFFCURVE",
"164 553 CURVE SMOOTH",
"159 525 LINE",
"53 515 LINE",
"43 450 LINE",
"147 450 LINE"
);
}
);
width = 674;
}
);
leftKerningGroup = f;
unicode = 00DF;
},
{
glyphname = longs;
lastChange = "2014-11-10 22:19:38 +0100";
layers = (
{
layerId = "89F00A14-383C-41A8-AF30-A12CE933D7AF";
name = "Regular Extended Italic";
paths = (
{
closed = 1;
nodes = (
"414 700 LINE",
"414 620 LINE",
"479 620 LINE",
"505 760 LINE",
"505 760 OFFCURVE",
"440 780 OFFCURVE",
"370 780 CURVE SMOOTH",
"245 780 OFFCURVE",
"189 700 OFFCURVE",
"171 585 CURVE SMOOTH",
"72 -40 LINE SMOOTH",
"60 -115 OFFCURVE",
"30 -163 OFFCURVE",
"-30 -163 CURVE SMOOTH",
"-101 -163 LINE",
"-118 -227 LINE",
"-118 -227 OFFCURVE",
"-70 -240 OFFCURVE",
"-35 -240 CURVE SMOOTH",
"94 -240 OFFCURVE",
"150 -145 OFFCURVE",
"170 -20 CURVE SMOOTH",
"270 605 LINE SMOOTH",
"279 660 OFFCURVE",
"300 700 OFFCURVE",
"370 700 CURVE SMOOTH"
);
}
);
width = 352;
}
);
leftKerningGroup = germandbls;
rightKerningGroup = f;
unicode = 017F;
},
{
glyphname = t;
lastChange = "2014-11-10 22:19:38 +0100";
layers = (
{
layerId = "89F00A14-383C-41A8-AF30-A12CE933D7AF";
name = "Regular Extended Italic";
paths = (
{
closed = 1;
nodes = (
"309 90 LINE",
"309 90 OFFCURVE",
"256 70 OFFCURVE",
"228 70 CURVE SMOOTH",
"200 70 OFFCURVE",
"189 84 OFFCURVE",
"189 120 CURVE SMOOTH",
"189 136 OFFCURVE",
"191 157 OFFCURVE",
"195 183 CURVE SMOOTH",
"238 450 LINE",
"376 450 LINE",
"388 525 LINE",
"250 525 LINE",
"274 671 LINE",
"175 651 LINE",
"155 525 LINE",
"55 515 LINE",
"44 450 LINE",
"143 450 LINE",
"99 173 LINE SMOOTH",
"95 150 OFFCURVE",
"93 128 OFFCURVE",
"93 109 CURVE SMOOTH",
"93 30 OFFCURVE",
"126 -10 OFFCURVE",
"194 -10 CURVE SMOOTH",
"250 -10 OFFCURVE",
"325 36 OFFCURVE",
"325 36 CURVE"
);
}
);
width = 366;
}
);
leftKerningGroup = t;
rightKerningGroup = t;
unicode = 0074;
},
{
glyphname = tbar;
lastChange = "2014-11-10 22:19:38 +0100";
layers = (
{
components = (
{
name = t;
transform = "{1, 0, 0, 1, 0, 0}";
}
);
layerId = "89F00A14-383C-41A8-AF30-A12CE933D7AF";
name = "Regular Extended Italic";
paths = (
{
closed = 1;
nodes = (
"19 265 LINE",
"351 265 LINE",
"362 340 LINE",
"30 340 LINE"
);
}
);
width = 369;
}
);
leftKerningGroup = t;
rightKerningGroup = t;
unicode = 0167;
},
{
glyphname = tcaron;
lastChange = "2014-11-10 22:19:38 +0100";
layers = (
{
components = (
{
name = t;
transform = "{1, 0, 0, 1, 0, 0}";
},
{
name = caron.x;
transform = "{1, 0, 0, 1, 270, 20}";
}
);
layerId = "89F00A14-383C-41A8-AF30-A12CE933D7AF";
name = "Regular Extended Italic";
paths = (
{
closed = 0;
nodes = (
"190 491 LINE"
);
}
);
width = 368;
}
);
leftKerningGroup = t;
unicode = 0165;
},
{
glyphname = tcedilla;
lastChange = "2014-11-10 22:19:38 +0100";
layers = (
{
components = (
{
name = t;
transform = "{1, 0, 0, 1, 0, 0}";
}
);
layerId = "89F00A14-383C-41A8-AF30-A12CE933D7AF";
name = "Regular Extended Italic";
paths = (
{
closed = 1;
nodes = (
"107 -171 OFFCURVE",
"76 -155 OFFCURVE",
"76 -155 CURVE",
"46 -196 LINE",
"46 -196 OFFCURVE",
"82 -219 OFFCURVE",
"150 -219 CURVE SMOOTH",
"210 -219 OFFCURVE",
"264 -175 OFFCURVE",
"264 -115 CURVE SMOOTH",
"264 -77 OFFCURVE",
"237 -51 OFFCURVE",
"192 -43 CURVE",
"201 13 LINE",
"142 13 LINE",
"127 -79 LINE",
"174 -79 OFFCURVE",
"200 -95 OFFCURVE",
"200 -122 CURVE SMOOTH",
"200 -152 OFFCURVE",
"172 -171 OFFCURVE",
"142 -171 CURVE SMOOTH"
);
}
);
width = 369;
}
);
leftKerningGroup = t;
rightKerningGroup = t;
unicode = 0163;
},
{
glyphname = u;
lastChange = "2014-11-10 22:19:38 +0100";
layers = (
{
layerId = "89F00A14-383C-41A8-AF30-A12CE933D7AF";
name = "Regular Extended Italic";
paths = (
{
closed = 1;
nodes = (
"391 0 LINE",
"575 10 LINE",
"584 65 LINE",
"498 80 LINE",
"570 530 LINE",
"475 530 LINE",
"445 350 LINE",
"445 350 OFFCURVE",
"365 75 OFFCURVE",
"232 75 CURVE SMOOTH",
"192 75 OFFCURVE",
"180 103 OFFCURVE",
"180 141 CURVE SMOOTH",
"180 168 OFFCURVE",
"187 216 OFFCURVE",
"239 530 CURVE",
"56 525 LINE",
"47 470 LINE",
"132 450 LINE",
"87 190 OFFCURVE",
"81 152 OFFCURVE",
"81 112 CURVE SMOOTH",
"81 38 OFFCURVE",
"111 -10 OFFCURVE",
"192 -10 CURVE SMOOTH",
"343 -10 OFFCURVE",
"427 182 OFFCURVE",
"432 194 CURVE"
);
}
);
width = 636;
}
);
leftKerningGroup = u;
rightKerningGroup = u;
unicode = 0075;
},
{
glyphname = uogonek;
lastChange = "2014-11-10 22:19:38 +0100";
layers = (
{
components = (
{
name = u;
transform = "{1, 0, 0, 1, 0, 0}";
}
);
layerId = "89F00A14-383C-41A8-AF30-A12CE933D7AF";
name = "Regular Extended Italic";
paths = (
{
closed = 1;
nodes = (
"474 6 LINE",
"430 -18 OFFCURVE",
"360 -70 OFFCURVE",
"360 -142 CURVE SMOOTH",
"360 -190 OFFCURVE",
"397 -220 OFFCURVE",
"444 -220 CURVE SMOOTH",
"483 -220 OFFCURVE",
"525 -200 OFFCURVE",
"525 -200 CURVE",
"525 -153 LINE",
"516 -156 OFFCURVE",
"498 -160 OFFCURVE",
"479 -160 CURVE SMOOTH",
"457 -160 OFFCURVE",
"440 -148 OFFCURVE",
"440 -124 CURVE SMOOTH",
"440 -46 OFFCURVE",
"545 -5 OFFCURVE",
"575 10 CURVE"
);
}
);
width = 632;
}
);
leftKerningGroup = u;
rightKerningGroup = u;
unicode = 0173;
},
{
glyphname = v;
lastChange = "2014-11-10 22:19:38 +0100";
layers = (
{
layerId = "89F00A14-383C-41A8-AF30-A12CE933D7AF";
name = "Regular Extended Italic";
paths = (
{
closed = 1;
nodes = (
"552 470 LINE",
"562 530 LINE",
"338 525 LINE",
"329 470 LINE",
"409 452 LINE",
"244 95 LINE",
"234 170 LINE",
"168 530 LINE",
"16 525 LINE",
"7 470 LINE",
"77 451 LINE",
"171 0 LINE",
"279 0 LINE",
"502 454 LINE"
);
}
);
width = 525;
}
);
leftKerningGroup = v;
rightKerningGroup = v;
unicode = 0076;
},
{
glyphname = w;
lastChange = "2014-11-10 22:19:38 +0100";
layers = (
{
layerId = "89F00A14-383C-41A8-AF30-A12CE933D7AF";
name = "Regular Extended Italic";
paths = (
{
closed = 1;
nodes = (
"803 470 LINE",
"813 530 LINE",
"584 525 LINE",
"575 470 LINE",
"660 451 LINE",
"513 95 LINE",
"462 530 LINE",
"391 525 LINE",
"228 95 LINE",
"178 530 LINE",
"21 525 LINE",
"12 470 LINE",
"82 455 LINE",
"154 0 LINE",
"267 0 LINE",
"379 290 LINE",
"392 340 LINE",
"438 0 LINE",
"553 0 LINE",
"754 458 LINE"
);
}
);
width = 776;
}
);
leftKerningGroup = v;
rightKerningGroup = v;
unicode = 0077;
},
{
glyphname = x;
lastChange = "2014-11-10 22:19:38 +0100";
layers = (
{
layerId = "89F00A14-383C-41A8-AF30-A12CE933D7AF";
name = "Regular Extended Italic";
paths = (
{
closed = 1;
nodes = (
"116 0 LINE",
"-25 0 LINE",
"-16 55 LINE",
"75 83 LINE",
"214 262 LINE",
"120 450 LINE",
"35 470 LINE",
"44 525 LINE",
"201 530 LINE",
"286 340 LINE",
"428 525 LINE",
"570 530 LINE",
"560 470 LINE",
"474 449 LINE",
"334 277 LINE",
"430 80 LINE",
"517 65 LINE",
"508 10 LINE",
"354 0 LINE",
"261 198 LINE"
);
}
);
width = 545;
}
);
leftKerningGroup = x;
rightKerningGroup = x;
unicode = 0078;
},
{
glyphname = y;
lastChange = "2014-11-10 22:19:38 +0100";
layers = (
{
layerId = "89F00A14-383C-41A8-AF30-A12CE933D7AF";
name = "Regular Extended Italic";
paths = (
{
closed = 1;
nodes = (
"561 470 LINE",
"572 530 LINE",
"352 525 LINE",
"342 470 LINE",
"417 452 LINE",
"263 95 LINE",
"255 163 LINE",
"177 530 LINE",
"26 525 LINE",
"14 470 LINE",
"83 451 LINE",
"205 -39 LINE",
"163 -131 OFFCURVE",
"135 -165 OFFCURVE",
"65 -165 CURVE SMOOTH",
"30 -165 OFFCURVE",
"-10 -160 OFFCURVE",
"-10 -160 CURVE",
"-31 -224 LINE",
"-31 -224 OFFCURVE",
"25 -240 OFFCURVE",
"82 -240 CURVE SMOOTH",
"188 -240 OFFCURVE",
"231 -167 OFFCURVE",
"320 33 CURVE SMOOTH",
"505 454 LINE"
);
}
);
width = 527;
}
);
leftKerningGroup = y;
rightKerningGroup = y;
unicode = 0079;
},
{
glyphname = z;
lastChange = "2014-11-10 22:19:38 +0100";
layers = (
{
layerId = "89F00A14-383C-41A8-AF30-A12CE933D7AF";
name = "Regular Extended Italic";
paths = (
{
closed = 1;
nodes = (
"82 530 LINE",
"59 380 LINE",
"124 380 LINE",
"156 455 LINE",
"330 455 LINE",
"10 70 LINE",
"5 0 LINE",
"390 0 LINE",
"411 160 LINE",
"351 160 LINE",
"319 78 LINE",
"131 78 LINE",
"450 465 LINE",
"455 530 LINE"
);
}
);
width = 462;
}
);
leftKerningGroup = z;
rightKerningGroup = z;
unicode = 007A;
},
{
glyphname = fi;
lastChange = "2014-11-10 22:19:38 +0100";
layers = (
{
layerId = "89F00A14-383C-41A8-AF30-A12CE933D7AF";
name = "Regular Extended Italic";
paths = (
{
closed = 1;
nodes = (
"68 -40 LINE",
"55 -115 OFFCURVE",
"26 -160 OFFCURVE",
"-34 -160 CURVE SMOOTH",
"-106 -160 LINE",
"-118 -230 LINE",
"-118 -230 OFFCURVE",
"-84 -240 OFFCURVE",
"-44 -240 CURVE SMOOTH",
"91 -240 OFFCURVE",
"146 -145 OFFCURVE",
"166 -20 CURVE SMOOTH",
"241 450 LINE",
"477 450 LINE",
"489 525 LINE",
"253 525 LINE",
"266 605 LINE SMOOTH",
"276 665 OFFCURVE",
"311 700 OFFCURVE",
"401 700 CURVE SMOOTH",
"446 700 OFFCURVE",
"484 698 OFFCURVE",
"515 696 CURVE",
"515 618 LINE",
"582 618 LINE",
"612 760 LINE",
"612 760 OFFCURVE",
"511 780 OFFCURVE",
"411 780 CURVE SMOOTH",
"236 780 OFFCURVE",
"186 705 OFFCURVE",
"167 585 CURVE SMOOTH",
"157 525 LINE",
"61 515 LINE",
"51 450 LINE",
"145 450 LINE"
);
},
{
closed = 1;
nodes = (
"405 0 LINE",
"590 0 LINE",
"598 55 LINE",
"513 80 LINE",
"585 530 LINE",
"489 525 LINE"
);
}
);
width = 657;
}
);
leftKerningGroup = f;
rightKerningGroup = i;
unicode = FB01;
},
{
glyphname = fl;
lastChange = "2014-11-10 22:19:38 +0100";
layers = (
{
layerId = "89F00A14-383C-41A8-AF30-A12CE933D7AF";
name = "Regular Extended Italic";
paths = (
{
closed = 1;
nodes = (
"409 0 LINE",
"595 0 LINE",
"605 55 LINE",
"520 81 LINE",
"629 760 LINE",
"629 760 OFFCURVE",
"506 780 OFFCURVE",
"404 780 CURVE SMOOTH",
"229 780 OFFCURVE",
"185 705 OFFCURVE",
"166 585 CURVE SMOOTH",
"156 525 LINE",
"61 515 LINE",
"51 450 LINE",
"145 450 LINE",
"68 -40 LINE SMOOTH",
"56 -115 OFFCURVE",
"26 -160 OFFCURVE",
"-34 -160 CURVE SMOOTH",
"-106 -160 LINE",
"-118 -230 LINE",
"-118 -230 OFFCURVE",
"-84 -240 OFFCURVE",
"-44 -240 CURVE SMOOTH",
"91 -240 OFFCURVE",
"146 -145 OFFCURVE",
"166 -20 CURVE SMOOTH",
"241 450 LINE",
"381 450 LINE",
"395 525 LINE",
"253 525 LINE",
"266 605 LINE SMOOTH",
"276 665 OFFCURVE",
"304 700 OFFCURVE",
"394 700 CURVE SMOOTH",
"439 700 OFFCURVE",
"484 697 OFFCURVE",
"519 695 CURVE"
);
}
);
width = 648;
}
);
leftKerningGroup = f;
rightKerningGroup = l;
unicode = FB02;
},
{
glyphname = ordfeminine;
lastChange = "2014-11-10 22:19:38 +0100";
layers = (
{
guideLines = (
{
position = "{462, 324}";
},
{
position = "{442, 316}";
}
);
layerId = "89F00A14-383C-41A8-AF30-A12CE933D7AF";
name = "Regular Extended Italic";
paths = (
{
closed = 1;
nodes = (
"378 385 LINE",
"433 703 LINE",
"384 703 LINE",
"363 687 LINE",
"363 687 OFFCURVE",
"329 710 OFFCURVE",
"282 710 CURVE SMOOTH",
"170 710 OFFCURVE",
"64 617 OFFCURVE",
"64 448 CURVE SMOOTH",
"64 380 OFFCURVE",
"100 316 OFFCURVE",
"161 316 CURVE SMOOTH",
"255 316 OFFCURVE",
"316 447 OFFCURVE",
"320 456 CURVE",
"291 324 LINE",
"438 328 LINE",
"444 371 LINE"
);
},
{
closed = 1;
nodes = (
"333 570 LINE",
"333 570 OFFCURVE",
"267 382 OFFCURVE",
"186 382 CURVE SMOOTH",
"165 382 OFFCURVE",
"144 403 OFFCURVE",
"144 455 CURVE SMOOTH",
"144 600 OFFCURVE",
"223 650 OFFCURVE",
"282 650 CURVE SMOOTH",
"318 650 OFFCURVE",
"347 640 OFFCURVE",
"347 640 CURVE"
);
},
{
closed = 1;
nodes = (
"45 165 LINE",
"388 165 LINE",
"399 235 LINE",
"56 235 LINE"
);
}
);
width = 478;
}
);
unicode = 00AA;
},
{
glyphname = ordmasculine;
lastChange = "2014-11-10 22:19:38 +0100";
layers = (
{
layerId = "89F00A14-383C-41A8-AF30-A12CE933D7AF";
name = "Regular Extended Italic";
paths = (
{
closed = 1;
nodes = (
"164 710 OFFCURVE",
"70 608 OFFCURVE",
"70 459 CURVE SMOOTH",
"70 363 OFFCURVE",
"126 315 OFFCURVE",
"225 315 CURVE SMOOTH",
"363 315 OFFCURVE",
"448 423 OFFCURVE",
"448 567 CURVE SMOOTH",
"448 658 OFFCURVE",
"395 710 OFFCURVE",
"298 710 CURVE SMOOTH"
);
},
{
closed = 1;
nodes = (
"337 644 OFFCURVE",
"366 607 OFFCURVE",
"366 547 CURVE SMOOTH",
"366 450 OFFCURVE",
"318 380 OFFCURVE",
"243 380 CURVE SMOOTH",
"190 380 OFFCURVE",
"152 409 OFFCURVE",
"152 473 CURVE SMOOTH",
"152 580 OFFCURVE",
"203 644 OFFCURVE",
"283 644 CURVE SMOOTH"
);
},
{
closed = 1;
nodes = (
"32 165 LINE",
"375 165 LINE",
"386 235 LINE",
"43 235 LINE"
);
}
);
width = 495;
}
);
unicode = 00BA;
},
{
glyphname = nsuperior;
lastChange = "2014-11-10 22:19:38 +0100";
layers = (
{
layerId = "89F00A14-383C-41A8-AF30-A12CE933D7AF";
name = "Regular Extended Italic";
paths = (
{
closed = 1;
nodes = (
"319 324 LINE",
"466 328 LINE",
"472 371 LINE",
"407 385 LINE",
"440 579 LINE SMOOTH",
"443 595 OFFCURVE",
"444 607 OFFCURVE",
"444 621 CURVE SMOOTH",
"444 673 OFFCURVE",
"419 710 OFFCURVE",
"360 710 CURVE SMOOTH",
"251 710 OFFCURVE",
"188 569 OFFCURVE",
"185 563 CURVE",
"217 702 LINE",
"89 698 LINE",
"82 654 LINE",
"138 638 LINE",
"85 324 LINE",
"163 324 LINE",
"184 449 LINE",
"184 449 OFFCURVE",
"231 638 OFFCURVE",
"325 638 CURVE SMOOTH",
"354 638 OFFCURVE",
"363 618 OFFCURVE",
"363 590 CURVE SMOOTH",
"363 581 OFFCURVE",
"362 569 OFFCURVE",
"360 558 CURVE SMOOTH"
);
}
);
width = 506;
}
);
unicode = 207F;
},
{
glyphname = "Be-cy";
lastChange = "2014-11-10 22:19:38 +0100";
layers = (
{
layerId = "89F00A14-383C-41A8-AF30-A12CE933D7AF";
name = "Regular Extended Italic";
paths = (
{
closed = 1;
nodes = (
"486 620 LINE",
"495 520 LINE",
"559 520 LINE",
"586 700 LINE",
"297 700 LINE",
"108 695 LINE",
"99 640 LINE",
"179 620 LINE",
"95 80 LINE",
"9 60 LINE",
"0 0 LINE",
"287 0 LINE",
"296 60 LINE",
"196 80 LINE",
"280 620 LINE"
);
},
{
closed = 1;
nodes = (
"316 313 LINE SMOOTH",
"397 313 OFFCURVE",
"456 294 OFFCURVE",
"456 218 CURVE SMOOTH",
"456 122 OFFCURVE",
"387 80 OFFCURVE",
"299 80 CURVE SMOOTH",
"195 80 LINE",
"183 0 LINE",
"282 0 LINE SMOOTH",
"438 0 OFFCURVE",
"562 70 OFFCURVE",
"562 240 CURVE SMOOTH",
"562 353 OFFCURVE",
"473 390 OFFCURVE",
"334 390 CURVE",
"223 390 LINE",
"231 313 LINE"
);
}
);
width = 605;
}
);
leftKerningGroup = H;
unicode = 0411;
},
{
glyphname = "Ge-cy";
lastChange = "2014-11-10 22:19:38 +0100";
layers = (
{
layerId = "89F00A14-383C-41A8-AF30-A12CE933D7AF";
name = "Regular Extended Italic";
paths = (
{
closed = 1;
nodes = (
"481 620 LINE",
"490 520 LINE",
"554 520 LINE",
"581 700 LINE",
"297 700 LINE",
"108 695 LINE",
"99 640 LINE",
"179 620 LINE",
"95 80 LINE",
"9 60 LINE",
"0 0 LINE",
"287 0 LINE",
"296 60 LINE",
"196 80 LINE",
"280 620 LINE"
);
}
);
width = 519;
}
);
leftKerningGroup = H;
rightKerningGroup = "Ge-cy";
unicode = 0413;
},
{
glyphname = "Gheupturn-cy";
lastChange = "2014-11-10 22:19:38 +0100";
layers = (
{
layerId = "89F00A14-383C-41A8-AF30-A12CE933D7AF";
name = "Regular Extended Italic";
paths = (
{
closed = 1;
nodes = (
"544 875 LINE",
"472 700 LINE",
"297 700 LINE",
"108 695 LINE",
"99 640 LINE",
"179 620 LINE",
"95 80 LINE",
"9 60 LINE",
"0 0 LINE",
"297 0 LINE",
"306 60 LINE",
"196 80 LINE",
"280 620 LINE",
"563 620 LINE",
"603 875 LINE"
);
}
);
width = 502;
}
);
leftKerningGroup = H;
rightKerningGroup = "Ge-cy";
unicode = 0490;
},
{
glyphname = "De-cy";
lastChange = "2014-11-10 22:19:38 +0100";
layers = (
{
layerId = "89F00A14-383C-41A8-AF30-A12CE933D7AF";
name = "Regular Extended Italic";
paths = (
{
closed = 1;
nodes = (
"641 62 LINE",
"529 0 LINE",
"546 -175 LINE",
"605 -175 LINE"
);
},
{
closed = 1;
nodes = (
"-7 -175 LINE",
"68 0 LINE",
"-23 65 LINE",
"-65 -175 LINE"
);
},
{
closed = 1;
nodes = (
"700 640 LINE",
"708 700 LINE",
"512 620 LINE",
"428 80 LINE",
"106 80 LINE",
"-23 65 LINE",
"68 0 LINE",
"631 0 LINE",
"641 62 LINE",
"531 80 LINE",
"615 620 LINE"
);
},
{
closed = 1;
nodes = (
"708 700 LINE",
"141 700 LINE",
"130 640 LINE",
"230 620 LINE",
"205 491 OFFCURVE",
"190 412 OFFCURVE",
"154 287 CURVE SMOOTH",
"113 144 OFFCURVE",
"97 97 OFFCURVE",
"-23 65 CURVE",
"127 64 LINE",
"182 103 OFFCURVE",
"211 175 OFFCURVE",
"240 285 CURVE SMOOTH",
"268 395 OFFCURVE",
"296 512 OFFCURVE",
"317 620 CURVE",
"512 620 LINE"
);
}
);
width = 695;
}
);
leftKerningGroup = "De-cy";
rightKerningGroup = "Tse-cy";
unicode = 0414;
},
{
glyphname = "Zhe-cy";
lastChange = "2014-11-10 22:19:38 +0100";
layers = (
{
layerId = "89F00A14-383C-41A8-AF30-A12CE933D7AF";
name = "Regular Extended Italic";
paths = (
{
closed = 1;
nodes = (
"314 0 LINE",
"323 60 LINE",
"396 80 LINE",
"482 620 LINE",
"400 640 LINE",
"409 695 LINE",
"684 700 LINE",
"675 640 LINE",
"577 620 LINE",
"542 400 LINE",
"638 400 LINE",
"849 695 LINE",
"1008 700 LINE",
"999 640 LINE",
"897 620 LINE",
"714 367 LINE",
"866 80 LINE",
"943 60 LINE",
"934 0 LINE",
"660 0 LINE",
"669 60 LINE",
"757 80 LINE",
"630 320 LINE",
"529 320 LINE",
"491 80 LINE",
"568 60 LINE",
"559 0 LINE"
);
},
{
closed = 1;
nodes = (
"335 320 LINE",
"141 80 LINE",
"223 60 LINE",
"214 0 LINE",
"-71 0 LINE",
"-62 60 LINE",
"26 80 LINE",
"262 367 LINE",
"162 620 LINE",
"66 640 LINE",
"75 700 LINE",
"236 695 LINE",
"350 400 LINE",
"447 400 LINE",
"434 320 LINE"
);
}
);
width = 940.531;
}
);
leftKerningGroup = X;
rightKerningGroup = X;
rightMetricsKey = K;
unicode = 0416;
},
{
glyphname = "Ze-cy";
lastChange = "2014-11-10 22:19:38 +0100";
layers = (
{
guideLines = (
{
angle = -99;
position = "{72, 403}";
}
);
layerId = "89F00A14-383C-41A8-AF30-A12CE933D7AF";
name = "Regular Extended Italic";
paths = (
{
closed = 1;
nodes = (
"89 510 LINE",
"169 510 LINE",
"193 609 LINE",
"193 609 OFFCURVE",
"242 625 OFFCURVE",
"313 625 CURVE SMOOTH",
"403 625 OFFCURVE",
"439 591 OFFCURVE",
"439 542 CURVE SMOOTH",
"439 476 OFFCURVE",
"394 405 OFFCURVE",
"259 405 CURVE SMOOTH",
"171 405 LINE",
"158 325 LINE",
"252 325 LINE SMOOTH",
"354 325 OFFCURVE",
"401 291 OFFCURVE",
"401 219 CURVE SMOOTH",
"401 133 OFFCURVE",
"322 75 OFFCURVE",
"221 75 CURVE SMOOTH",
"156 75 OFFCURVE",
"92 100 OFFCURVE",
"44 117 CURVE",
"8 36 LINE",
"45 18 OFFCURVE",
"115 -10 OFFCURVE",
"205 -10 CURVE SMOOTH",
"385 -10 OFFCURVE",
"510 91 OFFCURVE",
"510 231 CURVE SMOOTH",
"510 296 OFFCURVE",
"471 350 OFFCURVE",
"377 368 CURVE",
"501 398 OFFCURVE",
"546 473 OFFCURVE",
"546 564 CURVE SMOOTH",
"546 659 OFFCURVE",
"466 710 OFFCURVE",
"332 710 CURVE SMOOTH",
"222 710 OFFCURVE",
"110 674 OFFCURVE",
"110 674 CURVE"
);
}
);
width = 568;
}
);
rightKerningGroup = B;
unicode = 0417;
},
{
glyphname = "Ii-cy";
lastChange = "2014-11-10 22:19:38 +0100";
layers = (
{
layerId = "89F00A14-383C-41A8-AF30-A12CE933D7AF";
name = "Regular Extended Italic";
paths = (
{
closed = 1;
nodes = (
"602 477 LINE",
"619 585 LINE",
"213 220 LINE",
"197 115 LINE"
);
},
{
closed = 1;
nodes = (
"441 60 LINE",
"431 0 LINE",
"709 0 LINE",
"719 60 LINE",
"635 80 LINE",
"722 620 LINE",
"809 640 LINE",
"819 700 LINE",
"540 695 LINE",
"531 640 LINE",
"622 620 LINE",
"535 79 LINE"
);
},
{
closed = 1;
nodes = (
"373 640 LINE",
"383 700 LINE",
"108 695 LINE",
"99 640 LINE",
"181 620 LINE",
"94 79 LINE",
"8 60 LINE",
"-2 0 LINE",
"271 0 LINE",
"281 60 LINE",
"194 80 LINE",
"281 620 LINE"
);
}
);
width = 791;
}
);
leftKerningGroup = H;
rightKerningGroup = H;
unicode = 0418;
},
{
glyphname = "Ka-cy";
lastChange = "2014-11-10 22:19:38 +0100";
layers = (
{
layerId = "89F00A14-383C-41A8-AF30-A12CE933D7AF";
name = "Regular Extended Italic";
paths = (
{
closed = 1;
nodes = (
"382 0 LINE",
"642 0 LINE",
"652 60 LINE",
"581 80 LINE",
"424 367 LINE",
"613 620 LINE",
"698 640 LINE",
"708 700 LINE",
"560 695 LINE",
"344 400 LINE",
"252 400 LINE",
"288 620 LINE",
"377 640 LINE",
"387 700 LINE",
"113 695 LINE",
"104 640 LINE",
"188 620 LINE",
"101 80 LINE",
"13 60 LINE",
"3 0 LINE",
"276 0 LINE",
"286 60 LINE",
"201 80 LINE",
"239 320 LINE",
"341 320 LINE",
"471 79 LINE",
"392 60 LINE"
);
}
);
width = 649;
}
);
leftKerningGroup = H;
rightKerningGroup = K;
unicode = 041A;
},
{
glyphname = "El-cy";
lastChange = "2014-11-10 22:19:38 +0100";
layers = (
{
layerId = "89F00A14-383C-41A8-AF30-A12CE933D7AF";
name = "Regular Extended Italic";
paths = (
{
closed = 1;
nodes = (
"125 700 LINE",
"116 640 LINE",
"236 620 LINE",
"211 491 OFFCURVE",
"184 373 OFFCURVE",
"158 275 CURVE SMOOTH",
"128 160 OFFCURVE",
"89 110 OFFCURVE",
"29 110 CURVE SMOOTH",
"14 110 OFFCURVE",
"-1 112 OFFCURVE",
"-13 115 CURVE",
"-46 8 LINE",
"-21 0 OFFCURVE",
"4 -5 OFFCURVE",
"29 -5 CURVE SMOOTH",
"159 -5 OFFCURVE",
"192 96 OFFCURVE",
"237 266 CURVE SMOOTH",
"264 369 OFFCURVE",
"290 497 OFFCURVE",
"314 620 CURVE",
"510 620 LINE",
"423 80 LINE",
"328 60 LINE",
"319 0 LINE",
"594 0 LINE",
"605 60 LINE",
"525 80 LINE",
"612 620 LINE",
"697 640 LINE",
"706 700 LINE"
);
}
);
width = 678;
}
);
leftKerningGroup = "De-cy";
rightKerningGroup = H;
unicode = 041B;
},
{
glyphname = "Pe-cy";
lastChange = "2014-11-10 22:19:38 +0100";
layers = (
{
layerId = "89F00A14-383C-41A8-AF30-A12CE933D7AF";
name = "Regular Extended Italic";
paths = (
{
closed = 1;
nodes = (
"286 60 LINE",
"197 80 LINE",
"284 620 LINE",
"578 620 LINE",
"491 80 LINE",
"396 60 LINE",
"385 0 LINE",
"663 0 LINE",
"674 60 LINE",
"594 80 LINE",
"681 620 LINE",
"766 640 LINE",
"774 700 LINE",
"295 700 LINE",
"110 695 LINE",
"101 640 LINE",
"181 620 LINE",
"94 80 LINE",
"8 60 LINE",
"-2 0 LINE",
"276 0 LINE"
);
}
);
width = 741;
}
);
leftKerningGroup = H;
rightKerningGroup = H;
unicode = 041F;
},
{
glyphname = "U-cy";
lastChange = "2014-11-10 22:19:38 +0100";
layers = (
{
guideLines = (
{
position = "{321, 640}";
},
{
position = "{352, 240}";
}
);
layerId = "89F00A14-383C-41A8-AF30-A12CE933D7AF";
name = "Regular Extended Italic";
paths = (
{
closed = 1;
nodes = (
"285 175 LINE SMOOTH",
"246 103 OFFCURVE",
"205 77 OFFCURVE",
"148 77 CURVE SMOOTH",
"124 77 OFFCURVE",
"99 82 OFFCURVE",
"69 90 CURVE",
"39 16 LINE",
"78 -1 OFFCURVE",
"113 -10 OFFCURVE",
"146 -10 CURVE SMOOTH",
"237 -10 OFFCURVE",
"311 58 OFFCURVE",
"395 210 CURVE SMOOTH",
"620 620 LINE",
"687 640 LINE",
"696 700 LINE",
"450 695 LINE",
"440 640 LINE",
"527 620 LINE"
);
},
{
closed = 1;
nodes = (
"330 222 LINE",
"315 298 LINE",
"215 620 LINE",
"303 640 LINE",
"312 700 LINE",
"53 695 LINE",
"45 640 LINE",
"110 620 LINE",
"275 110 LINE"
);
}
);
width = 635;
}
);
leftKerningGroup = "U-cy";
rightKerningGroup = "U-cy";
unicode = 0423;
},
{
glyphname = "Ef-cy";
lastChange = "2014-11-10 22:19:38 +0100";
layers = (
{
layerId = "89F00A14-383C-41A8-AF30-A12CE933D7AF";
name = "Regular Extended Italic";
paths = (
{
closed = 1;
nodes = (
"519 40 LINE",
"439 59 LINE",
"531 658 LINE",
"617 677 LINE",
"626 737 LINE",
"371 732 LINE",
"364 677 LINE",
"444 658 LINE",
"352 59 LINE",
"266 40 LINE",
"257 -20 LINE",
"511 -20 LINE"
);
},
{
closed = 1;
nodes = (
"216 625 OFFCURVE",
"61 502 OFFCURVE",
"61 311 CURVE SMOOTH",
"61 150 OFFCURVE",
"173 90 OFFCURVE",
"392 90 CURVE SMOOTH",
"652 90 OFFCURVE",
"823 207 OFFCURVE",
"823 399 CURVE SMOOTH",
"823 552 OFFCURVE",
"715 625 OFFCURVE",
"494 625 CURVE SMOOTH"
);
},
{
closed = 1;
nodes = (
"643 550 OFFCURVE",
"714 506 OFFCURVE",
"714 376 CURVE SMOOTH",
"714 265 OFFCURVE",
"659 165 OFFCURVE",
"409 165 CURVE SMOOTH",
"244 165 OFFCURVE",
"169 204 OFFCURVE",
"169 333 CURVE SMOOTH",
"169 489 OFFCURVE",
"276 550 OFFCURVE",
"477 550 CURVE SMOOTH"
);
}
);
width = 860;
}
);
leftKerningGroup = O;
rightKerningGroup = O;
unicode = 0424;
},
{
glyphname = "Che-cy";
lastChange = "2014-11-10 22:19:38 +0100";
layers = (
{
guideLines = (
{
position = "{369, 640}";
}
);
layerId = "89F00A14-383C-41A8-AF30-A12CE933D7AF";
name = "Regular Extended Italic";
paths = (
{
closed = 1;
nodes = (
"458 365 LINE",
"442 359 OFFCURVE",
"373 340 OFFCURVE",
"305 340 CURVE SMOOTH",
"232 340 OFFCURVE",
"197 375 OFFCURVE",
"215 485 CURVE SMOOTH",
"237 621 LINE",
"318 640 LINE",
"326 700 LINE",
"73 695 LINE",
"64 640 LINE",
"134 620 LINE",
"111 475 LINE SMOOTH",
"86 315 OFFCURVE",
"150 250 OFFCURVE",
"272 250 CURVE SMOOTH",
"354 250 OFFCURVE",
"427 273 OFFCURVE",
"455 283 CURVE"
);
},
{
closed = 1;
nodes = (
"420 640 LINE",
"498 620 LINE",
"412 80 LINE",
"300 60 LINE",
"290 0 LINE",
"585 0 LINE",
"595 60 LINE",
"511 80 LINE",
"598 620 LINE",
"686 640 LINE",
"696 700 LINE",
"429 695 LINE"
);
}
);
width = 667;
}
);
rightKerningGroup = H;
unicode = 0427;
},
{
glyphname = "Tse-cy";
lastChange = "2014-11-10 22:19:38 +0100";
layers = (
{
layerId = "89F00A14-383C-41A8-AF30-A12CE933D7AF";
name = "Regular Extended Italic";
paths = (
{
closed = 1;
nodes = (
"697 62 LINE",
"587 80 LINE",
"674 620 LINE",
"760 640 LINE",
"768 700 LINE",
"490 695 LINE",
"482 640 LINE",
"571 620 LINE",
"485 80 LINE",
"197 80 LINE",
"283 620 LINE",
"379 640 LINE",
"388 700 LINE",
"110 695 LINE",
"101 640 LINE",
"181 620 LINE",
"94 80 LINE",
"8 60 LINE",
"2 0 LINE",
"585 0 LINE",
"601 -175 LINE",
"660 -175 LINE"
);
}
);
width = 750;
}
);
leftKerningGroup = H;
rightKerningGroup = "Tse-cy";
unicode = 0426;
},
{
glyphname = "Sha-cy";
lastChange = "2014-11-10 22:19:38 +0100";
layers = (
{
layerId = "89F00A14-383C-41A8-AF30-A12CE933D7AF";
name = "Regular Extended Italic";
paths = (
{
closed = 1;
nodes = (
"940 60 LINE",
"860 80 LINE",
"947 620 LINE",
"1033 640 LINE",
"1044 700 LINE",
"785 695 LINE",
"775 640 LINE",
"845 620 LINE",
"758 80 LINE",
"529 80 LINE",
"616 620 LINE",
"692 640 LINE",
"703 700 LINE",
"454 695 LINE",
"443 640 LINE",
"513 620 LINE",
"426 80 LINE",
"197 80 LINE",
"284 620 LINE",
"360 640 LINE",
"371 700 LINE",
"112 695 LINE",
"102 640 LINE",
"182 620 LINE",
"95 80 LINE",
"9 60 LINE",
"-2 0 LINE",
"930 0 LINE"
);
}
);
width = 1015;
}
);
leftKerningGroup = H;
rightKerningGroup = H;
unicode = 0428;
},
{
glyphname = "Shcha-cy";
lastChange = "2014-11-10 22:19:38 +0100";
layers = (
{
layerId = "89F00A14-383C-41A8-AF30-A12CE933D7AF";
name = "Regular Extended Italic";
paths = (
{
closed = 1;
nodes = (
"978 60 LINE",
"859 80 LINE",
"946 620 LINE",
"1032 640 LINE",
"1043 700 LINE",
"784 695 LINE",
"774 640 LINE",
"844 620 LINE",
"757 80 LINE",
"528 80 LINE",
"615 620 LINE",
"691 640 LINE",
"702 700 LINE",
"453 695 LINE",
"442 640 LINE",
"512 620 LINE",
"425 80 LINE",
"196 80 LINE",
"283 620 LINE",
"359 640 LINE",
"370 700 LINE",
"111 695 LINE",
"101 640 LINE",
"181 620 LINE",
"94 80 LINE",
"8 60 LINE",
"-2 0 LINE",
"864 0 LINE",
"887 -175 LINE",
"945 -175 LINE"
);
}
);
width = 1035;
}
);
leftKerningGroup = H;
rightKerningGroup = "Tse-cy";
unicode = 0429;
},
{
glyphname = "Dzhe-cy";
lastChange = "2014-11-10 22:19:38 +0100";
layers = (
{
layerId = "89F00A14-383C-41A8-AF30-A12CE933D7AF";
name = "Regular Extended Italic";
paths = (
{
closed = 1;
nodes = (
"657 60 LINE",
"577 80 LINE",
"664 620 LINE",
"750 640 LINE",
"761 700 LINE",
"482 695 LINE",
"472 640 LINE",
"561 620 LINE",
"475 80 LINE",
"197 80 LINE",
"283 620 LINE",
"379 640 LINE",
"390 700 LINE",
"112 695 LINE",
"101 640 LINE",
"181 620 LINE",
"94 80 LINE",
"8 60 LINE",
"-2 0 LINE",
"647 0 LINE"
);
},
{
closed = 1;
nodes = (
"267 0 LINE",
"262 -175 LINE",
"321 -175 LINE",
"370 0 LINE"
);
}
);
width = 732;
}
);
leftKerningGroup = H;
rightKerningGroup = H;
unicode = 040F;
},
{
glyphname = "Ia-cy";
lastChange = "2014-11-10 22:19:38 +0100";
layers = (
{
layerId = "89F00A14-383C-41A8-AF30-A12CE933D7AF";
name = "Regular Extended Italic";
paths = (
{
closed = 1;
nodes = (
"476 80 LINE",
"562 620 LINE",
"649 640 LINE",
"659 700 LINE",
"368 700 LINE SMOOTH",
"221 700 OFFCURVE",
"110 627 OFFCURVE",
"110 469 CURVE SMOOTH",
"110 368 OFFCURVE",
"177 325 OFFCURVE",
"239 307 CURVE",
"209 294 OFFCURVE",
"177 265 OFFCURVE",
"141 215 CURVE SMOOTH",
"42 76 LINE",
"-38 60 LINE",
"-47 0 LINE",
"102 0 LINE",
"212 170 LINE SMOOTH",
"275 266 OFFCURVE",
"307 290 OFFCURVE",
"353 290 CURVE SMOOTH",
"408 290 LINE",
"375 80 LINE",
"287 60 LINE",
"278 0 LINE",
"549 0 LINE",
"558 60 LINE"
);
},
{
closed = 1;
nodes = (
"365 365 LINE SMOOTH",
"277 365 OFFCURVE",
"213 392 OFFCURVE",
"213 472 CURVE SMOOTH",
"213 570 OFFCURVE",
"275 620 OFFCURVE",
"356 620 CURVE SMOOTH",
"460 620 LINE",
"420 365 LINE"
);
}
);
width = 631;
}
);
rightKerningGroup = H;
unicode = 042F;
},
{
glyphname = "Softsign-cy";
lastChange = "2014-11-10 22:19:38 +0100";
layers = (
{
layerId = "89F00A14-383C-41A8-AF30-A12CE933D7AF";
name = "Regular Extended Italic";
paths = (
{
closed = 1;
nodes = (
"244 410 LINE",
"277 620 LINE",
"378 640 LINE",
"388 700 LINE",
"110 700 LINE",
"100 640 LINE",
"180 620 LINE",
"94 80 LINE",
"8 60 LINE",
"-1 0 LINE",
"277 0 LINE SMOOTH",
"436 0 OFFCURVE",
"557 83 OFFCURVE",
"557 256 CURVE SMOOTH",
"557 373 OFFCURVE",
"465 410 OFFCURVE",
"333 410 CURVE SMOOTH"
);
},
{
closed = 1;
nodes = (
"190 80 LINE",
"230 335 LINE",
"314 335 LINE SMOOTH",
"389 335 OFFCURVE",
"452 315 OFFCURVE",
"452 234 CURVE SMOOTH",
"452 136 OFFCURVE",
"385 80 OFFCURVE",
"294 80 CURVE SMOOTH"
);
}
);
width = 573;
}
);
leftKerningGroup = H;
unicode = 042C;
},
{
glyphname = "Hardsign-cy";
lastChange = "2014-11-10 22:19:38 +0100";
layers = (
{
guideLines = (
{
position = "{192, 520}";
}
);
layerId = "89F00A14-383C-41A8-AF30-A12CE933D7AF";
name = "Regular Extended Italic";
paths = (
{
closed = 1;
nodes = (
"328 410 LINE",
"362 620 LINE",
"462 640 LINE",
"473 700 LINE",
"75 700 LINE",
"151 620 LINE",
"261 620 LINE",
"174 80 LINE",
"79 60 LINE",
"69 0 LINE",
"363 0 LINE SMOOTH",
"521 0 OFFCURVE",
"644 83 OFFCURVE",
"644 255 CURVE SMOOTH",
"644 373 OFFCURVE",
"551 410 OFFCURVE",
"419 410 CURVE SMOOTH"
);
},
{
closed = 1;
nodes = (
"275 80 LINE",
"316 335 LINE",
"401 335 LINE SMOOTH",
"475 335 OFFCURVE",
"538 315 OFFCURVE",
"538 235 CURVE SMOOTH",
"538 136 OFFCURVE",
"472 80 OFFCURVE",
"379 80 CURVE SMOOTH"
);
},
{
closed = 1;
nodes = (
"45 520 LINE",
"109 520 LINE",
"151 620 LINE",
"75 700 LINE"
);
}
);
width = 675;
}
);
leftKerningGroup = T;
rightKerningGroup = o;
unicode = 042A;
},
{
glyphname = "Yeru-cy";
lastChange = "2014-11-10 22:19:38 +0100";
layers = (
{
layerId = "89F00A14-383C-41A8-AF30-A12CE933D7AF";
name = "Regular Extended Italic";
paths = (
{
closed = 1;
nodes = (
"244 410 LINE",
"277 620 LINE",
"378 640 LINE",
"388 700 LINE",
"110 700 LINE",
"100 640 LINE",
"180 620 LINE",
"94 80 LINE",
"8 60 LINE",
"-1 0 LINE",
"277 0 LINE SMOOTH",
"436 0 OFFCURVE",
"557 83 OFFCURVE",
"557 256 CURVE SMOOTH",
"557 373 OFFCURVE",
"465 410 OFFCURVE",
"333 410 CURVE SMOOTH"
);
},
{
closed = 1;
nodes = (
"190 80 LINE",
"230 335 LINE",
"314 335 LINE SMOOTH",
"389 335 OFFCURVE",
"452 315 OFFCURVE",
"452 234 CURVE SMOOTH",
"452 136 OFFCURVE",
"385 80 OFFCURVE",
"294 80 CURVE SMOOTH"
);
},
{
closed = 1;
nodes = (
"640 80 LINE",
"550 60 LINE",
"540 0 LINE",
"813 0 LINE",
"823 60 LINE",
"739 80 LINE",
"826 620 LINE",
"914 640 LINE",
"924 700 LINE",
"651 695 LINE",
"642 640 LINE",
"726 620 LINE"
);
}
);
width = 895;
}
);
leftKerningGroup = H;
rightKerningGroup = H;
unicode = 042B;
},
{
glyphname = "Lje-cy";
lastChange = "2014-11-10 22:19:38 +0100";
layers = (
{
layerId = "89F00A14-383C-41A8-AF30-A12CE933D7AF";
name = "Regular Extended Italic";
paths = (
{
closed = 1;
nodes = (
"579 410 LINE",
"612 620 LINE",
"713 640 LINE",
"723 700 LINE",
"515 620 LINE",
"429 80 LINE",
"334 60 LINE",
"325 0 LINE",
"612 0 LINE SMOOTH",
"771 0 OFFCURVE",
"892 83 OFFCURVE",
"892 256 CURVE SMOOTH",
"892 373 OFFCURVE",
"800 410 OFFCURVE",
"668 410 CURVE SMOOTH"
);
},
{
closed = 1;
nodes = (
"525 80 LINE",
"565 335 LINE",
"649 335 LINE SMOOTH",
"724 335 OFFCURVE",
"787 315 OFFCURVE",
"787 234 CURVE SMOOTH",
"787 136 OFFCURVE",
"720 80 OFFCURVE",
"629 80 CURVE SMOOTH"
);
},
{
closed = 1;
nodes = (
"126 640 LINE",
"246 620 LINE",
"221 491 OFFCURVE",
"194 373 OFFCURVE",
"168 275 CURVE SMOOTH",
"138 160 OFFCURVE",
"99 110 OFFCURVE",
"39 110 CURVE SMOOTH",
"24 110 OFFCURVE",
"9 112 OFFCURVE",
"-3 115 CURVE",
"-36 8 LINE",
"-11 0 OFFCURVE",
"14 -5 OFFCURVE",
"39 -5 CURVE SMOOTH",
"169 -5 OFFCURVE",
"202 96 OFFCURVE",
"247 266 CURVE SMOOTH",
"274 369 OFFCURVE",
"300 497 OFFCURVE",
"324 620 CURVE",
"531 620 LINE",
"723 700 LINE",
"135 700 LINE"
);
}
);
width = 918;
}
);
leftKerningGroup = "De-cy";
rightKerningGroup = o;
unicode = 0409;
},
{
glyphname = "Nje-cy";
lastChange = "2014-11-10 22:19:38 +0100";
layers = (
{
layerId = "89F00A14-383C-41A8-AF30-A12CE933D7AF";
name = "Regular Extended Italic";
paths = (
{
closed = 1;
nodes = (
"669 405 LINE",
"703 620 LINE",
"804 640 LINE",
"814 700 LINE",
"524 695 LINE",
"515 640 LINE",
"606 620 LINE",
"572 405 LINE",
"246 405 LINE",
"281 620 LINE",
"373 640 LINE",
"383 700 LINE",
"108 695 LINE",
"99 640 LINE",
"181 620 LINE",
"94 79 LINE",
"8 60 LINE",
"-2 0 LINE",
"271 0 LINE",
"281 60 LINE",
"194 80 LINE",
"233 325 LINE",
"559 325 LINE",
"520 80 LINE",
"434 60 LINE",
"425 0 LINE",
"703 0 LINE SMOOTH",
"862 0 OFFCURVE",
"985 83 OFFCURVE",
"983 256 CURVE SMOOTH",
"982 368 OFFCURVE",
"890 405 OFFCURVE",
"758 405 CURVE SMOOTH"
);
},
{
closed = 1;
nodes = (
"616 80 LINE",
"655 330 LINE",
"739 330 LINE SMOOTH",
"814 330 OFFCURVE",
"877 310 OFFCURVE",
"878 234 CURVE SMOOTH",
"879 136 OFFCURVE",
"811 80 OFFCURVE",
"720 80 CURVE SMOOTH"
);
}
);
width = 999;
}
);
leftKerningGroup = H;
rightKerningGroup = "Softsign-cy";
unicode = 040A;
},
{
glyphname = "E-cy";
lastChange = "2014-11-10 22:19:38 +0100";
layers = (
{
guideLines = (
{
position = "{400, 195}";
}
);
layerId = "89F00A14-383C-41A8-AF30-A12CE933D7AF";
name = "Regular Extended Italic";
paths = (
{
closed = 1;
nodes = (
"470 319 LINE",
"484 399 LINE",
"170 399 LINE",
"156 319 LINE"
);
},
{
closed = 1;
nodes = (
"541 148 LINE",
"499 121 OFFCURVE",
"430 80 OFFCURVE",
"335 80 CURVE SMOOTH",
"235 80 OFFCURVE",
"171 145 OFFCURVE",
"171 265 CURVE SMOOTH",
"171 288 OFFCURVE",
"174 313 OFFCURVE",
"178 340 CURVE SMOOTH",
"208 525 OFFCURVE",
"293 625 OFFCURVE",
"418 625 CURVE SMOOTH",
"485 625 OFFCURVE",
"519 611 OFFCURVE",
"538 605 CURVE",
"544 500 LINE",
"617 500 LINE",
"647 660 LINE",
"647 660 OFFCURVE",
"542 710 OFFCURVE",
"442 710 CURVE SMOOTH",
"227 710 OFFCURVE",
"60 524 OFFCURVE",
"60 241 CURVE SMOOTH",
"60 81 OFFCURVE",
"158 -10 OFFCURVE",
"318 -10 CURVE SMOOTH",
"433 -10 OFFCURVE",
"537 57 OFFCURVE",
"573 88 CURVE"
);
}
);
width = 639;
}
);
unicode = 0404;
},
{
glyphname = "Ereversed-cy";
lastChange = "2014-11-10 22:19:38 +0100";
layers = (
{
layerId = "89F00A14-383C-41A8-AF30-A12CE933D7AF";
name = "Regular Extended Italic";
paths = (
{
closed = 1;
nodes = (
"513 399 LINE",
"209 399 LINE",
"195 319 LINE",
"499 319 LINE"
);
},
{
closed = 1;
nodes = (
"172 500 LINE",
"208 606 LINE",
"242 617 OFFCURVE",
"290 626 OFFCURVE",
"330 626 CURVE SMOOTH",
"428 626 OFFCURVE",
"495 562 OFFCURVE",
"495 431 CURVE SMOOTH",
"495 261 OFFCURVE",
"408 80 OFFCURVE",
"243 80 CURVE SMOOTH",
"138 80 OFFCURVE",
"89 127 OFFCURVE",
"63 147 CURVE",
"9 88 LINE",
"31 68 OFFCURVE",
"98 -10 OFFCURVE",
"225 -10 CURVE SMOOTH",
"430 -10 OFFCURVE",
"606 174 OFFCURVE",
"606 456 CURVE SMOOTH",
"606 624 OFFCURVE",
"519 710 OFFCURVE",
"354 710 CURVE SMOOTH",
"240 710 OFFCURVE",
"120 656 OFFCURVE",
"119 659 CURVE",
"98 500 LINE"
);
}
);
width = 639;
}
);
rightKerningGroup = O;
unicode = 042D;
},
{
glyphname = "Tshe-cy";
lastChange = "2014-11-10 22:19:38 +0100";
layers = (
{
layerId = "89F00A14-383C-41A8-AF30-A12CE933D7AF";
name = "Regular Extended Italic";
paths = (
{
closed = 1;
nodes = (
"320 270 LINE",
"320 270 OFFCURVE",
"390 350 OFFCURVE",
"492 350 CURVE SMOOTH",
"551 350 OFFCURVE",
"576 315 OFFCURVE",
"565 245 CURVE SMOOTH",
"538 79 LINE",
"461 55 LINE",
"452 0 LINE",
"701 0 LINE",
"710 55 LINE",
"640 80 LINE",
"671 260 LINE SMOOTH",
"690 370 OFFCURVE",
"649 440 OFFCURVE",
"537 440 CURVE SMOOTH",
"436 440 OFFCURVE",
"368 384 OFFCURVE",
"334 358 CURVE"
);
},
{
closed = 1;
nodes = (
"366 60 LINE",
"291 80 LINE",
"377 620 LINE",
"525 620 LINE",
"533 520 LINE",
"597 520 LINE",
"625 700 LINE",
"74 700 LINE",
"45 520 LINE",
"109 520 LINE",
"150 620 LINE",
"277 620 LINE",
"191 80 LINE",
"90 60 LINE",
"80 0 LINE",
"357 0 LINE"
);
}
);
width = 755;
}
);
leftKerningGroup = T;
rightKerningGroup = n;
unicode = 040B;
},
{
glyphname = "Iu-cy";
lastChange = "2014-11-10 22:19:38 +0100";
layers = (
{
layerId = "89F00A14-383C-41A8-AF30-A12CE933D7AF";
name = "Regular Extended Italic";
paths = (
{
closed = 1;
nodes = (
"232 320 LINE",
"194 80 LINE",
"281 60 LINE",
"271 0 LINE",
"-2 0 LINE",
"8 60 LINE",
"94 79 LINE",
"181 620 LINE",
"99 640 LINE",
"108 695 LINE",
"383 700 LINE",
"373 640 LINE",
"281 620 LINE",
"245 400 LINE",
"431 400 LINE",
"418 320 LINE"
);
},
{
closed = 1;
nodes = (
"438 -10 OFFCURVE",
"346 83 OFFCURVE",
"346 234 CURVE SMOOTH",
"346 516 OFFCURVE",
"515 710 OFFCURVE",
"738 710 CURVE SMOOTH",
"900 710 OFFCURVE",
"991 609 OFFCURVE",
"991 465 CURVE SMOOTH",
"991 173 OFFCURVE",
"816 -10 OFFCURVE",
"587 -10 CURVE SMOOTH"
);
},
{
closed = 1;
nodes = (
"881 574 OFFCURVE",
"816 625 OFFCURVE",
"721 625 CURVE SMOOTH",
"560 625 OFFCURVE",
"456 448 OFFCURVE",
"456 244 CURVE SMOOTH",
"456 132 OFFCURVE",
"515 75 OFFCURVE",
"609 75 CURVE SMOOTH",
"769 75 OFFCURVE",
"881 238 OFFCURVE",
"881 452 CURVE SMOOTH"
);
}
);
width = 1028;
}
);
leftKerningGroup = H;
rightKerningGroup = O;
unicode = 042E;
},
{
glyphname = "Dje-cy";
lastChange = "2014-11-10 22:19:38 +0100";
layers = (
{
layerId = "89F00A14-383C-41A8-AF30-A12CE933D7AF";
name = "Regular Extended Italic";
paths = (
{
closed = 1;
nodes = (
"381 620 LINE",
"519 620 LINE",
"527 520 LINE",
"591 520 LINE",
"620 700 LINE",
"75 700 LINE",
"45 520 LINE",
"110 520 LINE",
"150 620 LINE",
"281 620 LINE",
"195 80 LINE",
"93 60 LINE",
"82 0 LINE",
"283 0 LINE"
);
},
{
closed = 1;
nodes = (
"325 275 LINE",
"325 275 OFFCURVE",
"409 345 OFFCURVE",
"482 345 CURVE SMOOTH",
"542 345 OFFCURVE",
"564 312 OFFCURVE",
"564 260 CURVE SMOOTH",
"564 167 OFFCURVE",
"550 75 OFFCURVE",
"460 75 CURVE SMOOTH",
"440 75 OFFCURVE",
"415 78 OFFCURVE",
"400 80 CURVE",
"379 10 LINE",
"379 10 OFFCURVE",
"424 -5 OFFCURVE",
"469 -5 CURVE SMOOTH",
"619 -5 OFFCURVE",
"670 127 OFFCURVE",
"670 284 CURVE SMOOTH",
"670 373 OFFCURVE",
"627 435 OFFCURVE",
"532 435 CURVE SMOOTH",
"448 435 OFFCURVE",
"376 389 OFFCURVE",
"338 366 CURVE"
);
}
);
width = 708;
}
);
leftKerningGroup = T;
rightKerningGroup = j;
unicode = 0402;
},
{
glyphname = "Ustraitstroke-cy";
lastChange = "2014-11-10 22:19:38 +0100";
layers = (
{
components = (
{
name = Y;
transform = "{1, 0, 0, 1, 0, 0}";
}
);
layerId = "89F00A14-383C-41A8-AF30-A12CE933D7AF";
name = "Regular Extended Italic";
paths = (
{
closed = 1;
nodes = (
"93 190 LINE",
"478 190 LINE",
"492 265 LINE",
"107 265 LINE"
);
}
);
width = 611;
}
);
leftKerningGroup = Y;
rightKerningGroup = Y;
unicode = 04B0;
},
{
glyphname = "be-cy";
lastChange = "2014-11-10 22:19:38 +0100";
layers = (
{
layerId = "89F00A14-383C-41A8-AF30-A12CE933D7AF";
name = "Regular Extended Italic";
paths = (
{
closed = 1;
nodes = (
"581 779 LINE",
"517 762 OFFCURVE",
"417 741 OFFCURVE",
"351 718 CURVE SMOOTH",
"131 642 OFFCURVE",
"70 369 OFFCURVE",
"70 186 CURVE SMOOTH",
"70 60 OFFCURVE",
"137 -10 OFFCURVE",
"257 -10 CURVE SMOOTH",
"418 -10 OFFCURVE",
"550 134 OFFCURVE",
"550 330 CURVE SMOOTH",
"550 447 OFFCURVE",
"484 525 OFFCURVE",
"362 525 CURVE SMOOTH",
"287 525 OFFCURVE",
"224 487 OFFCURVE",
"180 437 CURVE",
"218 540 OFFCURVE",
"289 610 OFFCURVE",
"374 639 CURVE SMOOTH",
"465 670 OFFCURVE",
"537 684 OFFCURVE",
"602 701 CURVE"
);
},
{
closed = 1;
nodes = (
"195 70 OFFCURVE",
"164 126 OFFCURVE",
"164 205 CURVE SMOOTH",
"164 355 OFFCURVE",
"218 445 OFFCURVE",
"340 445 CURVE SMOOTH",
"418 445 OFFCURVE",
"447 393 OFFCURVE",
"447 321 CURVE SMOOTH",
"447 162 OFFCURVE",
"377 70 OFFCURVE",
"274 70 CURVE SMOOTH"
);
}
);
width = 585;
}
);
rightKerningGroup = o;
unicode = 0431;
},
{
glyphname = "ve-cy";
lastChange = "2014-11-10 22:19:38 +0100";
layers = (
{
layerId = "89F00A14-383C-41A8-AF30-A12CE933D7AF";
name = "Regular Extended Italic";
paths = (
{
closed = 1;
nodes = (
"293 216 OFFCURVE",
"476 306 OFFCURVE",
"476 428 CURVE SMOOTH",
"476 487 OFFCURVE",
"432 540 OFFCURVE",
"332 540 CURVE SMOOTH",
"147 540 OFFCURVE",
"33 360 OFFCURVE",
"33 195 CURVE SMOOTH",
"33 75 OFFCURVE",
"98 -10 OFFCURVE",
"223 -10 CURVE SMOOTH",
"331 -10 OFFCURVE",
"443 67 OFFCURVE",
"443 176 CURVE SMOOTH",
"443 252 OFFCURVE",
"393 282 OFFCURVE",
"292 285 CURVE",
"133 216 LINE",
"232 216 OFFCURVE",
"293 237 OFFCURVE",
"321 221 CURVE SMOOTH",
"342 209 OFFCURVE",
"350 191 OFFCURVE",
"350 166 CURVE SMOOTH",
"350 106 OFFCURVE",
"302 60 OFFCURVE",
"242 60 CURVE SMOOTH",
"170 60 OFFCURVE",
"133 104 OFFCURVE",
"133 174 CURVE SMOOTH",
"133 348 OFFCURVE",
"202 466 OFFCURVE",
"307 466 CURVE SMOOTH",
"356 466 OFFCURVE",
"381 440 OFFCURVE",
"381 400 CURVE SMOOTH",
"381 341 OFFCURVE",
"307 279 OFFCURVE",
"133 279 CURVE",
"133 216 LINE"
);
}
);
width = 504;
}
);
leftKerningGroup = n;
rightKerningGroup = "ve-cy";
unicode = 0432;
},
{
glyphname = "ge-cy";
lastChange = "2014-11-10 22:19:38 +0100";
layers = (
{
guideLines = (
{
position = "{162, 63}";
}
);
layerId = "89F00A14-383C-41A8-AF30-A12CE933D7AF";
name = "Regular Extended Italic";
paths = (
{
closed = 1;
nodes = (
"370 117 LINE",
"302 81 OFFCURVE",
"245 61 OFFCURVE",
"206 61 CURVE SMOOTH",
"166 61 OFFCURVE",
"141 82 OFFCURVE",
"141 116 CURVE SMOOTH",
"141 227 OFFCURVE",
"441 266 OFFCURVE",
"441 421 CURVE SMOOTH",
"441 492 OFFCURVE",
"386 540 OFFCURVE",
"304 540 CURVE SMOOTH",
"242 540 OFFCURVE",
"167 513 OFFCURVE",
"90 463 CURVE",
"119 413 LINE",
"182 449 OFFCURVE",
"238 470 OFFCURVE",
"275 470 CURVE SMOOTH",
"309 470 OFFCURVE",
"331 450 OFFCURVE",
"331 419 CURVE SMOOTH",
"331 311 OFFCURVE",
"31 264 OFFCURVE",
"31 115 CURVE SMOOTH",
"31 41 OFFCURVE",
"95 -10 OFFCURVE",
"186 -10 CURVE SMOOTH",
"254 -10 OFFCURVE",
"334 19 OFFCURVE",
"399 67 CURVE"
);
}
);
width = 477;
}
);
leftKerningGroup = n;
rightKerningGroup = "ge-cy";
unicode = 0433;
},
{
glyphname = "gheupturn-cy";
lastChange = "2014-11-10 22:19:38 +0100";
layers = (
{
layerId = "89F00A14-383C-41A8-AF30-A12CE933D7AF";
name = "Regular Extended Italic";
paths = (
{
closed = 1;
nodes = (
"256 530 LINE",
"75 525 LINE",
"66 470 LINE",
"146 450 LINE",
"85 80 LINE",
"-2 55 LINE",
"-12 0 LINE",
"266 0 LINE",
"277 55 LINE",
"183 80 LINE",
"243 450 LINE"
);
},
{
closed = 1;
nodes = (
"472 450 LINE",
"508 665 LINE",
"440 665 LINE",
"397 530 LINE",
"256 530 LINE",
"243 450 LINE"
);
}
);
width = 450;
}
);
leftKerningGroup = n;
rightKerningGroup = "ge-cy";
unicode = 0491;
},
{
glyphname = "de-cy";
lastChange = "2014-11-10 22:19:38 +0100";
layers = (
{
layerId = "89F00A14-383C-41A8-AF30-A12CE933D7AF";
name = "Regular Extended Italic";
paths = (
{
closed = 1;
nodes = (
"204 693 LINE",
"240 698 OFFCURVE",
"272 702 OFFCURVE",
"297 702 CURVE SMOOTH",
"410 702 OFFCURVE",
"449 617 OFFCURVE",
"448 453 CURVE",
"425 495 OFFCURVE",
"386 535 OFFCURVE",
"306 535 CURVE SMOOTH",
"129 535 OFFCURVE",
"37 339 OFFCURVE",
"37 191 CURVE SMOOTH",
"37 58 OFFCURVE",
"110 -10 OFFCURVE",
"208 -10 CURVE SMOOTH",
"458 -10 OFFCURVE",
"533 267 OFFCURVE",
"533 472 CURVE SMOOTH",
"533 686 OFFCURVE",
"447 776 OFFCURVE",
"316 776 CURVE SMOOTH",
"285 776 OFFCURVE",
"245 771 OFFCURVE",
"202 763 CURVE"
);
},
{
closed = 1;
nodes = (
"167 70 OFFCURVE",
"138 113 OFFCURVE",
"138 192 CURVE SMOOTH",
"138 301 OFFCURVE",
"185 458 OFFCURVE",
"311 458 CURVE SMOOTH",
"373 458 OFFCURVE",
"420 421 OFFCURVE",
"420 322 CURVE SMOOTH",
"420 204 OFFCURVE",
"351 70 OFFCURVE",
"234 70 CURVE SMOOTH"
);
}
);
width = 547;
}
);
leftKerningGroup = "el-cy";
rightKerningGroup = "tse-cy";
unicode = 0434;
},
{
glyphname = "zhe-cy";
lastChange = "2014-11-10 22:19:38 +0100";
layers = (
{
layerId = "89F00A14-383C-41A8-AF30-A12CE933D7AF";
name = "Regular Extended Italic";
paths = (
{
closed = 1;
nodes = (
"342 0 LINE",
"429 525 LINE",
"516 530 LINE",
"430 0 LINE"
);
},
{
closed = 1;
nodes = (
"239 325 LINE",
"633 325 LINE",
"623 250 LINE",
"228 250 LINE"
);
},
{
closed = 1;
nodes = (
"813 457 LINE",
"803 461 OFFCURVE",
"794 462 OFFCURVE",
"784 462 CURVE SMOOTH",
"705 462 OFFCURVE",
"642 310 OFFCURVE",
"641 166 CURVE SMOOTH",
"642 96 OFFCURVE",
"662 64 OFFCURVE",
"701 64 CURVE SMOOTH",
"725 64 OFFCURVE",
"757 76 OFFCURVE",
"797 100 CURVE",
"823 53 LINE",
"763 11 OFFCURVE",
"710 -10 OFFCURVE",
"666 -10 CURVE SMOOTH",
"599 -10 OFFCURVE",
"557 42 OFFCURVE",
"557 154 CURVE SMOOTH",
"557 374 OFFCURVE",
"657 540 OFFCURVE",
"802 540 CURVE SMOOTH",
"831 540 OFFCURVE",
"862 533 OFFCURVE",
"895 519 CURVE",
"872 390 LINE",
"815 390 LINE"
);
},
{
closed = 1;
nodes = (
"52 73 LINE",
"62 69 OFFCURVE",
"71 68 OFFCURVE",
"80 68 CURVE SMOOTH",
"160 68 OFFCURVE",
"223 220 OFFCURVE",
"223 364 CURVE SMOOTH",
"223 434 OFFCURVE",
"203 466 OFFCURVE",
"164 466 CURVE SMOOTH",
"139 466 OFFCURVE",
"107 454 OFFCURVE",
"68 430 CURVE",
"42 477 LINE",
"101 519 OFFCURVE",
"155 540 OFFCURVE",
"198 540 CURVE SMOOTH",
"266 540 OFFCURVE",
"308 488 OFFCURVE",
"308 376 CURVE SMOOTH",
"308 156 OFFCURVE",
"208 -10 OFFCURVE",
"63 -10 CURVE SMOOTH",
"34 -10 OFFCURVE",
"2 -3 OFFCURVE",
"-30 11 CURVE",
"-7 140 LINE",
"50 140 LINE"
);
}
);
width = 864.155;
}
);
leftKerningGroup = x;
rightKerningGroup = x;
unicode = 0436;
},
{
glyphname = "ze-cy";
lastChange = "2014-11-10 22:19:38 +0100";
layers = (
{
layerId = "89F00A14-383C-41A8-AF30-A12CE933D7AF";
name = "Regular Extended Italic";
paths = (
{
closed = 1;
nodes = (
"125 315 LINE",
"114 245 LINE",
"180 245 LINE SMOOTH",
"256 245 OFFCURVE",
"300 219 OFFCURVE",
"300 168 CURVE SMOOTH",
"300 100 OFFCURVE",
"236 70 OFFCURVE",
"162 70 CURVE SMOOTH",
"117 70 OFFCURVE",
"68 81 OFFCURVE",
"29 102 CURVE",
"-5 34 LINE",
"34 8 OFFCURVE",
"94 -6 OFFCURVE",
"155 -6 CURVE SMOOTH",
"275 -6 OFFCURVE",
"402 48 OFFCURVE",
"402 178 CURVE SMOOTH",
"402 229 OFFCURVE",
"364 266 OFFCURVE",
"294 280 CURVE",
"378 298 OFFCURVE",
"425 350 OFFCURVE",
"425 426 CURVE SMOOTH",
"425 492 OFFCURVE",
"362 539 OFFCURVE",
"258 539 CURVE SMOOTH",
"206 539 OFFCURVE",
"145 528 OFFCURVE",
"76 501 CURVE",
"68 380 LINE",
"125 380 LINE",
"141 449 LINE",
"168 459 OFFCURVE",
"200 465 OFFCURVE",
"232 465 CURVE SMOOTH",
"282 465 OFFCURVE",
"326 448 OFFCURVE",
"326 409 CURVE SMOOTH",
"326 341 OFFCURVE",
"273 315 OFFCURVE",
"194 315 CURVE SMOOTH"
);
}
);
width = 463;
}
);
unicode = 0437;
},
{
glyphname = "ii-cy";
lastChange = "2014-11-10 22:19:38 +0100";
layers = (
{
layerId = "89F00A14-383C-41A8-AF30-A12CE933D7AF";
name = "Regular Extended Italic";
paths = (
{
closed = 1;
nodes = (
"391 0 LINE",
"575 10 LINE",
"584 65 LINE",
"498 80 LINE",
"570 530 LINE",
"475 530 LINE",
"445 350 LINE",
"445 350 OFFCURVE",
"365 75 OFFCURVE",
"232 75 CURVE SMOOTH",
"192 75 OFFCURVE",
"180 103 OFFCURVE",
"180 141 CURVE SMOOTH",
"180 155 OFFCURVE",
"182 169 OFFCURVE",
"184 185 CURVE SMOOTH",
"239 530 LINE",
"56 525 LINE",
"47 470 LINE",
"132 450 LINE",
"86 170 LINE SMOOTH",
"83 149 OFFCURVE",
"81 130 OFFCURVE",
"81 112 CURVE SMOOTH",
"81 38 OFFCURVE",
"111 -10 OFFCURVE",
"192 -10 CURVE SMOOTH",
"343 -10 OFFCURVE",
"427 182 OFFCURVE",
"432 194 CURVE"
);
}
);
width = 636;
}
);
leftKerningGroup = n;
unicode = 0438;
},
{
glyphname = "ka-cy";
lastChange = "2014-11-10 22:19:38 +0100";
layers = (
{
layerId = "89F00A14-383C-41A8-AF30-A12CE933D7AF";
name = "Regular Extended Italic";
paths = (
{
closed = 1;
nodes = (
"244 530 LINE",
"61 525 LINE",
"52 470 LINE",
"137 450 LINE",
"65 0 LINE",
"160 0 LINE",
"200 255 LINE",
"285 255 LINE",
"385 0 LINE",
"523 0 LINE",
"533 55 LINE",
"452 80 LINE",
"360 300 LINE",
"488 457 LINE",
"563 470 LINE",
"573 530 LINE",
"358 525 LINE",
"350 470 LINE",
"393 459 LINE",
"295 329 LINE",
"211 329 LINE"
);
}
);
width = 551;
}
);
leftKerningGroup = n;
rightKerningGroup = k;
unicode = 043A;
},
{
glyphname = "el-cy";
lastChange = "2014-11-10 22:19:38 +0100";
layers = (
{
layerId = "89F00A14-383C-41A8-AF30-A12CE933D7AF";
name = "Regular Extended Italic";
paths = (
{
closed = 1;
nodes = (
"100 530 LINE",
"89 470 LINE",
"184 450 LINE",
"396 450 LINE",
"410 530 LINE"
);
},
{
closed = 1;
nodes = (
"319 0 LINE",
"489 0 LINE",
"500 55 LINE",
"429 80 LINE",
"503 530 LINE",
"405 530 LINE"
);
},
{
closed = 1;
nodes = (
"184 450 LINE",
"171 387 OFFCURVE",
"159 334 OFFCURVE",
"142 265 CURVE SMOOTH",
"108 136 OFFCURVE",
"68 88 OFFCURVE",
"4 88 CURVE SMOOTH",
"-6 88 OFFCURVE",
"-14 89 OFFCURVE",
"-23 91 CURVE",
"-47 -2 LINE",
"-29 -6 OFFCURVE",
"-9 -10 OFFCURVE",
"16 -10 CURVE SMOOTH",
"121 -10 OFFCURVE",
"174 87 OFFCURVE",
"215 258 CURVE SMOOTH",
"231 325 OFFCURVE",
"244 379 OFFCURVE",
"258 450 CURVE"
);
}
);
width = 553;
}
);
leftKerningGroup = "el-cy";
unicode = 043B;
},
{
glyphname = "em-cy";
lastChange = "2014-11-10 22:19:38 +0100";
layers = (
{
layerId = "89F00A14-383C-41A8-AF30-A12CE933D7AF";
name = "Regular Extended Italic";
paths = (
{
closed = 1;
nodes = (
"744 530 LINE",
"605 525 LINE",
"344 70 LINE",
"404 87 LINE",
"299 530 LINE",
"89 525 LINE",
"79 470 LINE",
"174 450 LINE",
"233 405 LINE",
"330 -5 LINE",
"380 0 LINE",
"635 427 LINE",
"564 0 LINE",
"739 0 LINE",
"748 55 LINE",
"669 80 LINE"
);
},
{
closed = 1;
nodes = (
"174 450 LINE",
"129 218 OFFCURVE",
"114 88 OFFCURVE",
"18 88 CURVE SMOOTH",
"8 88 OFFCURVE",
"-4 89 OFFCURVE",
"-13 91 CURVE",
"-37 -2 LINE",
"-19 -6 OFFCURVE",
"1 -10 OFFCURVE",
"26 -10 CURVE SMOOTH",
"185 -10 OFFCURVE",
"200 225 OFFCURVE",
"248 450 CURVE"
);
}
);
width = 811;
}
);
leftKerningGroup = n;
unicode = 043C;
},
{
glyphname = "en-cy";
lastChange = "2014-11-10 22:19:38 +0100";
layers = (
{
layerId = "89F00A14-383C-41A8-AF30-A12CE933D7AF";
name = "Regular Extended Italic";
paths = (
{
closed = 1;
nodes = (
"569 530 LINE",
"469 525 LINE",
"438 315 LINE",
"209 315 LINE",
"243 530 LINE",
"61 525 LINE",
"52 470 LINE",
"132 450 LINE",
"61 0 LINE",
"159 0 LINE",
"196 240 LINE",
"425 240 LINE",
"388 0 LINE",
"568 10 LINE",
"577 65 LINE",
"497 80 LINE"
);
}
);
width = 629;
}
);
leftKerningGroup = n;
unicode = 043D;
},
{
glyphname = "er-cy";
lastChange = "2014-11-10 22:19:38 +0100";
layers = (
{
layerId = "89F00A14-383C-41A8-AF30-A12CE933D7AF";
name = "Regular Extended Italic";
paths = (
{
closed = 1;
nodes = (
"237 530 LINE",
"56 525 LINE",
"47 470 LINE",
"129 450 LINE",
"20 -230 LINE",
"194 -230 LINE",
"204 -175 LINE",
"128 -150 LINE",
"154 14 LINE",
"176 2 OFFCURVE",
"210 -10 OFFCURVE",
"252 -10 CURVE SMOOTH",
"410 -10 OFFCURVE",
"554 132 OFFCURVE",
"554 360 CURVE SMOOTH",
"554 455 OFFCURVE",
"510 540 OFFCURVE",
"422 540 CURVE SMOOTH",
"276 540 OFFCURVE",
"201 357 OFFCURVE",
"197 346 CURVE"
);
},
{
closed = 1;
nodes = (
"185 185 LINE",
"185 185 OFFCURVE",
"262 455 OFFCURVE",
"387 455 CURVE SMOOTH",
"435 455 OFFCURVE",
"454 401 OFFCURVE",
"454 345 CURVE SMOOTH",
"454 153 OFFCURVE",
"340 65 OFFCURVE",
"257 65 CURVE SMOOTH",
"207 65 OFFCURVE",
"165 80 OFFCURVE",
"165 80 CURVE"
);
}
);
width = 590;
}
);
leftKerningGroup = p;
rightKerningGroup = o;
unicode = 0440;
},
{
glyphname = "ef-cy";
lastChange = "2014-11-10 22:19:38 +0100";
layers = (
{
layerId = "89F00A14-383C-41A8-AF30-A12CE933D7AF";
name = "Regular Extended Italic";
paths = (
{
closed = 1;
nodes = (
"187 540 OFFCURVE",
"19 433 OFFCURVE",
"19 214 CURVE SMOOTH",
"19 72 OFFCURVE",
"126 0 OFFCURVE",
"294 0 CURVE SMOOTH",
"503 0 OFFCURVE",
"666 124 OFFCURVE",
"666 327 CURVE SMOOTH",
"666 463 OFFCURVE",
"563 540 OFFCURVE",
"395 540 CURVE SMOOTH"
);
},
{
closed = 1;
nodes = (
"482 462 OFFCURVE",
"559 430 OFFCURVE",
"559 318 CURVE SMOOTH",
"559 148 OFFCURVE",
"447 80 OFFCURVE",
"312 80 CURVE SMOOTH",
"184 80 OFFCURVE",
"126 135 OFFCURVE",
"126 230 CURVE SMOOTH",
"126 407 OFFCURVE",
"242 462 OFFCURVE",
"377 462 CURVE SMOOTH"
);
},
{
closed = 1;
nodes = (
"466 770 LINE",
"290 770 LINE",
"282 710 LINE",
"364 692 LINE",
"230 -152 LINE",
"142 -175 LINE",
"133 -230 LINE",
"393 -230 LINE",
"402 -175 LINE",
"320 -152 LINE"
);
}
);
width = 684;
}
);
leftKerningGroup = o;
leftMetricsKey = o;
rightKerningGroup = o;
rightMetricsKey = o;
unicode = 0444;
},
{
glyphname = "che-cy";
lastChange = "2014-11-10 22:19:38 +0100";
layers = (
{
layerId = "89F00A14-383C-41A8-AF30-A12CE933D7AF";
name = "Regular Extended Italic";
paths = (
{
closed = 1;
nodes = (
"413 80 LINE",
"483 530 LINE",
"391 525 LINE",
"361 357 LINE",
"341 324 OFFCURVE",
"269 265 OFFCURVE",
"209 265 CURVE SMOOTH",
"154 265 OFFCURVE",
"138 300 OFFCURVE",
"150 370 CURVE SMOOTH",
"177 530 LINE",
"11 525 LINE",
"3 470 LINE",
"66 451 LINE",
"51 360 LINE SMOOTH",
"33 250 OFFCURVE",
"60 180 OFFCURVE",
"160 180 CURVE SMOOTH",
"255 180 OFFCURVE",
"329 250 OFFCURVE",
"351 273 CURVE",
"304 0 LINE",
"484 10 LINE",
"492 65 LINE"
);
}
);
width = 549;
}
);
unicode = 0447;
},
{
glyphname = "tse-cy";
lastChange = "2014-11-10 22:19:38 +0100";
layers = (
{
layerId = "89F00A14-383C-41A8-AF30-A12CE933D7AF";
name = "Regular Extended Italic";
paths = (
{
closed = 1;
nodes = (
"570 530 LINE",
"475 530 LINE",
"445 350 LINE",
"445 350 OFFCURVE",
"365 75 OFFCURVE",
"232 75 CURVE SMOOTH",
"192 75 OFFCURVE",
"180 103 OFFCURVE",
"180 141 CURVE SMOOTH",
"180 168 OFFCURVE",
"187 216 OFFCURVE",
"239 530 CURVE",
"56 525 LINE",
"47 470 LINE",
"132 450 LINE",
"87 190 OFFCURVE",
"81 152 OFFCURVE",
"81 112 CURVE SMOOTH",
"81 38 OFFCURVE",
"111 -10 OFFCURVE",
"192 -10 CURVE SMOOTH",
"304 -10 OFFCURVE",
"387 102 OFFCURVE",
"432 194 CURVE",
"423 148 OFFCURVE",
"418 110 OFFCURVE",
"418 80 CURVE SMOOTH",
"418 22 OFFCURVE",
"436 -5 OFFCURVE",
"474 -5 CURVE SMOOTH",
"495 -5 OFFCURVE",
"527 6 OFFCURVE",
"565 26 CURVE",
"466 -160 LINE",
"571 -160 LINE",
"625 65 LINE",
"613 83 LINE",
"496 69 LINE"
);
}
);
width = 673;
}
);
leftKerningGroup = n;
rightKerningGroup = "tse-cy";
unicode = 0446;
},
{
glyphname = "sha-cy";
lastChange = "2014-11-10 22:19:38 +0100";
layers = (
{
layerId = "89F00A14-383C-41A8-AF30-A12CE933D7AF";
name = "Regular Extended Italic";
paths = (
{
closed = 1;
nodes = (
"425 350 LINE",
"425 350 OFFCURVE",
"345 75 OFFCURVE",
"232 75 CURVE SMOOTH",
"192 75 OFFCURVE",
"180 103 OFFCURVE",
"180 141 CURVE SMOOTH",
"180 168 OFFCURVE",
"187 216 OFFCURVE",
"239 530 CURVE",
"56 525 LINE",
"47 470 LINE",
"132 450 LINE",
"87 190 OFFCURVE",
"81 152 OFFCURVE",
"81 112 CURVE SMOOTH",
"81 38 OFFCURVE",
"111 -10 OFFCURVE",
"192 -10 CURVE SMOOTH",
"323 -10 OFFCURVE",
"407 182 OFFCURVE",
"412 194 CURVE"
);
},
{
closed = 1;
nodes = (
"680 0 LINE",
"864 10 LINE",
"873 65 LINE",
"787 80 LINE",
"859 530 LINE",
"764 530 LINE",
"734 350 LINE",
"734 350 OFFCURVE",
"654 75 OFFCURVE",
"541 75 CURVE SMOOTH",
"501 75 OFFCURVE",
"489 103 OFFCURVE",
"489 141 CURVE SMOOTH",
"489 168 OFFCURVE",
"496 216 OFFCURVE",
"548 530 CURVE",
"454 525 LINE",
"396 190 OFFCURVE",
"390 172 OFFCURVE",
"390 132 CURVE SMOOTH",
"390 48 OFFCURVE",
"425 -10 OFFCURVE",
"501 -10 CURVE SMOOTH",
"632 -10 OFFCURVE",
"716 182 OFFCURVE",
"721 194 CURVE"
);
}
);
width = 925;
}
);
leftKerningGroup = u;
unicode = 0448;
},
{
glyphname = "shcha-cy";
lastChange = "2014-11-10 22:19:38 +0100";
layers = (
{
layerId = "89F00A14-383C-41A8-AF30-A12CE933D7AF";
name = "Regular Extended Italic";
paths = (
{
closed = 1;
nodes = (
"815 6 OFFCURVE",
"784 -4 OFFCURVE",
"760 -4 CURVE SMOOTH",
"724 -4 OFFCURVE",
"706 20 OFFCURVE",
"706 77 CURVE SMOOTH",
"706 107 OFFCURVE",
"711 146 OFFCURVE",
"721 194 CURVE",
"700 143 OFFCURVE",
"632 -10 OFFCURVE",
"501 -10 CURVE SMOOTH",
"425 -10 OFFCURVE",
"390 48 OFFCURVE",
"390 132 CURVE SMOOTH",
"391 151 LINE",
"357 91 OFFCURVE",
"287 -10 OFFCURVE",
"192 -10 CURVE SMOOTH",
"111 -10 OFFCURVE",
"81 38 OFFCURVE",
"81 112 CURVE SMOOTH",
"81 152 OFFCURVE",
"87 190 OFFCURVE",
"132 450 CURVE",
"47 470 LINE",
"56 525 LINE",
"239 530 LINE",
"187 216 OFFCURVE",
"180 168 OFFCURVE",
"180 141 CURVE SMOOTH",
"180 103 OFFCURVE",
"192 75 OFFCURVE",
"232 75 CURVE SMOOTH",
"331 75 OFFCURVE",
"405 286 OFFCURVE",
"421 338 CURVE",
"454 525 LINE",
"548 530 LINE",
"496 216 OFFCURVE",
"489 168 OFFCURVE",
"489 141 CURVE SMOOTH",
"489 103 OFFCURVE",
"501 75 OFFCURVE",
"541 75 CURVE SMOOTH",
"654 75 OFFCURVE",
"734 350 OFFCURVE",
"734 350 CURVE",
"764 530 LINE",
"859 530 LINE",
"784 68 LINE",
"901 83 LINE",
"913 64 LINE",
"859 -160 LINE",
"754 -160 LINE",
"853 25 LINE"
);
}
);
width = 959;
}
);
leftKerningGroup = n;
rightKerningGroup = "tse-cy";
unicode = 0449;
},
{
glyphname = "dzhe-cy";
lastChange = "2014-11-10 22:19:38 +0100";
layers = (
{
components = (
{
name = u;
transform = "{1, 0, 0, 1, 0, 0}";
}
);
layerId = "89F00A14-383C-41A8-AF30-A12CE933D7AF";
name = "Regular Extended Italic";
paths = (
{
closed = 1;
nodes = (
"286 -205 LINE",
"325 -45 LINE",
"261 -45 LINE",
"187 -205 LINE"
);
}
);
width = 636;
}
);
leftKerningGroup = u;
unicode = 045F;
},
{
glyphname = "ia-cy";
lastChange = "2014-11-10 22:19:38 +0100";
layers = (
{
layerId = "89F00A14-383C-41A8-AF30-A12CE933D7AF";
name = "Regular Extended Italic";
paths = (
{
closed = 1;
nodes = (
"358 209 LINE",
"332 202 OFFCURVE",
"302 197 OFFCURVE",
"273 197 CURVE SMOOTH",
"186 197 OFFCURVE",
"99 235 OFFCURVE",
"99 334 CURVE SMOOTH",
"99 450 OFFCURVE",
"199 539 OFFCURVE",
"348 539 CURVE SMOOTH",
"396 539 OFFCURVE",
"448 530 OFFCURVE",
"500 513 CURVE",
"426 79 LINE",
"511 65 LINE",
"502 10 LINE",
"317 0 LINE",
"391 454 LINE",
"314 481 OFFCURVE",
"193 445 OFFCURVE",
"193 343 CURVE SMOOTH",
"193 285 OFFCURVE",
"233 268 OFFCURVE",
"282 268 CURVE SMOOTH",
"312 268 OFFCURVE",
"343 272 OFFCURVE",
"370 279 CURVE"
);
},
{
closed = 1;
nodes = (
"227 132 OFFCURVE",
"165 43 OFFCURVE",
"98 0 CURVE",
"-37 0 LINE",
"-28 55 LINE",
"45 79 LINE",
"114 125 OFFCURVE",
"144 157 OFFCURVE",
"185 226 CURVE",
"263 204 LINE"
);
}
);
width = 558;
}
);
unicode = 044F;
},
{
glyphname = "softsign-cy";
lastChange = "2014-11-10 22:19:38 +0100";
layers = (
{
guideLines = (
{
position = "{413, -10}";
}
);
layerId = "89F00A14-383C-41A8-AF30-A12CE933D7AF";
name = "Regular Extended Italic";
paths = (
{
closed = 1;
nodes = (
"95 190 LINE SMOOTH",
"72 55 OFFCURVE",
"125 -10 OFFCURVE",
"235 -10 CURVE SMOOTH",
"355 -10 OFFCURVE",
"471 71 OFFCURVE",
"471 213 CURVE SMOOTH",
"471 293 OFFCURVE",
"420 343 OFFCURVE",
"350 343 CURVE SMOOTH",
"280 343 OFFCURVE",
"223 300 OFFCURVE",
"197 272 CURVE",
"214 327 LINE",
"248 530 LINE",
"67 530 LINE",
"59 470 LINE",
"139 450 LINE"
);
},
{
closed = 1;
nodes = (
"204 65 OFFCURVE",
"175 107 OFFCURVE",
"190 192 CURVE",
"206 214 OFFCURVE",
"249 268 OFFCURVE",
"309 268 CURVE SMOOTH",
"349 268 OFFCURVE",
"367 242 OFFCURVE",
"367 207 CURVE SMOOTH",
"367 132 OFFCURVE",
"324 65 OFFCURVE",
"259 65 CURVE SMOOTH"
);
}
);
width = 502;
}
);
leftKerningGroup = n;
rightKerningGroup = "softsign-cy";
unicode = 044C;
},
{
glyphname = "hardsign-cy";
lastChange = "2014-11-10 22:19:38 +0100";
layers = (
{
layerId = "89F00A14-383C-41A8-AF30-A12CE933D7AF";
name = "Regular Extended Italic";
paths = (
{
closed = 1;
nodes = (
"229 430 OFFCURVE",
"107 249 OFFCURVE",
"107 130 CURVE SMOOTH",
"107 50 OFFCURVE",
"157 -10 OFFCURVE",
"252 -10 CURVE SMOOTH",
"372 -10 OFFCURVE",
"502 90 OFFCURVE",
"502 240 CURVE SMOOTH",
"502 310 OFFCURVE",
"457 345 OFFCURVE",
"397 345 CURVE SMOOTH",
"327 345 OFFCURVE",
"267 303 OFFCURVE",
"232 266 CURVE",
"259 324 OFFCURVE",
"297 391 OFFCURVE",
"345 465 CURVE",
"360 530 LINE",
"297 530 LINE"
);
},
{
closed = 1;
nodes = (
"297 530 LINE",
"52 530 LINE",
"37 365 LINE",
"107 365 LINE",
"132 450 LINE",
"250 450 LINE"
);
},
{
closed = 1;
nodes = (
"225 207 OFFCURVE",
"287 265 OFFCURVE",
"347 265 CURVE SMOOTH",
"377 265 OFFCURVE",
"402 244 OFFCURVE",
"402 214 CURVE SMOOTH",
"402 124 OFFCURVE",
"337 65 OFFCURVE",
"267 65 CURVE SMOOTH",
"232 65 OFFCURVE",
"207 85 OFFCURVE",
"207 130 CURVE SMOOTH",
"207 150 OFFCURVE",
"212 168 OFFCURVE",
"217 183 CURVE"
);
}
);
width = 529;
}
);
leftKerningGroup = "te-cy";
rightKerningGroup = "softsign-cy";
unicode = 044A;
},
{
glyphname = "yeru-cy";
lastChange = "2014-11-10 22:19:38 +0100";
layers = (
{
layerId = "89F00A14-383C-41A8-AF30-A12CE933D7AF";
name = "Regular Extended Italic";
paths = (
{
closed = 1;
nodes = (
"596 530 LINE",
"691 530 LINE",
"619 80 LINE",
"704 65 LINE",
"695 10 LINE",
"511 0 LINE"
);
},
{
closed = 1;
nodes = (
"95 190 LINE SMOOTH",
"72 55 OFFCURVE",
"125 -10 OFFCURVE",
"235 -10 CURVE SMOOTH",
"355 -10 OFFCURVE",
"471 71 OFFCURVE",
"471 213 CURVE SMOOTH",
"471 293 OFFCURVE",
"420 343 OFFCURVE",
"350 343 CURVE SMOOTH",
"280 343 OFFCURVE",
"223 300 OFFCURVE",
"197 272 CURVE",
"214 327 LINE",
"248 530 LINE",
"67 530 LINE",
"59 470 LINE",
"139 450 LINE"
);
},
{
closed = 1;
nodes = (
"204 65 OFFCURVE",
"175 107 OFFCURVE",
"190 192 CURVE",
"206 214 OFFCURVE",
"249 268 OFFCURVE",
"309 268 CURVE SMOOTH",
"349 268 OFFCURVE",
"367 242 OFFCURVE",
"367 207 CURVE SMOOTH",
"367 132 OFFCURVE",
"324 65 OFFCURVE",
"259 65 CURVE SMOOTH"
);
}
);
width = 756;
}
);
leftKerningGroup = n;
rightKerningGroup = a;
unicode = 044B;
},
{
glyphname = "lje-cy";
lastChange = "2014-11-10 22:19:38 +0100";
layers = (
{
layerId = "89F00A14-383C-41A8-AF30-A12CE933D7AF";
name = "Regular Extended Italic";
paths = (
{
closed = 1;
nodes = (
"100 530 LINE",
"89 470 LINE",
"184 450 LINE",
"386 450 LINE",
"400 530 LINE"
);
},
{
closed = 1;
nodes = (
"184 450 LINE",
"171 387 OFFCURVE",
"159 334 OFFCURVE",
"142 265 CURVE SMOOTH",
"108 136 OFFCURVE",
"68 88 OFFCURVE",
"4 88 CURVE SMOOTH",
"-6 88 OFFCURVE",
"-14 89 OFFCURVE",
"-23 91 CURVE",
"-47 -2 LINE",
"-29 -6 OFFCURVE",
"-9 -10 OFFCURVE",
"16 -10 CURVE SMOOTH",
"121 -10 OFFCURVE",
"174 87 OFFCURVE",
"215 258 CURVE SMOOTH",
"231 325 OFFCURVE",
"244 379 OFFCURVE",
"258 450 CURVE"
);
},
{
closed = 1;
nodes = (
"339 190 LINE SMOOTH",
"318 56 OFFCURVE",
"369 -10 OFFCURVE",
"479 -10 CURVE SMOOTH",
"599 -10 OFFCURVE",
"715 71 OFFCURVE",
"715 213 CURVE SMOOTH",
"715 293 OFFCURVE",
"664 343 OFFCURVE",
"594 343 CURVE SMOOTH",
"524 343 OFFCURVE",
"467 300 OFFCURVE",
"441 272 CURVE",
"458 327 LINE",
"492 530 LINE",
"393 530 LINE"
);
},
{
closed = 1;
nodes = (
"448 65 OFFCURVE",
"419 107 OFFCURVE",
"434 192 CURVE",
"450 214 OFFCURVE",
"493 268 OFFCURVE",
"553 268 CURVE SMOOTH",
"593 268 OFFCURVE",
"611 242 OFFCURVE",
"611 207 CURVE SMOOTH",
"611 132 OFFCURVE",
"568 65 OFFCURVE",
"503 65 CURVE SMOOTH"
);
}
);
width = 760;
}
);
leftKerningGroup = "el-cy";
rightKerningGroup = "softsign-cy";
rightMetricsKey = "softsign-cy";
unicode = 0459;
},
{
glyphname = "nje-cy";
lastChange = "2014-11-10 22:19:38 +0100";
layers = (
{
layerId = "89F00A14-383C-41A8-AF30-A12CE933D7AF";
name = "Regular Extended Italic";
paths = (
{
closed = 1;
nodes = (
"418 315 LINE",
"209 315 LINE",
"243 530 LINE",
"61 525 LINE",
"52 470 LINE",
"132 450 LINE",
"61 0 LINE",
"159 0 LINE",
"196 240 LINE",
"405 240 LINE"
);
},
{
closed = 1;
nodes = (
"395 190 LINE SMOOTH",
"374 56 OFFCURVE",
"425 -10 OFFCURVE",
"535 -10 CURVE SMOOTH",
"655 -10 OFFCURVE",
"771 71 OFFCURVE",
"771 213 CURVE SMOOTH",
"771 293 OFFCURVE",
"720 343 OFFCURVE",
"650 343 CURVE SMOOTH",
"580 343 OFFCURVE",
"523 300 OFFCURVE",
"497 272 CURVE",
"514 327 LINE",
"548 530 LINE",
"449 530 LINE"
);
},
{
closed = 1;
nodes = (
"504 65 OFFCURVE",
"475 107 OFFCURVE",
"490 192 CURVE",
"506 214 OFFCURVE",
"549 268 OFFCURVE",
"609 268 CURVE SMOOTH",
"649 268 OFFCURVE",
"667 242 OFFCURVE",
"667 207 CURVE SMOOTH",
"667 132 OFFCURVE",
"624 65 OFFCURVE",
"559 65 CURVE SMOOTH"
);
}
);
width = 802;
}
);
leftKerningGroup = n;
rightKerningGroup = "softsign-cy";
rightMetricsKey = "softsign-cy";
unicode = 045A;
},
{
glyphname = "e-cy";
lastChange = "2014-11-10 22:19:38 +0100";
layers = (
{
layerId = "89F00A14-383C-41A8-AF30-A12CE933D7AF";
name = "Regular Extended Italic";
paths = (
{
closed = 1;
nodes = (
"350 235 LINE",
"362 310 LINE",
"135 310 LINE",
"127 235 LINE"
);
},
{
closed = 1;
nodes = (
"479 375 LINE",
"498 500 LINE",
"498 500 OFFCURVE",
"427 540 OFFCURVE",
"339 540 CURVE SMOOTH",
"160 540 OFFCURVE",
"35 390 OFFCURVE",
"35 196 CURVE SMOOTH",
"35 67 OFFCURVE",
"102 -10 OFFCURVE",
"240 -10 CURVE SMOOTH",
"347 -10 OFFCURVE",
"447 70 OFFCURVE",
"447 70 CURVE",
"423 130 LINE",
"423 130 OFFCURVE",
"355 70 OFFCURVE",
"262 70 CURVE SMOOTH",
"184 70 OFFCURVE",
"140 119 OFFCURVE",
"140 216 CURVE SMOOTH",
"140 380 OFFCURVE",
"220 460 OFFCURVE",
"322 460 CURVE SMOOTH",
"370 460 OFFCURVE",
"408 450 OFFCURVE",
"408 450 CURVE",
"415 375 LINE"
);
}
);
width = 503;
}
);
leftKerningGroup = o;
unicode = 0454;
},
{
glyphname = "ereversed-cy";
lastChange = "2014-11-10 22:19:38 +0100";
layers = (
{
layerId = "89F00A14-383C-41A8-AF30-A12CE933D7AF";
name = "Regular Extended Italic";
paths = (
{
closed = 1;
nodes = (
"385 310 LINE",
"162 310 LINE",
"147 235 LINE",
"373 235 LINE"
);
},
{
closed = 1;
nodes = (
"68 375 LINE",
"132 375 LINE",
"158 450 LINE",
"158 450 OFFCURVE",
"191 460 OFFCURVE",
"245 460 CURVE SMOOTH",
"322 460 OFFCURVE",
"367 411 OFFCURVE",
"367 315 CURVE SMOOTH",
"367 150 OFFCURVE",
"290 70 OFFCURVE",
"188 70 CURVE SMOOTH",
"122 70 OFFCURVE",
"79 97 OFFCURVE",
"39 128 CURVE",
"-7 66 LINE",
"-7 66 OFFCURVE",
"72 -10 OFFCURVE",
"170 -10 CURVE SMOOTH",
"349 -10 OFFCURVE",
"472 140 OFFCURVE",
"472 335 CURVE SMOOTH",
"472 463 OFFCURVE",
"404 540 OFFCURVE",
"267 540 CURVE SMOOTH",
"170 540 OFFCURVE",
"83 500 OFFCURVE",
"83 500 CURVE"
);
}
);
width = 506;
}
);
rightKerningGroup = o;
unicode = 044D;
},
{
glyphname = "yi-cy";
lastChange = "2014-11-10 22:19:38 +0100";
layers = (
{
components = (
{
name = dotlessi;
transform = "{1, 0, 0, 1, 0, 0}";
}
);
layerId = "89F00A14-383C-41A8-AF30-A12CE933D7AF";
name = "Regular Extended Italic";
paths = (
{
closed = 1;
nodes = (
"253 657 OFFCURVE",
"270 640 OFFCURVE",
"298 640 CURVE SMOOTH",
"335 640 OFFCURVE",
"363 674 OFFCURVE",
"363 714 CURVE SMOOTH",
"363 743 OFFCURVE",
"346 760 OFFCURVE",
"317 760 CURVE SMOOTH",
"278 760 OFFCURVE",
"253 725 OFFCURVE",
"253 685 CURVE SMOOTH"
);
},
{
closed = 1;
nodes = (
"62 657 OFFCURVE",
"79 640 OFFCURVE",
"107 640 CURVE SMOOTH",
"144 640 OFFCURVE",
"172 674 OFFCURVE",
"172 714 CURVE SMOOTH",
"172 743 OFFCURVE",
"155 760 OFFCURVE",
"126 760 CURVE SMOOTH",
"87 760 OFFCURVE",
"62 725 OFFCURVE",
"62 685 CURVE SMOOTH"
);
}
);
width = 313;
}
);
leftKerningGroup = i;
rightKerningGroup = i;
unicode = 0457;
},
{
glyphname = "tshe-cy";
lastChange = "2014-11-10 22:19:38 +0100";
layers = (
{
layerId = "89F00A14-383C-41A8-AF30-A12CE933D7AF";
name = "Regular Extended Italic";
paths = (
{
closed = 1;
nodes = (
"426 570 LINE",
"435 630 LINE",
"74 630 LINE",
"65 570 LINE"
);
},
{
closed = 1;
nodes = (
"277 770 LINE",
"94 765 LINE",
"85 710 LINE",
"169 690 LINE",
"59 0 LINE",
"154 0 LINE",
"184 160 LINE",
"184 160 OFFCURVE",
"263 435 OFFCURVE",
"393 435 CURVE SMOOTH",
"433 435 OFFCURVE",
"445 406 OFFCURVE",
"445 369 CURVE SMOOTH",
"445 355 OFFCURVE",
"444 340 OFFCURVE",
"441 325 CURVE SMOOTH",
"387 0 LINE",
"570 10 LINE",
"579 65 LINE",
"495 80 LINE",
"537 340 LINE SMOOTH",
"540 361 OFFCURVE",
"542 381 OFFCURVE",
"542 399 CURVE SMOOTH",
"542 471 OFFCURVE",
"513 520 OFFCURVE",
"433 520 CURVE SMOOTH",
"281 520 OFFCURVE",
"201 327 OFFCURVE",
"197 316 CURVE"
);
}
);
width = 626;
}
);
rightKerningGroup = n;
unicode = 045B;
},
{
glyphname = "iu-cy";
lastChange = "2014-11-10 22:19:38 +0100";
layers = (
{
components = (
{
name = o;
transform = "{1, 0, 0, 1, 260, 0}";
}
);
layerId = "89F00A14-383C-41A8-AF30-A12CE933D7AF";
name = "Regular Extended Italic";
paths = (
{
closed = 1;
nodes = (
"137 450 LINE",
"52 470 LINE",
"62 525 LINE",
"245 530 LINE",
"160 0 LINE",
"65 0 LINE"
);
},
{
closed = 1;
nodes = (
"187 310 LINE",
"349 310 LINE",
"337 235 LINE",
"179 235 LINE"
);
}
);
width = 810;
}
);
leftKerningGroup = n;
rightKerningGroup = o;
unicode = 044E;
},
{
glyphname = "dje-cy";
lastChange = "2014-11-10 22:19:38 +0100";
layers = (
{
layerId = "89F00A14-383C-41A8-AF30-A12CE933D7AF";
name = "Regular Extended Italic";
paths = (
{
closed = 1;
nodes = (
"426 570 LINE",
"435 630 LINE",
"74 630 LINE",
"65 570 LINE"
);
},
{
closed = 1;
nodes = (
"277 770 LINE",
"94 765 LINE",
"85 710 LINE",
"169 690 LINE",
"59 0 LINE",
"154 0 LINE",
"184 160 LINE",
"184 160 OFFCURVE",
"263 435 OFFCURVE",
"393 435 CURVE SMOOTH",
"433 435 OFFCURVE",
"445 406 OFFCURVE",
"445 369 CURVE SMOOTH",
"445 342 OFFCURVE",
"439 270 OFFCURVE",
"415 146 CURVE SMOOTH",
"359 -144 OFFCURVE",
"332 -155 OFFCURVE",
"272 -155 CURVE SMOOTH",
"237 -155 OFFCURVE",
"212 -150 OFFCURVE",
"212 -150 CURVE",
"192 -215 LINE",
"192 -215 OFFCURVE",
"232 -230 OFFCURVE",
"272 -230 CURVE SMOOTH",
"363 -230 OFFCURVE",
"441 -208 OFFCURVE",
"508 136 CURVE SMOOTH",
"536 279 OFFCURVE",
"542 355 OFFCURVE",
"542 399 CURVE SMOOTH",
"542 471 OFFCURVE",
"513 520 OFFCURVE",
"433 520 CURVE SMOOTH",
"281 520 OFFCURVE",
"201 327 OFFCURVE",
"197 316 CURVE"
);
}
);
width = 600;
}
);
rightKerningGroup = j;
unicode = 0452;
},
{
glyphname = "ustraitstroke-cy";
lastChange = "2014-11-10 22:19:38 +0100";
layers = (
{
layerId = "89F00A14-383C-41A8-AF30-A12CE933D7AF";
name = "Regular Extended Italic";
paths = (
{
closed = 1;
nodes = (
"278 0 LINE",
"180 0 LINE",
"156 -150 LINE",
"68 -175 LINE",
"59 -230 LINE",
"322 -230 LINE",
"331 -175 LINE",
"253 -150 LINE"
);
},
{
closed = 1;
nodes = (
"64 70 LINE",
"53 0 LINE",
"406 0 LINE",
"417 70 LINE"
);
},
{
closed = 1;
nodes = (
"171 530 LINE",
"42 525 LINE",
"32 470 LINE",
"89 455 LINE",
"182 0 LINE",
"275 0 LINE",
"523 460 LINE",
"577 470 LINE",
"588 530 LINE",
"369 525 LINE",
"359 470 LINE",
"424 455 LINE",
"250 97 LINE"
);
}
);
width = 556.469;
}
);
unicode = 04B1;
},
{
glyphname = Delta;
lastChange = "2014-11-10 22:19:38 +0100";
layers = (
{
layerId = "89F00A14-383C-41A8-AF30-A12CE933D7AF";
name = "Regular Extended Italic";
paths = (
{
closed = 1;
nodes = (
"-18 71 LINE",
"-30 0 LINE",
"583 0 LINE",
"595 70 LINE",
"439 720 LINE",
"343 720 LINE"
);
},
{
closed = 1;
nodes = (
"369 607 LINE",
"491 80 LINE",
"79 80 LINE"
);
}
);
width = 640;
}
);
unicode = 0394;
},
{
glyphname = Pi;
lastChange = "2014-11-10 22:19:38 +0100";
layers = (
{
layerId = "89F00A14-383C-41A8-AF30-A12CE933D7AF";
name = "Regular Extended Italic";
paths = (
{
closed = 1;
nodes = (
"644 620 LINE",
"731 640 LINE",
"740 700 LINE",
"306 700 LINE",
"119 695 LINE",
"111 640 LINE",
"193 620 LINE",
"109 80 LINE",
"20 60 LINE",
"10 0 LINE",
"281 0 LINE",
"291 60 LINE",
"208 80 LINE",
"294 620 LINE"
);
},
{
closed = 1;
nodes = (
"561 88 OFFCURVE",
"581 73 OFFCURVE",
"598 73 CURVE SMOOTH",
"626 73 OFFCURVE",
"659 85 OFFCURVE",
"659 85 CURVE",
"674 30 LINE",
"674 30 OFFCURVE",
"615 -10 OFFCURVE",
"552 -10 CURVE SMOOTH",
"489 -10 OFFCURVE",
"452 33 OFFCURVE",
"468 145 CURVE",
"543 620 LINE",
"644 620 LINE",
"569 134 LINE"
);
}
);
width = 711;
}
);
unicode = 03A0;
},
{
glyphname = Omega;
lastChange = "2014-11-10 22:19:38 +0100";
layers = (
{
layerId = "89F00A14-383C-41A8-AF30-A12CE933D7AF";
name = "Regular Extended Italic";
paths = (
{
closed = 1;
nodes = (
"291 65 LINE",
"290 65 OFFCURVE",
"190 116 OFFCURVE",
"190 282 CURVE SMOOTH",
"190 457 OFFCURVE",
"261 625 OFFCURVE",
"441 625 CURVE SMOOTH",
"541 625 OFFCURVE",
"600 554 OFFCURVE",
"600 449 CURVE SMOOTH",
"600 163 OFFCURVE",
"404 65 OFFCURVE",
"404 65 CURVE",
"393 0 LINE",
"643 0 LINE",
"657 85 LINE",
"524 81 LINE",
"524 81 OFFCURVE",
"705 218 OFFCURVE",
"705 454 CURVE SMOOTH",
"705 613 OFFCURVE",
"618 710 OFFCURVE",
"457 710 CURVE SMOOTH",
"219 710 OFFCURVE",
"88 504 OFFCURVE",
"88 298 CURVE SMOOTH",
"88 161 OFFCURVE",
"173 80 OFFCURVE",
"173 80 CURVE",
"43 80 LINE",
"30 0 LINE",
"280 0 LINE"
);
}
);
width = 775;
}
);
unicode = 03A9;
},
{
glyphname = mu;
lastChange = "2014-11-10 22:19:38 +0100";
layers = (
{
layerId = "89F00A14-383C-41A8-AF30-A12CE933D7AF";
name = "Regular Extended Italic";
paths = (
{
closed = 1;
nodes = (
"18 -230 LINE",
"134 450 LINE",
"47 470 LINE",
"57 525 LINE",
"242 530 LINE",
"178 160 OFFCURVE",
"178 150 OFFCURVE",
"178 142 CURVE SMOOTH",
"178 104 OFFCURVE",
"191 75 OFFCURVE",
"231 75 CURVE SMOOTH",
"361 75 OFFCURVE",
"442 350 OFFCURVE",
"442 350 CURVE",
"475 530 LINE",
"570 530 LINE",
"496 80 LINE",
"582 60 LINE",
"572 5 LINE",
"391 0 LINE",
"432 194 LINE",
"427 182 OFFCURVE",
"342 -10 OFFCURVE",
"191 -10 CURVE SMOOTH",
"176 -10 OFFCURVE",
"162 -6 OFFCURVE",
"150 0 CURVE",
"110 -230 LINE"
);
}
);
width = 634;
}
);
unicode = 03BC;
},
{
glyphname = pi;
lastChange = "2014-11-10 22:19:38 +0100";
layers = (
{
layerId = "89F00A14-383C-41A8-AF30-A12CE933D7AF";
name = "Regular Extended Italic";
paths = (
{
closed = 1;
nodes = (
"378 135 LINE",
"375 119 OFFCURVE",
"374 106 OFFCURVE",
"374 93 CURVE SMOOTH",
"374 15 OFFCURVE",
"419 -10 OFFCURVE",
"465 -10 CURVE SMOOTH",
"533 -10 OFFCURVE",
"589 30 OFFCURVE",
"589 30 CURVE",
"572 80 LINE",
"572 80 OFFCURVE",
"539 68 OFFCURVE",
"512 68 CURVE SMOOTH",
"488 68 OFFCURVE",
"471 79 OFFCURVE",
"471 110 CURVE SMOOTH",
"471 116 OFFCURVE",
"472 122 OFFCURVE",
"473 129 CURVE SMOOTH",
"523 455 LINE",
"607 470 LINE",
"617 530 LINE",
"242 530 LINE",
"61 525 LINE",
"53 470 LINE",
"133 450 LINE",
"61 0 LINE",
"156 0 LINE",
"228 450 LINE",
"428 450 LINE"
);
}
);
width = 662;
}
);
unicode = 03C0;
},
{
glyphname = zero;
lastChange = "2014-11-10 22:19:38 +0100";
layers = (
{
layerId = "89F00A14-383C-41A8-AF30-A12CE933D7AF";
name = "Regular Extended Italic";
paths = (
{
closed = 1;
nodes = (
"134 710 OFFCURVE",
"55 420 OFFCURVE",
"55 210 CURVE SMOOTH",
"55 65 OFFCURVE",
"123 -10 OFFCURVE",
"268 -10 CURVE SMOOTH",
"523 -10 OFFCURVE",
"591 290 OFFCURVE",
"591 490 CURVE SMOOTH",
"591 620 OFFCURVE",
"529 710 OFFCURVE",
"384 710 CURVE SMOOTH"
);
},
{
closed = 1;
nodes = (
"459 625 OFFCURVE",
"486 575 OFFCURVE",
"486 480 CURVE SMOOTH",
"486 320 OFFCURVE",
"424 75 OFFCURVE",
"284 75 CURVE SMOOTH",
"189 75 OFFCURVE",
"160 120 OFFCURVE",
"160 220 CURVE SMOOTH",
"160 380 OFFCURVE",
"219 625 OFFCURVE",
"369 625 CURVE SMOOTH"
);
}
);
width = 631;
}
);
unicode = 0030;
},
{
glyphname = one;
lastChange = "2014-11-10 22:19:38 +0100";
layers = (
{
layerId = "89F00A14-383C-41A8-AF30-A12CE933D7AF";
name = "Regular Extended Italic";
paths = (
{
closed = 1;
nodes = (
"25 0 LINE",
"426 0 LINE",
"439 85 LINE",
"288 85 LINE",
"387 700 LINE",
"302 700 LINE",
"50 544 LINE",
"79 472 LINE",
"268 585 LINE",
"188 85 LINE",
"39 85 LINE"
);
}
);
width = 494;
}
);
unicode = 0031;
},
{
glyphname = two;
lastChange = "2014-11-10 22:19:38 +0100";
layers = (
{
layerId = "89F00A14-383C-41A8-AF30-A12CE933D7AF";
name = "Regular Extended Italic";
paths = (
{
closed = 1;
nodes = (
"0 0 LINE",
"464 0 LINE",
"478 85 LINE",
"150 85 LINE",
"248 163 LINE SMOOTH",
"431 308 OFFCURVE",
"531 432 OFFCURVE",
"531 560 CURVE SMOOTH",
"531 675 OFFCURVE",
"446 710 OFFCURVE",
"321 710 CURVE SMOOTH",
"236 710 OFFCURVE",
"114 674 OFFCURVE",
"114 674 CURVE",
"94 510 LINE",
"173 510 LINE",
"197 609 LINE",
"197 609 OFFCURVE",
"256 625 OFFCURVE",
"306 625 CURVE SMOOTH",
"381 625 OFFCURVE",
"419 587 OFFCURVE",
"419 535 CURVE SMOOTH",
"419 441 OFFCURVE",
"346 354 OFFCURVE",
"141 188 CURVE SMOOTH",
"14 85 LINE"
);
}
);
width = 581;
}
);
unicode = 0032;
},
{
glyphname = three;
lastChange = "2014-11-10 22:19:38 +0100";
layers = (
{
layerId = "89F00A14-383C-41A8-AF30-A12CE933D7AF";
name = "Regular Extended Italic";
paths = (
{
closed = 1;
nodes = (
"495 659 OFFCURVE",
"415 710 OFFCURVE",
"298 710 CURVE SMOOTH",
"203 710 OFFCURVE",
"91 674 OFFCURVE",
"91 674 CURVE",
"72 518 LINE",
"152 518 LINE",
"174 609 LINE",
"174 609 OFFCURVE",
"223 625 OFFCURVE",
"279 625 CURVE SMOOTH",
"352 625 OFFCURVE",
"388 591 OFFCURVE",
"388 542 CURVE SMOOTH",
"388 476 OFFCURVE",
"345 405 OFFCURVE",
"225 405 CURVE SMOOTH",
"155 405 LINE",
"142 325 LINE",
"218 325 LINE SMOOTH",
"300 325 OFFCURVE",
"347 291 OFFCURVE",
"347 219 CURVE SMOOTH",
"347 133 OFFCURVE",
"273 75 OFFCURVE",
"182 75 CURVE SMOOTH",
"109 75 OFFCURVE",
"23 117 OFFCURVE",
"23 117 CURVE",
"-16 40 LINE",
"-16 40 OFFCURVE",
"62 -10 OFFCURVE",
"169 -10 CURVE SMOOTH",
"328 -10 OFFCURVE",
"456 91 OFFCURVE",
"456 231 CURVE SMOOTH",
"456 291 OFFCURVE",
"413 350 OFFCURVE",
"337 368 CURVE",
"446 398 OFFCURVE",
"495 473 OFFCURVE",
"495 564 CURVE SMOOTH"
);
}
);
width = 529;
}
);
unicode = 0033;
},
{
glyphname = four;
lastChange = "2014-11-10 22:19:38 +0100";
layers = (
{
layerId = "89F00A14-383C-41A8-AF30-A12CE933D7AF";
name = "Regular Extended Italic";
paths = (
{
closed = 1;
nodes = (
"0 170 LINE",
"316 170 LINE",
"289 0 LINE",
"384 0 LINE",
"411 170 LINE",
"528 170 LINE",
"542 250 LINE",
"423 250 LINE",
"495 700 LINE",
"394 715 LINE",
"5 240 LINE"
);
},
{
closed = 1;
nodes = (
"381 584 LINE",
"328 250 LINE",
"107 250 LINE"
);
}
);
width = 592;
}
);
unicode = 0034;
},
{
glyphname = five;
lastChange = "2014-11-10 22:19:38 +0100";
layers = (
{
layerId = "89F00A14-383C-41A8-AF30-A12CE933D7AF";
name = "Regular Extended Italic";
paths = (
{
closed = 1;
nodes = (
"136 75 OFFCURVE",
"44 116 OFFCURVE",
"44 116 CURVE",
"5 40 LINE",
"5 40 OFFCURVE",
"82 -10 OFFCURVE",
"201 -10 CURVE SMOOTH",
"356 -10 OFFCURVE",
"485 100 OFFCURVE",
"485 245 CURVE SMOOTH",
"485 350 OFFCURVE",
"401 425 OFFCURVE",
"236 425 CURVE SMOOTH",
"204 425 LINE",
"237 615 LINE",
"512 615 LINE",
"526 700 LINE",
"159 700 LINE",
"96 345 LINE",
"195 345 LINE SMOOTH",
"315 345 OFFCURVE",
"376 305 OFFCURVE",
"376 225 CURVE SMOOTH",
"376 140 OFFCURVE",
"300 75 OFFCURVE",
"210 75 CURVE SMOOTH"
);
}
);
width = 546;
}
);
unicode = 0035;
},
{
glyphname = six;
lastChange = "2014-11-10 22:19:38 +0100";
layers = (
{
layerId = "89F00A14-383C-41A8-AF30-A12CE933D7AF";
name = "Regular Extended Italic";
paths = (
{
closed = 1;
nodes = (
"194 380 OFFCURVE",
"247 625 OFFCURVE",
"478 625 CURVE SMOOTH",
"519 625 OFFCURVE",
"554 620 OFFCURVE",
"554 620 CURVE",
"568 700 LINE",
"568 700 OFFCURVE",
"526 710 OFFCURVE",
"490 710 CURVE SMOOTH",
"167 710 OFFCURVE",
"66 387 OFFCURVE",
"66 211 CURVE SMOOTH",
"66 102 OFFCURVE",
"115 -10 OFFCURVE",
"274 -10 CURVE SMOOTH",
"427 -10 OFFCURVE",
"549 113 OFFCURVE",
"549 261 CURVE SMOOTH",
"549 372 OFFCURVE",
"465 430 OFFCURVE",
"368 430 CURVE SMOOTH",
"270 430 OFFCURVE",
"194 380 OFFCURVE",
"194 380 CURVE"
);
},
{
closed = 1;
nodes = (
"177 300 OFFCURVE",
"248 345 OFFCURVE",
"326 345 CURVE SMOOTH",
"403 345 OFFCURVE",
"444 311 OFFCURVE",
"444 243 CURVE SMOOTH",
"444 150 OFFCURVE",
"385 75 OFFCURVE",
"288 75 CURVE SMOOTH",
"212 75 OFFCURVE",
"167 130 OFFCURVE",
"167 210 CURVE SMOOTH",
"167 225 OFFCURVE",
"169 252 OFFCURVE",
"177 300 CURVE"
);
}
);
width = 603;
}
);
unicode = 0036;
},
{
glyphname = seven;
lastChange = "2014-11-10 22:19:38 +0100";
layers = (
{
layerId = "89F00A14-383C-41A8-AF30-A12CE933D7AF";
name = "Regular Extended Italic";
paths = (
{
closed = 1;
nodes = (
"70 700 LINE",
"40 515 LINE",
"113 515 LINE",
"148 610 LINE",
"411 610 LINE",
"54 0 LINE",
"167 0 LINE",
"526 625 LINE",
"539 700 LINE"
);
}
);
width = 514;
}
);
unicode = 0037;
},
{
glyphname = eight;
lastChange = "2014-11-10 22:19:38 +0100";
layers = (
{
layerId = "89F00A14-383C-41A8-AF30-A12CE933D7AF";
name = "Regular Extended Italic";
paths = (
{
closed = 1;
nodes = (
"580 651 OFFCURVE",
"517 710 OFFCURVE",
"391 710 CURVE SMOOTH",
"221 710 OFFCURVE",
"123 620 OFFCURVE",
"123 497 CURVE SMOOTH",
"123 431 OFFCURVE",
"164 395 OFFCURVE",
"216 367 CURVE",
"121 325 OFFCURVE",
"50 258 OFFCURVE",
"50 146 CURVE SMOOTH",
"50 64 OFFCURVE",
"108 -10 OFFCURVE",
"253 -10 CURVE SMOOTH",
"408 -10 OFFCURVE",
"537 89 OFFCURVE",
"537 229 CURVE SMOOTH",
"537 308 OFFCURVE",
"485 344 OFFCURVE",
"426 371 CURVE",
"513 402 OFFCURVE",
"580 465 OFFCURVE",
"580 564 CURVE SMOOTH"
);
},
{
closed = 1;
nodes = (
"202 76 OFFCURVE",
"160 110 OFFCURVE",
"160 170 CURVE SMOOTH",
"160 255 OFFCURVE",
"226 299 OFFCURVE",
"295 331 CURVE",
"363 302 OFFCURVE",
"427 275 OFFCURVE",
"427 212 CURVE SMOOTH",
"427 138 OFFCURVE",
"372 76 OFFCURVE",
"275 76 CURVE SMOOTH"
);
},
{
closed = 1;
nodes = (
"437 625 OFFCURVE",
"475 593 OFFCURVE",
"475 543 CURVE SMOOTH",
"475 472 OFFCURVE",
"408 421 OFFCURVE",
"349 400 CURVE",
"287 424 OFFCURVE",
"227 447 OFFCURVE",
"227 511 CURVE SMOOTH",
"227 586 OFFCURVE",
"295 625 OFFCURVE",
"367 625 CURVE SMOOTH"
);
}
);
width = 630;
}
);
unicode = 0038;
},
{
glyphname = nine;
lastChange = "2014-11-10 22:19:38 +0100";
layers = (
{
layerId = "89F00A14-383C-41A8-AF30-A12CE933D7AF";
name = "Regular Extended Italic";
paths = (
{
closed = 1;
nodes = (
"425 325 OFFCURVE",
"380 75 OFFCURVE",
"140 75 CURVE SMOOTH",
"99 75 OFFCURVE",
"63 80 OFFCURVE",
"63 80 CURVE",
"50 0 LINE",
"50 0 OFFCURVE",
"86 -10 OFFCURVE",
"126 -10 CURVE SMOOTH",
"439 -10 OFFCURVE",
"552 287 OFFCURVE",
"552 487 CURVE SMOOTH",
"552 656 OFFCURVE",
"447 710 OFFCURVE",
"344 710 CURVE SMOOTH",
"189 710 OFFCURVE",
"69 588 OFFCURVE",
"69 443 CURVE SMOOTH",
"69 332 OFFCURVE",
"149 275 OFFCURVE",
"251 275 CURVE SMOOTH",
"349 275 OFFCURVE",
"425 325 OFFCURVE",
"425 325 CURVE"
);
},
{
closed = 1;
nodes = (
"442 405 OFFCURVE",
"371 360 OFFCURVE",
"293 360 CURVE SMOOTH",
"217 360 OFFCURVE",
"174 390 OFFCURVE",
"174 456 CURVE SMOOTH",
"174 552 OFFCURVE",
"235 625 OFFCURVE",
"330 625 CURVE SMOOTH",
"398 625 OFFCURVE",
"451 585 OFFCURVE",
"451 487 CURVE SMOOTH",
"451 471 OFFCURVE",
"450 446 OFFCURVE",
"442 405 CURVE SMOOTH"
);
}
);
width = 622;
}
);
unicode = 0039;
},
{
glyphname = fraction;
lastChange = "2014-11-10 22:19:38 +0100";
layers = (
{
layerId = "89F00A14-383C-41A8-AF30-A12CE933D7AF";
name = "Regular Extended Italic";
paths = (
{
closed = 1;
nodes = (
"-64 0 LINE",
"-3 -45 LINE",
"624 705 LINE",
"562 750 LINE"
);
}
);
width = 565;
}
);
unicode = 2044;
},
{
glyphname = onehalf;
lastChange = "2014-11-10 22:19:38 +0100";
layers = (
{
layerId = "89F00A14-383C-41A8-AF30-A12CE933D7AF";
name = "Regular Extended Italic";
paths = (
{
closed = 1;
nodes = (
"497 0 LINE",
"806 0 LINE",
"818 71 LINE",
"626 71 LINE",
"723 144 OFFCURVE",
"846 217 OFFCURVE",
"846 329 CURVE SMOOTH",
"846 399 OFFCURVE",
"790 425 OFFCURVE",
"704 425 CURVE SMOOTH",
"643 425 OFFCURVE",
"568 399 OFFCURVE",
"568 399 CURVE",
"555 290 LINE",
"614 290 LINE",
"629 350 LINE",
"629 350 OFFCURVE",
"656 360 OFFCURVE",
"691 360 CURVE SMOOTH",
"735 360 OFFCURVE",
"756 344 OFFCURVE",
"756 314 CURVE SMOOTH",
"756 238 OFFCURVE",
"682 199 OFFCURVE",
"508 69 CURVE"
);
},
{
closed = 1;
nodes = (
"140 0 LINE",
"232 0 LINE",
"740 700 LINE",
"648 700 LINE"
);
},
{
closed = 1;
nodes = (
"326 345 LINE",
"236 345 LINE",
"292 700 LINE",
"219 700 LINE",
"56 605 LINE",
"80 545 LINE",
"193 610 LINE",
"151 345 LINE",
"60 345 LINE",
"50 280 LINE",
"315 280 LINE"
);
}
);
width = 922;
}
);
unicode = 00BD;
},
{
glyphname = onequarter;
lastChange = "2014-11-10 22:19:38 +0100";
layers = (
{
layerId = "89F00A14-383C-41A8-AF30-A12CE933D7AF";
name = "Regular Extended Italic";
paths = (
{
closed = 1;
nodes = (
"507 150 LINE",
"504 91 LINE",
"707 91 LINE",
"693 0 LINE",
"777 0 LINE",
"791 91 LINE",
"862 91 LINE",
"873 156 LINE",
"802 156 LINE",
"844 420 LINE",
"750 430 LINE"
);
},
{
closed = 1;
nodes = (
"747 335 LINE",
"719 156 LINE",
"593 156 LINE"
);
},
{
closed = 1;
nodes = (
"167 0 LINE",
"259 0 LINE",
"767 700 LINE",
"675 700 LINE"
);
},
{
closed = 1;
nodes = (
"356 345 LINE",
"266 345 LINE",
"322 700 LINE",
"249 700 LINE",
"86 605 LINE",
"110 545 LINE",
"223 610 LINE",
"181 345 LINE",
"90 345 LINE",
"80 280 LINE",
"345 280 LINE"
);
}
);
width = 970;
}
);
unicode = 00BC;
},
{
glyphname = threequarters;
lastChange = "2014-11-10 22:19:38 +0100";
layers = (
{
layerId = "89F00A14-383C-41A8-AF30-A12CE933D7AF";
name = "Regular Extended Italic";
paths = (
{
closed = 1;
nodes = (
"393 673 OFFCURVE",
"347 705 OFFCURVE",
"263 705 CURVE SMOOTH",
"204 705 OFFCURVE",
"123 686 OFFCURVE",
"123 686 CURVE",
"110 583 LINE",
"167 583 LINE",
"179 631 LINE",
"179 631 OFFCURVE",
"205 640 OFFCURVE",
"247 640 CURVE SMOOTH",
"290 640 OFFCURVE",
"310 623 OFFCURVE",
"310 595 CURVE SMOOTH",
"310 546 OFFCURVE",
"272 524 OFFCURVE",
"215 524 CURVE SMOOTH",
"169 524 LINE",
"160 463 LINE",
"205 463 LINE SMOOTH",
"256 463 OFFCURVE",
"285 447 OFFCURVE",
"285 412 CURVE SMOOTH",
"285 367 OFFCURVE",
"247 342 OFFCURVE",
"193 342 CURVE SMOOTH",
"132 342 OFFCURVE",
"78 372 OFFCURVE",
"78 372 CURVE",
"50 313 LINE",
"50 313 OFFCURVE",
"111 275 OFFCURVE",
"180 275 CURVE SMOOTH",
"280 275 OFFCURVE",
"370 321 OFFCURVE",
"370 423 CURVE SMOOTH",
"370 468 OFFCURVE",
"332 495 OFFCURVE",
"291 499 CURVE",
"351 513 OFFCURVE",
"393 553 OFFCURVE",
"393 613 CURVE SMOOTH"
);
},
{
closed = 1;
nodes = (
"179 0 LINE",
"271 0 LINE",
"779 700 LINE",
"687 700 LINE"
);
},
{
closed = 1;
nodes = (
"519 150 LINE",
"516 91 LINE",
"719 91 LINE",
"705 0 LINE",
"789 0 LINE",
"803 91 LINE",
"874 91 LINE",
"885 156 LINE",
"814 156 LINE",
"856 420 LINE",
"762 430 LINE"
);
},
{
closed = 1;
nodes = (
"759 335 LINE",
"731 156 LINE",
"605 156 LINE"
);
}
);
width = 947;
}
);
unicode = 00BE;
},
{
glyphname = oneeighth;
lastChange = "2014-11-10 22:19:38 +0100";
layers = (
{
layerId = "89F00A14-383C-41A8-AF30-A12CE933D7AF";
name = "Regular Extended Italic";
paths = (
{
closed = 1;
nodes = (
"167 0 LINE",
"259 0 LINE",
"767 700 LINE",
"675 700 LINE"
);
},
{
closed = 1;
nodes = (
"351 345 LINE",
"266 345 LINE",
"322 700 LINE",
"249 700 LINE",
"86 605 LINE",
"110 545 LINE",
"223 610 LINE",
"181 345 LINE",
"90 345 LINE",
"80 280 LINE",
"340 280 LINE"
);
},
{
closed = 1;
nodes = (
"881 280 OFFCURVE",
"881 333 CURVE SMOOTH",
"881 390 OFFCURVE",
"838 425 OFFCURVE",
"757 425 CURVE SMOOTH",
"661 425 OFFCURVE",
"590 380 OFFCURVE",
"590 292 CURVE SMOOTH",
"590 254 OFFCURVE",
"610 234 OFFCURVE",
"644 218 CURVE",
"621 210 OFFCURVE",
"540 175 OFFCURVE",
"540 92 CURVE SMOOTH",
"540 30 OFFCURVE",
"588 -5 OFFCURVE",
"675 -5 CURVE SMOOTH",
"778 -5 OFFCURVE",
"860 56 OFFCURVE",
"860 137 CURVE SMOOTH",
"860 182 OFFCURVE",
"825 204 OFFCURVE",
"786 220 CURVE",
"847 240 OFFCURVE"
);
},
{
closed = 1;
nodes = (
"753 61 OFFCURVE",
"691 61 CURVE SMOOTH",
"653 61 OFFCURVE",
"627 77 OFFCURVE",
"627 109 CURVE SMOOTH",
"627 168 OFFCURVE",
"684 188 OFFCURVE",
"700 195 CURVE",
"743 178 OFFCURVE",
"775 167 OFFCURVE",
"775 131 CURVE SMOOTH",
"775 99 OFFCURVE"
);
},
{
closed = 1;
nodes = (
"686 360 OFFCURVE",
"741 360 CURVE SMOOTH",
"783 360 OFFCURVE",
"800 342 OFFCURVE",
"800 316 CURVE SMOOTH",
"800 271 OFFCURVE",
"753 249 OFFCURVE",
"730 242 CURVE",
"692 257 OFFCURVE",
"669 272 OFFCURVE",
"669 301 CURVE SMOOTH",
"669 326 OFFCURVE"
);
}
);
width = 942;
}
);
unicode = 215B;
},
{
glyphname = threeeighths;
lastChange = "2014-11-10 22:19:38 +0100";
layers = (
{
layerId = "89F00A14-383C-41A8-AF30-A12CE933D7AF";
name = "Regular Extended Italic";
paths = (
{
closed = 1;
nodes = (
"393 673 OFFCURVE",
"347 705 OFFCURVE",
"263 705 CURVE SMOOTH",
"204 705 OFFCURVE",
"123 686 OFFCURVE",
"123 686 CURVE",
"110 583 LINE",
"167 583 LINE",
"179 631 LINE",
"179 631 OFFCURVE",
"205 640 OFFCURVE",
"247 640 CURVE SMOOTH",
"290 640 OFFCURVE",
"310 623 OFFCURVE",
"310 595 CURVE SMOOTH",
"310 546 OFFCURVE",
"272 524 OFFCURVE",
"215 524 CURVE SMOOTH",
"169 524 LINE",
"160 463 LINE",
"205 463 LINE SMOOTH",
"256 463 OFFCURVE",
"285 447 OFFCURVE",
"285 412 CURVE SMOOTH",
"285 367 OFFCURVE",
"247 342 OFFCURVE",
"193 342 CURVE SMOOTH",
"132 342 OFFCURVE",
"78 372 OFFCURVE",
"78 372 CURVE",
"50 313 LINE",
"50 313 OFFCURVE",
"111 275 OFFCURVE",
"180 275 CURVE SMOOTH",
"280 275 OFFCURVE",
"370 321 OFFCURVE",
"370 423 CURVE SMOOTH",
"370 468 OFFCURVE",
"332 495 OFFCURVE",
"291 499 CURVE",
"351 513 OFFCURVE",
"393 553 OFFCURVE",
"393 613 CURVE SMOOTH"
);
},
{
closed = 1;
nodes = (
"169 0 LINE",
"261 0 LINE",
"769 700 LINE",
"677 700 LINE"
);
},
{
closed = 1;
nodes = (
"847 240 OFFCURVE",
"881 280 OFFCURVE",
"881 333 CURVE SMOOTH",
"881 390 OFFCURVE",
"838 425 OFFCURVE",
"757 425 CURVE SMOOTH",
"661 425 OFFCURVE",
"590 380 OFFCURVE",
"590 292 CURVE SMOOTH",
"590 254 OFFCURVE",
"610 234 OFFCURVE",
"644 218 CURVE",
"621 210 OFFCURVE",
"540 175 OFFCURVE",
"540 92 CURVE SMOOTH",
"540 30 OFFCURVE",
"588 -5 OFFCURVE",
"675 -5 CURVE SMOOTH",
"778 -5 OFFCURVE",
"860 56 OFFCURVE",
"860 137 CURVE SMOOTH",
"860 182 OFFCURVE",
"825 204 OFFCURVE",
"786 220 CURVE"
);
},
{
closed = 1;
nodes = (
"775 99 OFFCURVE",
"753 61 OFFCURVE",
"691 61 CURVE SMOOTH",
"653 61 OFFCURVE",
"627 77 OFFCURVE",
"627 109 CURVE SMOOTH",
"627 168 OFFCURVE",
"684 188 OFFCURVE",
"700 195 CURVE",
"743 178 OFFCURVE",
"775 167 OFFCURVE",
"775 131 CURVE SMOOTH"
);
},
{
closed = 1;
nodes = (
"669 326 OFFCURVE",
"686 360 OFFCURVE",
"741 360 CURVE SMOOTH",
"783 360 OFFCURVE",
"800 342 OFFCURVE",
"800 316 CURVE SMOOTH",
"800 271 OFFCURVE",
"753 249 OFFCURVE",
"730 242 CURVE",
"692 257 OFFCURVE",
"669 272 OFFCURVE",
"669 301 CURVE SMOOTH"
);
}
);
width = 942;
}
);
unicode = 215C;
},
{
glyphname = fiveeighths;
lastChange = "2014-11-10 22:19:38 +0100";
layers = (
{
layerId = "89F00A14-383C-41A8-AF30-A12CE933D7AF";
name = "Regular Extended Italic";
paths = (
{
closed = 1;
nodes = (
"159 0 LINE",
"251 0 LINE",
"759 700 LINE",
"667 700 LINE"
);
},
{
closed = 1;
nodes = (
"837 240 OFFCURVE",
"871 280 OFFCURVE",
"871 333 CURVE SMOOTH",
"871 390 OFFCURVE",
"828 425 OFFCURVE",
"747 425 CURVE SMOOTH",
"651 425 OFFCURVE",
"580 380 OFFCURVE",
"580 292 CURVE SMOOTH",
"580 254 OFFCURVE",
"600 234 OFFCURVE",
"634 218 CURVE",
"611 210 OFFCURVE",
"530 175 OFFCURVE",
"530 92 CURVE SMOOTH",
"530 30 OFFCURVE",
"578 -5 OFFCURVE",
"665 -5 CURVE SMOOTH",
"768 -5 OFFCURVE",
"850 56 OFFCURVE",
"850 137 CURVE SMOOTH",
"850 182 OFFCURVE",
"815 204 OFFCURVE",
"776 220 CURVE"
);
},
{
closed = 1;
nodes = (
"765 99 OFFCURVE",
"743 61 OFFCURVE",
"681 61 CURVE SMOOTH",
"643 61 OFFCURVE",
"617 77 OFFCURVE",
"617 109 CURVE SMOOTH",
"617 168 OFFCURVE",
"674 188 OFFCURVE",
"690 195 CURVE",
"733 178 OFFCURVE",
"765 167 OFFCURVE",
"765 131 CURVE SMOOTH"
);
},
{
closed = 1;
nodes = (
"659 326 OFFCURVE",
"676 360 OFFCURVE",
"731 360 CURVE SMOOTH",
"773 360 OFFCURVE",
"790 342 OFFCURVE",
"790 316 CURVE SMOOTH",
"790 271 OFFCURVE",
"743 249 OFFCURVE",
"720 242 CURVE",
"682 257 OFFCURVE",
"659 272 OFFCURVE",
"659 301 CURVE SMOOTH"
);
},
{
closed = 1;
nodes = (
"387 700 LINE",
"147 700 LINE",
"106 477 LINE",
"177 477 LINE SMOOTH",
"243 477 OFFCURVE",
"282 463 OFFCURVE",
"282 422 CURVE SMOOTH",
"282 369 OFFCURVE",
"238 342 OFFCURVE",
"185 342 CURVE SMOOTH",
"132 342 OFFCURVE",
"80 366 OFFCURVE",
"80 366 CURVE",
"53 304 LINE",
"53 304 OFFCURVE",
"105 274 OFFCURVE",
"182 274 CURVE SMOOTH",
"269 274 OFFCURVE",
"367 339 OFFCURVE",
"367 441 CURVE SMOOTH",
"367 515 OFFCURVE",
"299 542 OFFCURVE",
"219 542 CURVE SMOOTH",
"192 542 LINE",
"211 633 LINE",
"375 633 LINE"
);
}
);
width = 932;
}
);
unicode = 215D;
},
{
glyphname = seveneighths;
lastChange = "2014-11-10 22:19:38 +0100";
layers = (
{
layerId = "89F00A14-383C-41A8-AF30-A12CE933D7AF";
name = "Regular Extended Italic";
paths = (
{
closed = 1;
nodes = (
"102 700 LINE",
"81 582 LINE",
"138 582 LINE",
"160 633 LINE",
"301 633 LINE",
"89 274 LINE",
"173 274 LINE",
"397 650 LINE",
"405 700 LINE"
);
},
{
closed = 1;
nodes = (
"108 0 LINE",
"200 0 LINE",
"708 700 LINE",
"616 700 LINE"
);
},
{
closed = 1;
nodes = (
"786 240 OFFCURVE",
"820 280 OFFCURVE",
"820 333 CURVE SMOOTH",
"820 390 OFFCURVE",
"777 425 OFFCURVE",
"696 425 CURVE SMOOTH",
"600 425 OFFCURVE",
"529 380 OFFCURVE",
"529 292 CURVE SMOOTH",
"529 254 OFFCURVE",
"549 234 OFFCURVE",
"583 218 CURVE",
"560 210 OFFCURVE",
"479 175 OFFCURVE",
"479 92 CURVE SMOOTH",
"479 30 OFFCURVE",
"527 -5 OFFCURVE",
"614 -5 CURVE SMOOTH",
"717 -5 OFFCURVE",
"799 56 OFFCURVE",
"799 137 CURVE SMOOTH",
"799 182 OFFCURVE",
"764 204 OFFCURVE",
"725 220 CURVE"
);
},
{
closed = 1;
nodes = (
"714 99 OFFCURVE",
"692 61 OFFCURVE",
"630 61 CURVE SMOOTH",
"592 61 OFFCURVE",
"566 77 OFFCURVE",
"566 109 CURVE SMOOTH",
"566 168 OFFCURVE",
"623 188 OFFCURVE",
"639 195 CURVE",
"682 178 OFFCURVE",
"714 167 OFFCURVE",
"714 131 CURVE SMOOTH"
);
},
{
closed = 1;
nodes = (
"608 326 OFFCURVE",
"625 360 OFFCURVE",
"680 360 CURVE SMOOTH",
"722 360 OFFCURVE",
"739 342 OFFCURVE",
"739 316 CURVE SMOOTH",
"739 271 OFFCURVE",
"692 249 OFFCURVE",
"669 242 CURVE",
"631 257 OFFCURVE",
"608 272 OFFCURVE",
"608 301 CURVE SMOOTH"
);
}
);
width = 881;
}
);
unicode = 215E;
},
{
glyphname = onesuperior;
lastChange = "2014-11-10 22:19:38 +0100";
layers = (
{
layerId = "89F00A14-383C-41A8-AF30-A12CE933D7AF";
name = "Regular Extended Italic";
paths = (
{
closed = 1;
nodes = (
"310 345 LINE",
"224 345 LINE",
"280 700 LINE",
"212 700 LINE",
"54 605 LINE",
"76 550 LINE",
"186 614 LINE",
"144 345 LINE",
"58 345 LINE",
"48 280 LINE",
"299 280 LINE"
);
}
);
width = 322;
}
);
unicode = 00B9;
},
{
glyphname = twosuperior;
lastChange = "2014-11-10 22:19:38 +0100";
layers = (
{
layerId = "89F00A14-383C-41A8-AF30-A12CE933D7AF";
name = "Regular Extended Italic";
paths = (
{
closed = 1;
nodes = (
"22 280 LINE",
"331 280 LINE",
"343 351 LINE",
"151 351 LINE",
"248 424 OFFCURVE",
"371 493 OFFCURVE",
"371 609 CURVE SMOOTH",
"371 679 OFFCURVE",
"315 705 OFFCURVE",
"229 705 CURVE SMOOTH",
"168 705 OFFCURVE",
"93 679 OFFCURVE",
"93 679 CURVE",
"80 570 LINE",
"139 570 LINE",
"154 630 LINE",
"154 630 OFFCURVE",
"181 640 OFFCURVE",
"216 640 CURVE SMOOTH",
"260 640 OFFCURVE",
"281 624 OFFCURVE",
"281 594 CURVE SMOOTH",
"281 518 OFFCURVE",
"207 479 OFFCURVE",
"33 349 CURVE"
);
}
);
width = 374;
}
);
unicode = 00B2;
},
{
glyphname = threesuperior;
lastChange = "2014-11-10 22:19:38 +0100";
layers = (
{
layerId = "89F00A14-383C-41A8-AF30-A12CE933D7AF";
name = "Regular Extended Italic";
paths = (
{
closed = 1;
nodes = (
"346 673 OFFCURVE",
"300 705 OFFCURVE",
"216 705 CURVE SMOOTH",
"157 705 OFFCURVE",
"76 686 OFFCURVE",
"76 686 CURVE",
"63 583 LINE",
"120 583 LINE",
"132 631 LINE",
"132 631 OFFCURVE",
"158 640 OFFCURVE",
"200 640 CURVE SMOOTH",
"243 640 OFFCURVE",
"263 623 OFFCURVE",
"263 595 CURVE SMOOTH",
"263 546 OFFCURVE",
"225 524 OFFCURVE",
"168 524 CURVE SMOOTH",
"122 524 LINE",
"113 463 LINE",
"158 463 LINE SMOOTH",
"209 463 OFFCURVE",
"238 447 OFFCURVE",
"238 412 CURVE SMOOTH",
"238 367 OFFCURVE",
"200 342 OFFCURVE",
"146 342 CURVE SMOOTH",
"85 342 OFFCURVE",
"31 372 OFFCURVE",
"31 372 CURVE",
"3 313 LINE",
"3 313 OFFCURVE",
"64 275 OFFCURVE",
"133 275 CURVE SMOOTH",
"233 275 OFFCURVE",
"323 321 OFFCURVE",
"323 423 CURVE SMOOTH",
"323 468 OFFCURVE",
"285 495 OFFCURVE",
"244 499 CURVE",
"304 513 OFFCURVE",
"346 553 OFFCURVE",
"346 613 CURVE SMOOTH"
);
}
);
width = 345;
}
);
unicode = 00B3;
},
{
glyphname = foursuperior;
lastChange = "2014-11-10 22:19:38 +0100";
layers = (
{
layerId = "89F00A14-383C-41A8-AF30-A12CE933D7AF";
name = "Regular Extended Italic";
paths = (
{
closed = 1;
nodes = (
"25 430 LINE",
"22 371 LINE",
"225 371 LINE",
"211 280 LINE",
"295 280 LINE",
"309 371 LINE",
"380 371 LINE",
"391 436 LINE",
"320 436 LINE",
"362 700 LINE",
"268 710 LINE"
);
},
{
closed = 1;
nodes = (
"265 615 LINE",
"237 436 LINE",
"111 436 LINE"
);
}
);
width = 399;
}
);
unicode = 2074;
},
{
glyphname = asterisk;
lastChange = "2014-11-10 22:19:38 +0100";
layers = (
{
layerId = "89F00A14-383C-41A8-AF30-A12CE933D7AF";
name = "Regular Extended Italic";
paths = (
{
closed = 1;
nodes = (
"248 586 LINE",
"278 608 LINE",
"260 577 LINE",
"285 558 LINE",
"252 562 LINE",
"238 528 LINE",
"288 415 LINE",
"351 459 LINE",
"285 558 LINE",
"412 587 LINE",
"398 657 LINE",
"278 608 LINE",
"305 735 LINE",
"234 733 LINE",
"226 609 LINE"
);
},
{
closed = 1;
nodes = (
"226 609 LINE",
"115 655 LINE",
"80 585 LINE",
"202 560 LINE",
"104 457 LINE",
"156 415 LINE",
"238 528 LINE",
"236 562 LINE",
"202 560 LINE",
"234 577 LINE"
);
}
);
width = 432;
}
);
unicode = 002A;
},
{
glyphname = backslash;
lastChange = "2014-11-10 22:19:38 +0100";
layers = (
{
layerId = "89F00A14-383C-41A8-AF30-A12CE933D7AF";
name = "Regular Extended Italic";
paths = (
{
closed = 1;
nodes = (
"178 700 LINE",
"89 700 LINE",
"303 0 LINE",
"392 0 LINE"
);
}
);
width = 506;
}
);
unicode = 005C;
},
{
glyphname = periodcentered;
lastChange = "2014-11-10 22:19:38 +0100";
layers = (
{
layerId = "89F00A14-383C-41A8-AF30-A12CE933D7AF";
name = "Regular Extended Italic";
paths = (
{
closed = 1;
nodes = (
"70 251 OFFCURVE",
"93 233 OFFCURVE",
"127 233 CURVE SMOOTH",
"180 233 OFFCURVE",
"205 280 OFFCURVE",
"205 322 CURVE SMOOTH",
"205 359 OFFCURVE",
"184 377 OFFCURVE",
"150 377 CURVE SMOOTH",
"99 377 OFFCURVE",
"70 332 OFFCURVE",
"70 288 CURVE SMOOTH"
);
}
);
width = 275;
}
);
unicode = 00B7;
},
{
glyphname = bullet;
lastChange = "2014-11-10 22:19:38 +0100";
layers = (
{
layerId = "89F00A14-383C-41A8-AF30-A12CE933D7AF";
name = "Regular Extended Italic";
paths = (
{
closed = 1;
nodes = (
"75 190 OFFCURVE",
"155 140 OFFCURVE",
"240 140 CURVE SMOOTH",
"325 140 OFFCURVE",
"415 200 OFFCURVE",
"415 320 CURVE SMOOTH",
"415 435 OFFCURVE",
"335 490 OFFCURVE",
"250 490 CURVE SMOOTH",
"165 490 OFFCURVE",
"75 425 OFFCURVE",
"75 310 CURVE SMOOTH"
);
}
);
width = 505;
}
);
unicode = 2022;
},
{
glyphname = colon;
lastChange = "2014-11-10 22:19:38 +0100";
layers = (
{
layerId = "89F00A14-383C-41A8-AF30-A12CE933D7AF";
name = "Regular Extended Italic";
paths = (
{
closed = 1;
nodes = (
"40 8 OFFCURVE",
"60 -10 OFFCURVE",
"94 -10 CURVE SMOOTH",
"147 -10 OFFCURVE",
"172 33 OFFCURVE",
"172 75 CURVE SMOOTH",
"172 112 OFFCURVE",
"151 130 OFFCURVE",
"117 130 CURVE SMOOTH",
"66 130 OFFCURVE",
"40 89 OFFCURVE",
"40 45 CURVE SMOOTH"
);
},
{
closed = 1;
nodes = (
"91 333 OFFCURVE",
"111 315 OFFCURVE",
"145 315 CURVE SMOOTH",
"198 315 OFFCURVE",
"223 358 OFFCURVE",
"223 400 CURVE SMOOTH",
"223 437 OFFCURVE",
"202 455 OFFCURVE",
"168 455 CURVE SMOOTH",
"117 455 OFFCURVE",
"91 414 OFFCURVE",
"91 370 CURVE SMOOTH"
);
}
);
width = 288;
}
);
leftKerningGroup = colon;
rightKerningGroup = colon;
unicode = 003A;
},
{
glyphname = comma;
lastChange = "2014-11-10 22:19:38 +0100";
layers = (
{
layerId = "89F00A14-383C-41A8-AF30-A12CE933D7AF";
name = "Regular Extended Italic";
paths = (
{
closed = 1;
nodes = (
"41 91 OFFCURVE",
"71 130 OFFCURVE",
"116 130 CURVE SMOOTH",
"154 130 OFFCURVE",
"170 110 OFFCURVE",
"170 75 CURVE SMOOTH",
"170 -20 OFFCURVE",
"23 -154 OFFCURVE",
"23 -154 CURVE",
"-15 -116 LINE",
"-15 -116 OFFCURVE",
"55 -36 OFFCURVE",
"55 -7 CURVE SMOOTH",
"55 13 OFFCURVE",
"41 26 OFFCURVE",
"41 51 CURVE SMOOTH"
);
}
);
width = 230;
}
);
leftKerningGroup = period;
rightKerningGroup = period;
unicode = 002C;
},
{
glyphname = ellipsis;
lastChange = "2014-11-10 22:19:38 +0100";
layers = (
{
layerId = "89F00A14-383C-41A8-AF30-A12CE933D7AF";
name = "Regular Extended Italic";
paths = (
{
closed = 1;
nodes = (
"58 8 OFFCURVE",
"78 -10 OFFCURVE",
"112 -10 CURVE SMOOTH",
"165 -10 OFFCURVE",
"190 33 OFFCURVE",
"190 75 CURVE SMOOTH",
"190 112 OFFCURVE",
"169 130 OFFCURVE",
"135 130 CURVE SMOOTH",
"84 130 OFFCURVE",
"58 89 OFFCURVE",
"58 45 CURVE SMOOTH"
);
},
{
closed = 1;
nodes = (
"294 8 OFFCURVE",
"314 -10 OFFCURVE",
"348 -10 CURVE SMOOTH",
"401 -10 OFFCURVE",
"426 33 OFFCURVE",
"426 75 CURVE SMOOTH",
"426 112 OFFCURVE",
"405 130 OFFCURVE",
"371 130 CURVE SMOOTH",
"320 130 OFFCURVE",
"294 89 OFFCURVE",
"294 45 CURVE SMOOTH"
);
},
{
closed = 1;
nodes = (
"529 8 OFFCURVE",
"549 -10 OFFCURVE",
"583 -10 CURVE SMOOTH",
"636 -10 OFFCURVE",
"661 33 OFFCURVE",
"661 75 CURVE SMOOTH",
"661 112 OFFCURVE",
"640 130 OFFCURVE",
"606 130 CURVE SMOOTH",
"555 130 OFFCURVE",
"529 89 OFFCURVE",
"529 45 CURVE SMOOTH"
);
}
);
width = 720;
}
);
unicode = 2026;
},
{
glyphname = exclam;
lastChange = "2014-11-10 22:19:38 +0100";
layers = (
{
layerId = "89F00A14-383C-41A8-AF30-A12CE933D7AF";
name = "Regular Extended Italic";
paths = (
{
closed = 1;
nodes = (
"290 750 LINE",
"177 750 LINE",
"111 245 LINE",
"194 250 LINE"
);
},
{
closed = 1;
nodes = (
"55 8 OFFCURVE",
"75 -10 OFFCURVE",
"109 -10 CURVE SMOOTH",
"162 -10 OFFCURVE",
"187 33 OFFCURVE",
"187 75 CURVE SMOOTH",
"187 112 OFFCURVE",
"166 130 OFFCURVE",
"132 130 CURVE SMOOTH",
"81 130 OFFCURVE",
"55 89 OFFCURVE",
"55 45 CURVE SMOOTH"
);
}
);
width = 330;
}
);
unicode = 0021;
},
{
glyphname = exclamdbl;
lastChange = "2014-11-10 22:19:38 +0100";
layers = (
{
components = (
{
name = exclam;
transform = "{1, 0, 0, 1, 0, 0}";
},
{
name = exclam;
transform = "{1, 0, 0, 1, 218, 0}";
}
);
layerId = "89F00A14-383C-41A8-AF30-A12CE933D7AF";
name = "Regular Extended Italic";
paths = (
{
closed = 1;
nodes = (
"111 245 LINE",
"194 250 LINE"
);
},
{
closed = 1;
nodes = (
"55 8 OFFCURVE",
"75 -10 OFFCURVE",
"109 -10 CURVE SMOOTH",
"162 -10 OFFCURVE",
"187 33 OFFCURVE",
"187 75 CURVE SMOOTH",
"187 112 OFFCURVE",
"166 130 OFFCURVE",
"132 130 CURVE SMOOTH",
"81 130 OFFCURVE",
"55 89 OFFCURVE",
"55 45 CURVE SMOOTH"
);
}
);
width = 556;
}
);
unicode = 203C;
},
{
glyphname = exclamdown;
lastChange = "2014-11-10 22:19:38 +0100";
layers = (
{
layerId = "89F00A14-383C-41A8-AF30-A12CE933D7AF";
name = "Regular Extended Italic";
paths = (
{
closed = 1;
nodes = (
"20 -210 LINE",
"133 -210 LINE",
"199 295 LINE",
"116 290 LINE"
);
},
{
closed = 1;
nodes = (
"118 428 OFFCURVE",
"138 410 OFFCURVE",
"172 410 CURVE SMOOTH",
"225 410 OFFCURVE",
"250 453 OFFCURVE",
"250 495 CURVE SMOOTH",
"250 532 OFFCURVE",
"229 550 OFFCURVE",
"195 550 CURVE SMOOTH",
"144 550 OFFCURVE",
"118 509 OFFCURVE",
"118 465 CURVE SMOOTH"
);
}
);
width = 305;
}
);
unicode = 00A1;
},
{
glyphname = numbersign;
lastChange = "2014-11-10 22:19:38 +0100";
layers = (
{
layerId = "89F00A14-383C-41A8-AF30-A12CE933D7AF";
name = "Regular Extended Italic";
paths = (
{
closed = 1;
nodes = (
"108 380 LINE",
"215 380 LINE",
"173 235 LINE",
"60 235 LINE",
"50 170 LINE",
"154 170 LINE",
"106 0 LINE",
"184 0 LINE",
"233 170 LINE",
"375 170 LINE",
"326 0 LINE",
"405 0 LINE",
"453 170 LINE",
"574 170 LINE",
"584 235 LINE",
"472 235 LINE",
"515 380 LINE",
"634 380 LINE",
"644 445 LINE",
"534 445 LINE",
"578 600 LINE",
"500 600 LINE",
"454 445 LINE",
"313 445 LINE",
"358 600 LINE",
"279 600 LINE",
"234 445 LINE",
"118 445 LINE"
);
},
{
closed = 1;
nodes = (
"294 380 LINE",
"435 380 LINE",
"394 235 LINE",
"252 235 LINE"
);
}
);
width = 689;
}
);
unicode = 0023;
},
{
glyphname = overline;
lastChange = "2014-11-10 22:19:38 +0100";
layers = (
{
layerId = "89F00A14-383C-41A8-AF30-A12CE933D7AF";
name = "Regular Extended Italic";
paths = (
{
closed = 1;
nodes = (
"56 630 LINE",
"468 630 LINE",
"478 695 LINE",
"66 695 LINE"
);
}
);
width = 505;
}
);
unicode = 203E;
},
{
glyphname = period;
lastChange = "2014-11-10 22:19:38 +0100";
layers = (
{
layerId = "89F00A14-383C-41A8-AF30-A12CE933D7AF";
name = "Regular Extended Italic";
paths = (
{
closed = 1;
nodes = (
"32 8 OFFCURVE",
"52 -10 OFFCURVE",
"86 -10 CURVE SMOOTH",
"139 -10 OFFCURVE",
"164 33 OFFCURVE",
"164 75 CURVE SMOOTH",
"164 112 OFFCURVE",
"143 130 OFFCURVE",
"109 130 CURVE SMOOTH",
"58 130 OFFCURVE",
"32 89 OFFCURVE",
"32 45 CURVE SMOOTH"
);
}
);
width = 260;
}
);
leftKerningGroup = period;
rightKerningGroup = period;
unicode = 002E;
},
{
glyphname = question;
lastChange = "2014-11-10 22:19:38 +0100";
layers = (
{
layerId = "89F00A14-383C-41A8-AF30-A12CE933D7AF";
name = "Regular Extended Italic";
paths = (
{
closed = 1;
nodes = (
"217 112 OFFCURVE",
"197 130 OFFCURVE",
"163 130 CURVE SMOOTH",
"110 130 OFFCURVE",
"85 87 OFFCURVE",
"85 45 CURVE SMOOTH",
"85 8 OFFCURVE",
"106 -10 OFFCURVE",
"140 -10 CURVE SMOOTH",
"191 -10 OFFCURVE",
"217 31 OFFCURVE",
"217 75 CURVE SMOOTH"
);
},
{
closed = 1;
nodes = (
"215 236 LINE",
"215 281 LINE SMOOTH",
"215 383 OFFCURVE",
"453 445 OFFCURVE",
"453 615 CURVE SMOOTH",
"453 715 OFFCURVE",
"373 745 OFFCURVE",
"283 745 CURVE SMOOTH",
"218 745 OFFCURVE",
"146 722 OFFCURVE",
"146 722 CURVE",
"151 650 LINE",
"151 650 OFFCURVE",
"206 662 OFFCURVE",
"256 662 CURVE SMOOTH",
"306 662 OFFCURVE",
"348 646 OFFCURVE",
"348 597 CURVE SMOOTH",
"348 470 OFFCURVE",
"128 430 OFFCURVE",
"128 294 CURVE SMOOTH",
"128 230 LINE"
);
}
);
width = 458;
}
);
unicode = 003F;
},
{
glyphname = questiondown;
lastChange = "2014-11-10 22:19:38 +0100";
layers = (
{
layerId = "89F00A14-383C-41A8-AF30-A12CE933D7AF";
name = "Regular Extended Italic";
paths = (
{
closed = 1;
nodes = (
"246 428 OFFCURVE",
"266 410 OFFCURVE",
"300 410 CURVE SMOOTH",
"353 410 OFFCURVE",
"378 453 OFFCURVE",
"378 495 CURVE SMOOTH",
"378 532 OFFCURVE",
"357 550 OFFCURVE",
"323 550 CURVE SMOOTH",
"272 550 OFFCURVE",
"246 509 OFFCURVE",
"246 465 CURVE SMOOTH"
);
},
{
closed = 1;
nodes = (
"248 304 LINE",
"248 259 LINE SMOOTH",
"248 157 OFFCURVE",
"10 95 OFFCURVE",
"10 -75 CURVE SMOOTH",
"10 -175 OFFCURVE",
"90 -205 OFFCURVE",
"180 -205 CURVE SMOOTH",
"245 -205 OFFCURVE",
"317 -182 OFFCURVE",
"317 -182 CURVE",
"312 -110 LINE",
"312 -110 OFFCURVE",
"257 -122 OFFCURVE",
"207 -122 CURVE SMOOTH",
"157 -122 OFFCURVE",
"115 -106 OFFCURVE",
"115 -57 CURVE SMOOTH",
"115 70 OFFCURVE",
"335 112 OFFCURVE",
"335 246 CURVE SMOOTH",
"335 310 LINE"
);
}
);
width = 453;
}
);
unicode = 00BF;
},
{
glyphname = quotedbl;
lastChange = "2014-11-10 22:19:38 +0100";
layers = (
{
layerId = "89F00A14-383C-41A8-AF30-A12CE933D7AF";
name = "Regular Extended Italic";
paths = (
{
closed = 1;
nodes = (
"391 770 LINE",
"297 770 LINE",
"258 520 LINE",
"332 520 LINE"
);
},
{
closed = 1;
nodes = (
"222 770 LINE",
"129 770 LINE",
"90 520 LINE",
"163 520 LINE"
);
}
);
width = 401;
}
);
leftKerningGroup = quotesingle;
rightKerningGroup = quotesingle;
unicode = 0022;
},
{
glyphname = quotesingle;
lastChange = "2014-11-10 22:19:38 +0100";
layers = (
{
layerId = "89F00A14-383C-41A8-AF30-A12CE933D7AF";
name = "Regular Extended Italic";
paths = (
{
closed = 1;
nodes = (
"218 770 LINE",
"125 770 LINE",
"86 520 LINE",
"159 520 LINE"
);
}
);
width = 188;
}
);
leftKerningGroup = quotesingle;
rightKerningGroup = quotesingle;
unicode = 0027;
},
{
glyphname = semicolon;
lastChange = "2014-11-10 22:19:38 +0100";
layers = (
{
layerId = "89F00A14-383C-41A8-AF30-A12CE933D7AF";
name = "Regular Extended Italic";
paths = (
{
closed = 1;
nodes = (
"46 91 OFFCURVE",
"76 130 OFFCURVE",
"121 130 CURVE SMOOTH",
"159 130 OFFCURVE",
"175 110 OFFCURVE",
"175 75 CURVE SMOOTH",
"175 -20 OFFCURVE",
"28 -154 OFFCURVE",
"28 -154 CURVE",
"-10 -116 LINE",
"-10 -116 OFFCURVE",
"60 -36 OFFCURVE",
"60 -7 CURVE SMOOTH",
"60 13 OFFCURVE",
"46 26 OFFCURVE",
"46 51 CURVE SMOOTH"
);
},
{
closed = 1;
nodes = (
"95 333 OFFCURVE",
"115 315 OFFCURVE",
"149 315 CURVE SMOOTH",
"202 315 OFFCURVE",
"227 358 OFFCURVE",
"227 400 CURVE SMOOTH",
"227 437 OFFCURVE",
"206 455 OFFCURVE",
"172 455 CURVE SMOOTH",
"121 455 OFFCURVE",
"95 414 OFFCURVE",
"95 370 CURVE SMOOTH"
);
}
);
width = 297;
}
);
leftKerningGroup = colon;
rightKerningGroup = colon;
unicode = 003B;
},
{
glyphname = slash;
lastChange = "2014-11-10 22:19:38 +0100";
layers = (
{
layerId = "89F00A14-383C-41A8-AF30-A12CE933D7AF";
name = "Regular Extended Italic";
paths = (
{
closed = 1;
nodes = (
"-25 0 LINE",
"77 0 LINE",
"513 700 LINE",
"410 700 LINE"
);
}
);
width = 448;
}
);
unicode = 002F;
},
{
glyphname = underscore;
lastChange = "2014-11-10 22:19:38 +0100";
layers = (
{
layerId = "89F00A14-383C-41A8-AF30-A12CE933D7AF";
name = "Regular Extended Italic";
paths = (
{
closed = 1;
nodes = (
"-66 -150 LINE",
"434 -150 LINE",
"434 -80 LINE",
"-66 -80 LINE"
);
}
);
width = 498;
}
);
leftKerningGroup = period;
rightKerningGroup = period;
unicode = 005F;
},
{
glyphname = underscoredbl;
lastChange = "2014-11-10 22:19:38 +0100";
layers = (
{
layerId = "89F00A14-383C-41A8-AF30-A12CE933D7AF";
name = "Regular Extended Italic";
paths = (
{
closed = 1;
nodes = (
"-66 -150 LINE",
"438 -150 LINE",
"438 -80 LINE",
"-66 -80 LINE"
);
},
{
closed = 1;
nodes = (
"-66 -290 LINE",
"438 -290 LINE",
"438 -220 LINE",
"-66 -220 LINE"
);
}
);
width = 515;
}
);
unicode = 2017;
},
{
glyphname = asterisk.alt;
lastChange = "2014-11-10 22:19:38 +0100";
layers = (
{
layerId = "89F00A14-383C-41A8-AF30-A12CE933D7AF";
name = "Regular Extended Italic";
paths = (
{
closed = 1;
nodes = (
"61 525 LINE",
"89 456 LINE",
"202 532 LINE",
"170 414 LINE",
"249 414 LINE",
"253 531 LINE",
"342 456 LINE",
"391 525 LINE",
"284 575 LINE",
"407 626 LINE",
"379 695 LINE",
"266 619 LINE",
"298 736 LINE",
"219 736 LINE",
"215 619 LINE",
"126 695 LINE",
"77 626 LINE",
"184 575 LINE"
);
},
{
closed = 1;
nodes = (
"224 581 LINE",
"215 619 LINE",
"235 588 LINE",
"266 619 LINE",
"245 581 LINE",
"284 575 LINE",
"243 570 LINE",
"253 531 LINE",
"231 563 LINE",
"202 532 LINE",
"222 570 LINE",
"184 575 LINE"
);
}
);
width = 385;
}
);
},
{
glyphname = braceleft;
lastChange = "2014-11-10 22:19:38 +0100";
layers = (
{
layerId = "89F00A14-383C-41A8-AF30-A12CE933D7AF";
name = "Regular Extended Italic";
paths = (
{
closed = 1;
nodes = (
"270 605 LINE SMOOTH",
"284 685 OFFCURVE",
"311 710 OFFCURVE",
"407 710 CURVE",
"416 775 LINE",
"380 775 LINE SMOOTH",
"255 775 OFFCURVE",
"199 730 OFFCURVE",
"179 605 CURVE SMOOTH",
"151 434 LINE SMOOTH",
"141 374 OFFCURVE",
"118 330 OFFCURVE",
"45 330 CURVE",
"33 260 LINE",
"92 260 OFFCURVE",
"109 233 OFFCURVE",
"109 191 CURVE SMOOTH",
"109 180 OFFCURVE",
"108 168 OFFCURVE",
"106 156 CURVE SMOOTH",
"72 -55 LINE SMOOTH",
"69 -75 OFFCURVE",
"67 -92 OFFCURVE",
"67 -108 CURVE SMOOTH",
"67 -193 OFFCURVE",
"114 -225 OFFCURVE",
"219 -225 CURVE SMOOTH",
"256 -225 LINE",
"267 -160 LINE",
"189 -160 OFFCURVE",
"159 -142 OFFCURVE",
"159 -89 CURVE SMOOTH",
"159 -79 OFFCURVE",
"160 -68 OFFCURVE",
"162 -55 CURVE SMOOTH",
"196 156 LINE SMOOTH",
"198 168 OFFCURVE",
"199 179 OFFCURVE",
"199 190 CURVE SMOOTH",
"199 240 OFFCURVE",
"178 276 OFFCURVE",
"131 295 CURVE",
"195 318 OFFCURVE",
"230 367 OFFCURVE",
"241 434 CURVE SMOOTH"
);
}
);
width = 370;
}
);
unicode = 007B;
},
{
glyphname = braceright;
lastChange = "2014-11-10 22:19:38 +0100";
layers = (
{
layerId = "89F00A14-383C-41A8-AF30-A12CE933D7AF";
name = "Regular Extended Italic";
paths = (
{
closed = 1;
nodes = (
"354 330 LINE",
"293 330 OFFCURVE",
"274 359 OFFCURVE",
"274 401 CURVE SMOOTH",
"274 411 OFFCURVE",
"275 422 OFFCURVE",
"277 434 CURVE SMOOTH",
"306 605 LINE SMOOTH",
"309 625 OFFCURVE",
"311 642 OFFCURVE",
"311 658 CURVE SMOOTH",
"311 743 OFFCURVE",
"263 775 OFFCURVE",
"164 775 CURVE SMOOTH",
"122 775 LINE",
"111 710 LINE",
"190 710 OFFCURVE",
"219 692 OFFCURVE",
"219 638 CURVE SMOOTH",
"219 628 OFFCURVE",
"218 617 OFFCURVE",
"216 605 CURVE SMOOTH",
"187 434 LINE SMOOTH",
"185 423 OFFCURVE",
"184 412 OFFCURVE",
"184 402 CURVE SMOOTH",
"184 351 OFFCURVE",
"208 314 OFFCURVE",
"256 295 CURVE",
"191 272 OFFCURVE",
"154 223 OFFCURVE",
"144 156 CURVE SMOOTH",
"111 -55 LINE SMOOTH",
"99 -135 OFFCURVE",
"65 -160 OFFCURVE",
"-27 -160 CURVE",
"-38 -225 LINE",
"3 -225 LINE SMOOTH",
"121 -225 OFFCURVE",
"181 -180 OFFCURVE",
"201 -55 CURVE SMOOTH",
"234 156 LINE SMOOTH",
"243 216 OFFCURVE",
"269 260 OFFCURVE",
"343 260 CURVE"
);
}
);
width = 375;
}
);
unicode = 007D;
},
{
glyphname = bracketleft;
lastChange = "2014-11-10 22:19:38 +0100";
layers = (
{
layerId = "89F00A14-383C-41A8-AF30-A12CE933D7AF";
name = "Regular Extended Italic";
paths = (
{
closed = 1;
nodes = (
"246 -160 LINE",
"128 -149 LINE",
"261 689 LINE",
"381 700 LINE",
"391 765 LINE",
"181 770 LINE",
"22 -230 LINE",
"236 -225 LINE"
);
}
);
width = 345;
}
);
leftKerningGroup = parenthesis;
rightKerningGroup = parenthesis;
unicode = 005B;
},
{
glyphname = bracketright;
lastChange = "2014-11-10 22:19:38 +0100";
layers = (
{
layerId = "89F00A14-383C-41A8-AF30-A12CE933D7AF";
name = "Regular Extended Italic";
paths = (
{
closed = 1;
nodes = (
"109 700 LINE",
"227 689 LINE",
"94 -149 LINE",
"-27 -160 LINE",
"-36 -225 LINE",
"174 -230 LINE",
"333 770 LINE",
"120 765 LINE"
);
}
);
width = 345;
}
);
leftKerningGroup = parenthesis;
rightKerningGroup = parenthesis;
unicode = 005D;
},
{
glyphname = parenleft;
lastChange = "2014-11-10 22:19:38 +0100";
layers = (
{
layerId = "89F00A14-383C-41A8-AF30-A12CE933D7AF";
name = "Regular Extended Italic";
paths = (
{
closed = 1;
nodes = (
"318 770 LINE",
"140 564 OFFCURVE",
"65 364 OFFCURVE",
"65 129 CURVE SMOOTH",
"65 -1 OFFCURVE",
"96 -113 OFFCURVE",
"159 -230 CURVE",
"246 -230 LINE",
"192 -130 OFFCURVE",
"166 4 OFFCURVE",
"166 134 CURVE SMOOTH",
"166 394 OFFCURVE",
"268 590 OFFCURVE",
"406 770 CURVE"
);
}
);
width = 330;
}
);
leftKerningGroup = parenthesis;
rightKerningGroup = parenthesis;
unicode = 0028;
},
{
glyphname = parenright;
lastChange = "2014-11-10 22:19:38 +0100";
layers = (
{
layerId = "89F00A14-383C-41A8-AF30-A12CE933D7AF";
name = "Regular Extended Italic";
paths = (
{
closed = 1;
nodes = (
"11 -230 LINE",
"189 -24 OFFCURVE",
"264 176 OFFCURVE",
"264 411 CURVE SMOOTH",
"264 541 OFFCURVE",
"233 653 OFFCURVE",
"170 770 CURVE",
"83 770 LINE",
"137 670 OFFCURVE",
"163 536 OFFCURVE",
"163 406 CURVE SMOOTH",
"163 146 OFFCURVE",
"61 -50 OFFCURVE",
"-77 -230 CURVE"
);
}
);
width = 330;
}
);
leftKerningGroup = parenthesis;
rightKerningGroup = parenthesis;
unicode = 0029;
},
{
glyphname = emdash;
lastChange = "2014-11-10 22:19:38 +0100";
layers = (
{
layerId = "89F00A14-383C-41A8-AF30-A12CE933D7AF";
name = "Regular Extended Italic";
paths = (
{
closed = 1;
nodes = (
"0 285 LINE",
"950 285 LINE",
"963 365 LINE",
"13 365 LINE"
);
}
);
width = 947;
}
);
leftKerningGroup = hyphen;
rightKerningGroup = hyphen;
unicode = 2014;
},
{
glyphname = endash;
lastChange = "2014-11-10 22:19:38 +0100";
layers = (
{
layerId = "89F00A14-383C-41A8-AF30-A12CE933D7AF";
name = "Regular Extended Italic";
paths = (
{
closed = 1;
nodes = (
"0 285 LINE",
"489 285 LINE",
"502 365 LINE",
"12 365 LINE"
);
}
);
width = 502;
}
);
leftKerningGroup = hyphen;
rightKerningGroup = hyphen;
unicode = 2013;
},
{
glyphname = horizontalbar;
lastChange = "2014-11-10 22:19:38 +0100";
layers = (
{
layerId = "89F00A14-383C-41A8-AF30-A12CE933D7AF";
name = "Regular Extended Italic";
paths = (
{
closed = 1;
nodes = (
"0 285 LINE",
"950 285 LINE",
"963 365 LINE",
"13 365 LINE"
);
}
);
width = 947;
}
);
unicode = 2015;
},
{
glyphname = hyphen;
lastChange = "2014-11-10 22:19:38 +0100";
layers = (
{
layerId = "89F00A14-383C-41A8-AF30-A12CE933D7AF";
name = "Regular Extended Italic";
paths = (
{
closed = 1;
nodes = (
"49 230 LINE",
"303 230 LINE",
"317 315 LINE",
"63 315 LINE"
);
}
);
width = 382;
}
);
leftKerningGroup = hyphen;
rightKerningGroup = hyphen;
unicode = 002D;
},
{
glyphname = softhyphen;
lastChange = "2014-11-10 22:19:38 +0100";
layers = (
{
layerId = "89F00A14-383C-41A8-AF30-A12CE933D7AF";
name = "Regular Extended Italic";
paths = (
{
closed = 1;
nodes = (
"49 230 LINE",
"303 230 LINE",
"317 315 LINE",
"63 315 LINE"
);
}
);
width = 382;
}
);
unicode = 00AD;
},
{
glyphname = guillemotleft;
lastChange = "2014-11-10 22:19:38 +0100";
layers = (
{
layerId = "89F00A14-383C-41A8-AF30-A12CE933D7AF";
name = "Regular Extended Italic";
paths = (
{
closed = 1;
nodes = (
"364 269 LINE",
"496 403 LINE",
"445 448 LINE",
"280 303 LINE",
"271 243 LINE",
"392 80 LINE",
"448 120 LINE"
);
},
{
closed = 1;
nodes = (
"153 269 LINE",
"280 403 LINE",
"229 448 LINE",
"69 303 LINE",
"60 243 LINE",
"176 80 LINE",
"232 120 LINE"
);
}
);
width = 540;
}
);
unicode = 00AB;
},
{
glyphname = guillemotright;
lastChange = "2014-11-10 22:19:38 +0100";
layers = (
{
layerId = "89F00A14-383C-41A8-AF30-A12CE933D7AF";
name = "Regular Extended Italic";
paths = (
{
closed = 1;
nodes = (
"177 259 LINE",
"45 124 LINE",
"96 80 LINE",
"261 225 LINE",
"270 285 LINE",
"149 448 LINE",
"93 408 LINE"
);
},
{
closed = 1;
nodes = (
"388 259 LINE",
"261 124 LINE",
"312 80 LINE",
"472 225 LINE",
"481 285 LINE",
"365 448 LINE",
"309 408 LINE"
);
}
);
width = 541;
}
);
unicode = 00BB;
},
{
glyphname = guilsinglleft;
lastChange = "2014-11-10 22:19:38 +0100";
layers = (
{
layerId = "89F00A14-383C-41A8-AF30-A12CE933D7AF";
name = "Regular Extended Italic";
paths = (
{
closed = 1;
nodes = (
"153 269 LINE",
"285 403 LINE",
"234 448 LINE",
"69 303 LINE",
"60 243 LINE",
"181 80 LINE",
"237 120 LINE"
);
}
);
width = 335;
}
);
leftKerningGroup = guillemotleft;
unicode = 2039;
},
{
glyphname = guilsinglright;
lastChange = "2014-11-10 22:19:38 +0100";
layers = (
{
layerId = "89F00A14-383C-41A8-AF30-A12CE933D7AF";
name = "Regular Extended Italic";
paths = (
{
closed = 1;
nodes = (
"182 259 LINE",
"55 124 LINE",
"106 80 LINE",
"266 225 LINE",
"275 285 LINE",
"159 448 LINE",
"103 408 LINE"
);
}
);
width = 325;
}
);
rightKerningGroup = guillemotright;
unicode = 203A;
},
{
glyphname = quotedblbase;
lastChange = "2014-11-10 22:19:38 +0100";
layers = (
{
layerId = "89F00A14-383C-41A8-AF30-A12CE933D7AF";
name = "Regular Extended Italic";
paths = (
{
closed = 1;
nodes = (
"56 71 OFFCURVE",
"86 110 OFFCURVE",
"131 110 CURVE SMOOTH",
"169 110 OFFCURVE",
"185 90 OFFCURVE",
"185 55 CURVE SMOOTH",
"185 -40 OFFCURVE",
"38 -174 OFFCURVE",
"38 -174 CURVE",
"0 -136 LINE",
"0 -136 OFFCURVE",
"70 -56 OFFCURVE",
"70 -27 CURVE SMOOTH",
"70 -7 OFFCURVE",
"56 6 OFFCURVE",
"56 31 CURVE SMOOTH"
);
},
{
closed = 1;
nodes = (
"247 71 OFFCURVE",
"277 110 OFFCURVE",
"322 110 CURVE SMOOTH",
"360 110 OFFCURVE",
"376 90 OFFCURVE",
"376 55 CURVE SMOOTH",
"376 -40 OFFCURVE",
"229 -174 OFFCURVE",
"229 -174 CURVE",
"191 -136 LINE",
"191 -136 OFFCURVE",
"261 -56 OFFCURVE",
"261 -27 CURVE SMOOTH",
"261 -7 OFFCURVE",
"247 6 OFFCURVE",
"247 31 CURVE SMOOTH"
);
}
);
width = 446;
}
);
leftKerningGroup = period;
rightKerningGroup = period;
unicode = 201E;
},
{
glyphname = quotedblleft;
lastChange = "2014-11-10 22:19:38 +0100";
layers = (
{
layerId = "89F00A14-383C-41A8-AF30-A12CE933D7AF";
name = "Regular Extended Italic";
paths = (
{
closed = 1;
nodes = (
"179 535 OFFCURVE",
"149 496 OFFCURVE",
"104 496 CURVE SMOOTH",
"66 496 OFFCURVE",
"50 516 OFFCURVE",
"50 551 CURVE SMOOTH",
"50 646 OFFCURVE",
"197 780 OFFCURVE",
"197 780 CURVE",
"235 742 LINE",
"235 742 OFFCURVE",
"165 662 OFFCURVE",
"165 633 CURVE SMOOTH",
"165 613 OFFCURVE",
"179 600 OFFCURVE",
"179 575 CURVE SMOOTH"
);
},
{
closed = 1;
nodes = (
"370 535 OFFCURVE",
"340 496 OFFCURVE",
"295 496 CURVE SMOOTH",
"257 496 OFFCURVE",
"241 516 OFFCURVE",
"241 551 CURVE SMOOTH",
"241 646 OFFCURVE",
"388 780 OFFCURVE",
"388 780 CURVE",
"426 742 LINE",
"426 742 OFFCURVE",
"356 662 OFFCURVE",
"356 633 CURVE SMOOTH",
"356 613 OFFCURVE",
"370 600 OFFCURVE",
"370 575 CURVE SMOOTH"
);
}
);
width = 396;
}
);
leftKerningGroup = quotesingle;
rightKerningGroup = quotesingle;
unicode = 201C;
},
{
glyphname = quotedblright;
lastChange = "2014-11-10 22:19:38 +0100";
layers = (
{
layerId = "89F00A14-383C-41A8-AF30-A12CE933D7AF";
name = "Regular Extended Italic";
paths = (
{
closed = 1;
nodes = (
"322 741 OFFCURVE",
"352 780 OFFCURVE",
"397 780 CURVE SMOOTH",
"435 780 OFFCURVE",
"451 760 OFFCURVE",
"451 725 CURVE SMOOTH",
"451 630 OFFCURVE",
"304 496 OFFCURVE",
"304 496 CURVE",
"266 534 LINE",
"266 534 OFFCURVE",
"336 614 OFFCURVE",
"336 643 CURVE SMOOTH",
"336 663 OFFCURVE",
"322 676 OFFCURVE",
"322 701 CURVE SMOOTH"
);
},
{
closed = 1;
nodes = (
"131 741 OFFCURVE",
"161 780 OFFCURVE",
"206 780 CURVE SMOOTH",
"244 780 OFFCURVE",
"260 760 OFFCURVE",
"260 725 CURVE SMOOTH",
"260 630 OFFCURVE",
"113 496 OFFCURVE",
"113 496 CURVE",
"75 534 LINE",
"75 534 OFFCURVE",
"145 614 OFFCURVE",
"145 643 CURVE SMOOTH",
"145 663 OFFCURVE",
"131 676 OFFCURVE",
"131 701 CURVE SMOOTH"
);
}
);
width = 491;
}
);
leftKerningGroup = quotesingle;
rightKerningGroup = quotesingle;
unicode = 201D;
},
{
glyphname = quoteleft;
lastChange = "2014-11-10 22:19:38 +0100";
layers = (
{
layerId = "89F00A14-383C-41A8-AF30-A12CE933D7AF";
name = "Regular Extended Italic";
paths = (
{
closed = 1;
nodes = (
"179 535 OFFCURVE",
"149 496 OFFCURVE",
"104 496 CURVE SMOOTH",
"66 496 OFFCURVE",
"50 516 OFFCURVE",
"50 551 CURVE SMOOTH",
"50 646 OFFCURVE",
"197 780 OFFCURVE",
"197 780 CURVE",
"235 742 LINE",
"235 742 OFFCURVE",
"165 662 OFFCURVE",
"165 633 CURVE SMOOTH",
"165 613 OFFCURVE",
"179 600 OFFCURVE",
"179 575 CURVE SMOOTH"
);
}
);
width = 205;
}
);
leftKerningGroup = quotesingle;
rightKerningGroup = quotesingle;
unicode = 2018;
},
{
glyphname = quotereversed;
lastChange = "2014-11-10 22:19:38 +0100";
layers = (
{
layerId = "89F00A14-383C-41A8-AF30-A12CE933D7AF";
name = "Regular Extended Italic";
paths = (
{
closed = 1;
nodes = (
"236 674 OFFCURVE",
"208 657 OFFCURVE",
"208 633 CURVE SMOOTH",
"208 596 OFFCURVE",
"245 534 OFFCURVE",
"245 534 CURVE",
"196 496 LINE",
"145 562 OFFCURVE",
"114 632 OFFCURVE",
"114 686 CURVE SMOOTH",
"114 758 OFFCURVE",
"155 780 OFFCURVE",
"190 780 CURVE SMOOTH",
"224 780 OFFCURVE",
"244 757 OFFCURVE",
"244 725 CURVE SMOOTH",
"244 721 OFFCURVE",
"244 717 OFFCURVE",
"243 713 CURVE"
);
}
);
width = 232;
}
);
unicode = 201B;
},
{
glyphname = quoteright;
lastChange = "2014-11-10 22:19:38 +0100";
layers = (
{
layerId = "89F00A14-383C-41A8-AF30-A12CE933D7AF";
name = "Regular Extended Italic";
paths = (
{
closed = 1;
nodes = (
"131 741 OFFCURVE",
"161 780 OFFCURVE",
"206 780 CURVE SMOOTH",
"244 780 OFFCURVE",
"260 760 OFFCURVE",
"260 725 CURVE SMOOTH",
"260 630 OFFCURVE",
"113 496 OFFCURVE",
"113 496 CURVE",
"75 534 LINE",
"75 534 OFFCURVE",
"145 614 OFFCURVE",
"145 643 CURVE SMOOTH",
"145 663 OFFCURVE",
"131 676 OFFCURVE",
"131 701 CURVE SMOOTH"
);
}
);
width = 243;
}
);
leftKerningGroup = quotesingle;
rightKerningGroup = quotesingle;
unicode = 2019;
},
{
glyphname = quotesinglbase;
lastChange = "2014-11-10 22:19:38 +0100";
layers = (
{
layerId = "89F00A14-383C-41A8-AF30-A12CE933D7AF";
name = "Regular Extended Italic";
paths = (
{
closed = 1;
nodes = (
"56 71 OFFCURVE",
"86 110 OFFCURVE",
"131 110 CURVE SMOOTH",
"169 110 OFFCURVE",
"185 90 OFFCURVE",
"185 55 CURVE SMOOTH",
"185 -40 OFFCURVE",
"38 -174 OFFCURVE",
"38 -174 CURVE",
"0 -136 LINE",
"0 -136 OFFCURVE",
"70 -56 OFFCURVE",
"70 -27 CURVE SMOOTH",
"70 -7 OFFCURVE",
"56 6 OFFCURVE",
"56 31 CURVE SMOOTH"
);
}
);
width = 260;
}
);
leftKerningGroup = period;
rightKerningGroup = period;
unicode = 201A;
},
{
glyphname = florin;
lastChange = "2014-11-10 22:19:38 +0100";
layers = (
{
layerId = "89F00A14-383C-41A8-AF30-A12CE933D7AF";
name = "Regular Extended Italic";
paths = (
{
closed = 1;
nodes = (
"405 376 LINE",
"418 450 LINE",
"280 450 LINE",
"318 605 LINE SMOOTH",
"333 664 OFFCURVE",
"355 700 OFFCURVE",
"422 700 CURVE SMOOTH",
"487 700 LINE",
"503 770 LINE",
"503 770 OFFCURVE",
"457 780 OFFCURVE",
"423 780 CURVE SMOOTH",
"300 780 OFFCURVE",
"243 719 OFFCURVE",
"210 585 CURVE SMOOTH",
"176 450 LINE",
"85 439 LINE",
"74 376 LINE",
"158 376 LINE",
"60 -25 LINE SMOOTH",
"45 -85 OFFCURVE",
"23 -120 OFFCURVE",
"-43 -120 CURVE SMOOTH",
"-97 -120 LINE",
"-112 -190 LINE",
"-112 -190 OFFCURVE",
"-77 -200 OFFCURVE",
"-45 -200 CURVE SMOOTH",
"90 -200 OFFCURVE",
"138 -125 OFFCURVE",
"168 -5 CURVE SMOOTH",
"261 376 LINE"
);
}
);
width = 443;
}
);
unicode = 0192;
},
{
glyphname = cent;
lastChange = "2014-11-10 22:19:38 +0100";
layers = (
{
layerId = "89F00A14-383C-41A8-AF30-A12CE933D7AF";
name = "Regular Extended Italic";
paths = (
{
closed = 1;
nodes = (
"395 521 LINE",
"395 521 OFFCURVE",
"371 531 OFFCURVE",
"330 531 CURVE SMOOTH",
"216 531 OFFCURVE",
"150 433 OFFCURVE",
"150 307 CURVE SMOOTH",
"150 239 OFFCURVE",
"196 191 OFFCURVE",
"260 191 CURVE SMOOTH",
"338 191 OFFCURVE",
"375 219 OFFCURVE",
"405 236 CURVE",
"435 186 LINE",
"435 186 OFFCURVE",
"355 129 OFFCURVE",
"269 114 CURVE",
"251 0 LINE",
"178 0 LINE",
"196 114 LINE",
"112 129 OFFCURVE",
"50 201 OFFCURVE",
"50 290 CURVE SMOOTH",
"50 470 OFFCURVE",
"143 578 OFFCURVE",
"277 604 CURVE",
"292 694 LINE",
"366 699 LINE",
"351 611 LINE",
"428 609 OFFCURVE",
"485 571 OFFCURVE",
"485 571 CURVE",
"460 436 LINE",
"395 436 LINE"
);
}
);
width = 478;
}
);
unicode = 00A2;
},
{
glyphname = currency;
lastChange = "2014-11-10 22:19:38 +0100";
layers = (
{
layerId = "89F00A14-383C-41A8-AF30-A12CE933D7AF";
name = "Regular Extended Italic";
paths = (
{
closed = 1;
nodes = (
"26 110 LINE",
"65 58 LINE",
"153 134 LINE",
"180 115 OFFCURVE",
"215 105 OFFCURVE",
"258 105 CURVE SMOOTH",
"301 105 OFFCURVE",
"339 116 OFFCURVE",
"372 136 CURVE",
"437 58 LINE",
"494 110 LINE",
"429 189 LINE",
"462 232 OFFCURVE",
"482 288 OFFCURVE",
"482 350 CURVE SMOOTH",
"482 373 OFFCURVE",
"478 394 OFFCURVE",
"470 412 CURVE",
"553 486 LINE",
"514 538 LINE",
"427 463 LINE",
"403 480 OFFCURVE",
"370 490 OFFCURVE",
"331 490 CURVE SMOOTH",
"286 490 OFFCURVE",
"245 477 OFFCURVE",
"210 455 CURVE",
"142 538 LINE",
"85 486 LINE",
"153 402 LINE",
"121 360 OFFCURVE",
"102 306 OFFCURVE",
"102 246 CURVE SMOOTH",
"102 224 OFFCURVE",
"105 204 OFFCURVE",
"112 187 CURVE"
);
},
{
closed = 1;
nodes = (
"367 421 OFFCURVE",
"395 389 OFFCURVE",
"395 331 CURVE SMOOTH",
"395 237 OFFCURVE",
"345 174 OFFCURVE",
"276 174 CURVE SMOOTH",
"224 174 OFFCURVE",
"189 203 OFFCURVE",
"189 259 CURVE SMOOTH",
"189 359 OFFCURVE",
"241 421 OFFCURVE",
"315 421 CURVE SMOOTH"
);
}
);
width = 579;
}
);
unicode = 00A4;
},
{
glyphname = dollar;
lastChange = "2014-11-10 22:19:38 +0100";
layers = (
{
layerId = "89F00A14-383C-41A8-AF30-A12CE933D7AF";
name = "Regular Extended Italic";
paths = (
{
closed = 1;
nodes = (
"111 195 LINE",
"49 195 LINE",
"22 28 LINE",
"22 28 OFFCURVE",
"99 -7 OFFCURVE",
"187 -10 CURVE",
"166 -140 LINE",
"239 -140 LINE",
"261 -4 LINE",
"368 16 OFFCURVE",
"462 88 OFFCURVE",
"462 214 CURVE SMOOTH",
"462 381 OFFCURVE",
"197 348 OFFCURVE",
"197 465 CURVE SMOOTH",
"197 517 OFFCURVE",
"245 560 OFFCURVE",
"325 560 CURVE SMOOTH",
"370 560 OFFCURVE",
"417 543 OFFCURVE",
"417 543 CURVE",
"430 442 LINE",
"484 442 LINE",
"514 600 LINE",
"514 600 OFFCURVE",
"437 631 OFFCURVE",
"362 637 CURVE",
"380 750 LINE",
"306 745 LINE",
"289 634 LINE",
"187 619 OFFCURVE",
"96 556 OFFCURVE",
"96 438 CURVE SMOOTH",
"96 259 OFFCURVE",
"361 299 OFFCURVE",
"361 180 CURVE SMOOTH",
"361 111 OFFCURVE",
"280 73 OFFCURVE",
"213 73 CURVE SMOOTH",
"157 73 OFFCURVE",
"114 93 OFFCURVE",
"114 93 CURVE"
);
}
);
width = 543;
}
);
unicode = 0024;
},
{
glyphname = euro;
lastChange = "2014-11-10 22:19:38 +0100";
layers = (
{
layerId = "89F00A14-383C-41A8-AF30-A12CE933D7AF";
name = "Regular Extended Italic";
paths = (
{
closed = 1;
nodes = (
"74 450 LINE",
"140 450 LINE",
"195 611 OFFCURVE",
"314 710 OFFCURVE",
"461 710 CURVE SMOOTH",
"560 710 OFFCURVE",
"646 667 OFFCURVE",
"646 667 CURVE",
"616 509 LINE",
"565 509 LINE",
"553 609 LINE",
"535 614 OFFCURVE",
"493 625 OFFCURVE",
"441 625 CURVE SMOOTH",
"354 625 OFFCURVE",
"287 552 OFFCURVE",
"250 450 CURVE",
"495 450 LINE",
"484 380 LINE",
"63 380 LINE"
);
},
{
closed = 1;
nodes = (
"52 310 LINE",
"473 310 LINE",
"462 240 LINE",
"218 240 LINE",
"222 148 OFFCURVE",
"257 78 OFFCURVE",
"351 78 CURVE SMOOTH",
"448 78 OFFCURVE",
"543 151 OFFCURVE",
"543 151 CURVE",
"574 97 LINE",
"574 97 OFFCURVE",
"465 -10 OFFCURVE",
"328 -10 CURVE SMOOTH",
"183 -10 OFFCURVE",
"108 94 OFFCURVE",
"108 239 CURVE",
"41 239 LINE"
);
}
);
width = 651;
}
);
unicode = 20AC;
},
{
glyphname = franc;
lastChange = "2014-11-10 22:19:38 +0100";
layers = (
{
layerId = "89F00A14-383C-41A8-AF30-A12CE933D7AF";
name = "Regular Extended Italic";
paths = (
{
closed = 1;
nodes = (
"34 164 LINE",
"342 164 LINE",
"353 239 LINE",
"45 239 LINE"
);
},
{
closed = 1;
nodes = (
"287 620 LINE",
"508 620 LINE",
"518 530 LINE",
"574 530 LINE",
"601 700 LINE",
"300 700 LINE",
"114 695 LINE",
"105 640 LINE",
"188 620 LINE",
"101 80 LINE",
"13 60 LINE",
"3 0 LINE",
"289 0 LINE",
"299 60 LINE",
"201 80 LINE",
"240 320 LINE",
"468 320 LINE",
"480 400 LINE",
"251 400 LINE"
);
}
);
width = 572;
}
);
unicode = 20A3;
},
{
glyphname = lira;
lastChange = "2014-11-10 22:19:38 +0100";
layers = (
{
layerId = "89F00A14-383C-41A8-AF30-A12CE933D7AF";
name = "Regular Extended Italic";
paths = (
{
closed = 1;
nodes = (
"164 314 LINE",
"159 263 OFFCURVE",
"156 228 OFFCURVE",
"152 205 CURVE SMOOTH",
"138 120 OFFCURVE",
"123 87 OFFCURVE",
"77 75 CURVE SMOOTH",
"20 60 LINE",
"11 0 LINE",
"506 0 LINE",
"536 182 LINE",
"470 182 LINE",
"433 80 LINE",
"186 80 LINE",
"186 80 OFFCURVE",
"235 115 OFFCURVE",
"251 215 CURVE SMOOTH",
"254 235 OFFCURVE",
"258 266 OFFCURVE",
"263 314 CURVE"
);
},
{
closed = 1;
nodes = (
"64 385 LINE",
"422 385 LINE",
"434 455 LINE",
"76 455 LINE"
);
},
{
closed = 1;
nodes = (
"44 250 LINE",
"402 250 LINE",
"414 320 LINE",
"56 320 LINE"
);
},
{
closed = 1;
nodes = (
"271 409 OFFCURVE",
"280 492 OFFCURVE",
"286 530 CURVE SMOOTH",
"296 590 OFFCURVE",
"332 630 OFFCURVE",
"405 630 CURVE SMOOTH",
"451 630 OFFCURVE",
"495 626 OFFCURVE",
"513 624 CURVE",
"526 509 LINE",
"582 509 LINE",
"609 680 LINE",
"609 680 OFFCURVE",
"531 710 OFFCURVE",
"413 710 CURVE SMOOTH",
"276 710 OFFCURVE",
"204 630 OFFCURVE",
"185 510 CURVE SMOOTH",
"180 478 OFFCURVE",
"176 441 OFFCURVE",
"173 409 CURVE",
"271 409 LINE"
);
}
);
width = 609;
}
);
unicode = 20A4;
},
{
glyphname = peseta;
lastChange = "2014-11-10 22:19:38 +0100";
layers = (
{
layerId = "89F00A14-383C-41A8-AF30-A12CE933D7AF";
name = "Regular Extended Italic";
paths = (
{
closed = 1;
nodes = (
"74 440 LINE",
"662 440 LINE",
"673 515 LINE",
"85 515 LINE"
);
},
{
closed = 1;
nodes = (
"114 695 LINE",
"105 640 LINE",
"186 620 LINE",
"100 80 LINE",
"13 60 LINE",
"3 0 LINE",
"276 0 LINE",
"286 60 LINE",
"200 79 LINE",
"228 250 LINE",
"294 250 LINE SMOOTH",
"431 250 OFFCURVE",
"600 310 OFFCURVE",
"600 535 CURVE SMOOTH",
"600 665 OFFCURVE",
"494 700 OFFCURVE",
"404 700 CURVE SMOOTH",
"299 700 LINE"
);
},
{
closed = 1;
nodes = (
"286 620 LINE",
"386 620 LINE SMOOTH",
"425 620 OFFCURVE",
"495 603 OFFCURVE",
"495 514 CURVE SMOOTH",
"495 418 OFFCURVE",
"451 330 OFFCURVE",
"307 330 CURVE SMOOTH",
"240 330 LINE"
);
}
);
width = 674;
}
);
unicode = 20A7;
},
{
glyphname = sterling;
lastChange = "2014-11-10 22:19:38 +0100";
layers = (
{
layerId = "89F00A14-383C-41A8-AF30-A12CE933D7AF";
name = "Regular Extended Italic";
paths = (
{
closed = 1;
nodes = (
"499 0 LINE",
"529 182 LINE",
"463 182 LINE",
"426 80 LINE",
"179 80 LINE",
"179 80 OFFCURVE",
"228 115 OFFCURVE",
"244 215 CURVE SMOOTH",
"247 235 OFFCURVE",
"253 287 OFFCURVE",
"258 335 CURVE",
"415 335 LINE",
"427 409 LINE",
"264 409 LINE",
"264 409 OFFCURVE",
"273 492 OFFCURVE",
"279 530 CURVE SMOOTH",
"289 590 OFFCURVE",
"325 630 OFFCURVE",
"398 630 CURVE SMOOTH",
"444 630 OFFCURVE",
"488 626 OFFCURVE",
"506 624 CURVE",
"519 509 LINE",
"575 509 LINE",
"602 680 LINE",
"602 680 OFFCURVE",
"524 710 OFFCURVE",
"406 710 CURVE SMOOTH",
"269 710 OFFCURVE",
"197 630 OFFCURVE",
"178 510 CURVE SMOOTH",
"173 478 OFFCURVE",
"169 441 OFFCURVE",
"166 409 CURVE",
"67 398 LINE",
"57 335 LINE",
"159 335 LINE",
"154 284 OFFCURVE",
"149 228 OFFCURVE",
"145 205 CURVE SMOOTH",
"131 120 OFFCURVE",
"116 87 OFFCURVE",
"70 75 CURVE SMOOTH",
"13 60 LINE",
"4 0 LINE"
);
}
);
width = 602;
}
);
unicode = 00A3;
},
{
glyphname = yen;
lastChange = "2014-11-10 22:19:38 +0100";
layers = (
{
layerId = "89F00A14-383C-41A8-AF30-A12CE933D7AF";
name = "Regular Extended Italic";
paths = (
{
closed = 1;
nodes = (
"102 360 LINE",
"91 290 LINE",
"532 290 LINE",
"543 360 LINE",
"424 360 LINE",
"590 620 LINE",
"673 640 LINE",
"683 700 LINE",
"426 695 LINE",
"416 640 LINE",
"491 621 LINE",
"323 334 LINE",
"223 700 LINE",
"58 695 LINE",
"49 640 LINE",
"143 620 LINE",
"219 360 LINE"
);
},
{
closed = 1;
nodes = (
"119 0 LINE",
"392 0 LINE",
"402 60 LINE",
"319 80 LINE",
"331 155 LINE",
"511 155 LINE",
"522 225 LINE",
"81 225 LINE",
"70 155 LINE",
"231 155 LINE",
"219 80 LINE",
"129 60 LINE"
);
}
);
width = 629;
}
);
unicode = 00A5;
},
